<?xml version="1.0" encoding="utf-8"?>
<!-- Generator: Adobe Illustrator 19.2.0, SVG Export Plug-In . SVG Version: 6.00 Build 0)  -->
<svg version="1.1" id="migration-svg" xmlns="http://www.w3.org/2000/svg" xmlns:xlink="http://www.w3.org/1999/xlink" x="0px"
	 y="0px" viewBox="0 0 800 600" style="enable-background:new 0 0 800 600;" xml:space="preserve">
<style type="text/css">
	.st0{fill:none;stroke:#000000;stroke-miterlimit:10;}
</style>
<g id="world-group">
	<g>
		<path id="shape0" class="st0" d="M529.4,526c0,12.4-5,23.7-13.2,31.9s-19.4,13.2-31.9,13.2s-23.7-5-31.9-13.2
			s-13.2-19.4-13.2-31.9c0-12.4,5-23.7,13.2-31.9c8.2-8.2,19.4-13.2,31.9-13.2s23.7,5,31.9,13.2C524.3,502.3,529.4,513.6,529.4,526z
			"/>
	</g>
</g>
<g id="world-group_1_">
	<g>
		<path id="shape0_1_" class="st0" d="M756.3,338.5c0,12.4-5,23.7-13.2,31.9s-19.4,13.2-31.9,13.2s-23.7-5-31.9-13.2
			s-13.2-19.4-13.2-31.9c0-12.4,5-23.7,13.2-31.9c8.2-8.2,19.4-13.2,31.9-13.2s23.7,5,31.9,13.2
			C751.2,314.8,756.3,326.1,756.3,338.5z"/>
	</g>
</g>
<g id="world-group_7_">
	<g>
		<path id="shape0_7_" class="st0" d="M674.7,446.4c0,12.4-5,23.7-13.2,31.9s-19.4,13.2-31.9,13.2s-23.7-5-31.9-13.2
			s-13.2-19.4-13.2-31.9c0-12.4,5-23.7,13.2-31.9c8.2-8.2,19.4-13.2,31.9-13.2s23.7,5,31.9,13.2C669.6,422.7,674.7,434,674.7,446.4z
			"/>
	</g>
</g>
<g id="world-group_2_">
	<g>
		<path id="shape0_2_" class="st0" d="M763.2,197.2c0,12.4-5,23.7-13.2,31.9s-19.4,13.2-31.9,13.2s-23.7-5-31.9-13.2
			S673,209.7,673,197.2c0-12.4,5-23.7,13.2-31.9c8.2-8.2,19.4-13.2,31.9-13.2s23.7,5,31.9,13.2C758.1,173.5,763.2,184.8,763.2,197.2
			z"/>
	</g>
</g>
<g id="world-group_8_">
	<g>
		<path id="shape0_8_" class="st0" d="M718.1,77c0,12.4-5,23.7-13.2,31.9s-19.4,13.2-31.9,13.2s-23.7-5-31.9-13.2
			S627.9,89.5,627.9,77c0-12.4,5-23.7,13.2-31.9c8.2-8.2,19.4-13.2,31.9-13.2s23.7,5,31.9,13.2C713,53.3,718.1,64.6,718.1,77z"/>
	</g>
</g>
<g id="world-group_3_">
	<g>
		<path id="shape0_3_" class="st0" d="M212.9,180.7c0,12.4-5,23.7-13.2,31.9s-19.4,13.2-31.9,13.2s-23.7-5-31.9-13.2
			s-13.2-19.4-13.2-31.9c0-12.4,5-23.7,13.2-31.9c8.2-8.2,19.4-13.2,31.9-13.2s23.7,5,31.9,13.2C207.8,157,212.9,168.3,212.9,180.7z
			"/>
	</g>
</g>
<g id="world-group_6_">
	<g>
		<path id="shape0_6_" class="st0" d="M402.2,110.1c0,12.4-5,23.7-13.2,31.9s-19.4,13.2-31.9,13.2s-23.7-5-31.9-13.2
			S312,122.6,312,110.1c0-12.4,5-23.7,13.2-31.9C333.4,70,344.6,65,357.1,65s23.7,5,31.9,13.2C397.1,86.4,402.2,97.7,402.2,110.1z"
			/>
	</g>
</g>
<g id="world-group_5_">
	<g>
		<path id="shape0_5_" class="st0" d="M162.6,530.6c0,12.4-5,23.7-13.2,31.9c-8.2,8.2-19.4,13.2-31.9,13.2s-23.7-5-31.9-13.2
			c-8.2-8.2-13.2-19.4-13.2-31.9c0-12.4,5-23.7,13.2-31.9c8.2-8.2,19.4-13.2,31.9-13.2s23.7,5,31.9,13.2
			C157.5,506.9,162.6,518.2,162.6,530.6z"/>
	</g>
</g>
<g id="world-group_4_">
	<g>
		<path id="shape0_4_" class="st0" d="M111,348.5c0,12.4-5,23.7-13.2,31.9s-19.4,13.2-31.9,13.2s-23.7-5-31.9-13.2
			S20.8,361,20.8,348.5c0-12.4,5-23.7,13.2-31.9c8.2-8.2,19.4-13.2,31.9-13.2s23.7,5,31.9,13.2C105.9,324.8,111,336.1,111,348.5z"/>
	</g>
</g>
<g>
	<path id="shape1" class="st0" d="M374.1,407.8l-0.4-4.1l-2.6,0.6l-1.3-2.8l-4.7,3.9l-5-6.9l-6.9,2l-6,1l-2.3,5.4l-2.8,2.8l-8.7-5
		l-8.8-0.4l1.3-3l-9.7-5.1l-3.3,6.5l-1.2,4.8l-3,1.7l0.8,2.3l-2.4,4.2l-0.7,3.2l-4.4,2.7l-5.1-1l-1.5-1.5l-3.4,0.8l0.8,3.1l-8,3.3
		l-3.6,3.7l-4,5.7l-3-0.7l-3.7,0.9l-1.6,2.7l1.2,3.1l-3.1,4.7l-4.4-0.7l-4.8,0.5l-4.3-5l-3.5-1.9l-2.9-9.3l4.5-10.3l-2.7-1.4l-6.7,7
		L238,426l-5.7,2.8l-0.5,5.9l-2.4,1.6l-1.3-4l0.3-3.4l-2.7-6.8l2.6-1.4l0.7-5l-3.7-3.7l-11.5-5.1l1.8-3l-0.6-3.3l0.6-6.5l-3.3-6.3
		l1-1.8l-2.1-2.5l0.1-4.5l-1.1-4.9l2.2-1.2l-1-7.4l-4.9-2.7l-1.1-3.7l-3.2-0.4l-2.7-4.5l-2.1,0.5l-2.7,3l-1.4,4.8l-3.3,5.7l-3,1.1
		l-2.5-2.1l-2.6,0.1l-0.4,4.6l-3.5,0.2l1.4,3.2l-5.2,5.1l3.7,4.6l0.7,2.7l6.2,7.5l3.9,6.8l1.8,5.7l0.3,4l1.6,9.5l-0.9,1.9l0.6,4.7
		l-1.6,7l-4.9,5.4l-2,0.2l-3.2-2.4l-1.9,0.8l-0.5,6.6l0.3,4.1l3.2-1.2l1.6,1.9l-2.8,2.4l4.8,4.8l1.5,3l3.1,3.9l2.7,5.5l3,4.5l1.5,6
		l-2.8,1.8l-2.7,5.4l1.5,2.5l1.4,7.6l2.3-3l-1.6-2.1l1.3-2.5l7.1-1.4l3.7,1.1l1,6.3l-0.6,4.1l6.9-1.4l5.4,3.7l1.7-1.1l2.6,2.9
		l1.4,4.5l6,5.4l4,0.8l4.6-0.1l3.7,2.6l2.8-3.7l4.8-1.8l0.8-1.9l4.6-2.9l2.2-2.7l6.7-1.5h5.6l-0.6-1.9l2.6-1.3l6.2,0.6l4.9,2.1
		l7.6-3.1l5,1.4l6-1.9l1.4-3.7l5.6-1.6l0.5-3.3l3.3-2.2l3.8-0.1l4-0.1l2.5-2.1l6.5,1.2l6.2,2.2l6-0.1l6.6,0.5l2-3.3l6.5-1.1l0.3-3.5
		l-4.3-3.8l-3.9,0.3l1.4-2.9l3.7-1.6l3.5-0.1l-1.6-3.8l-0.4-2.7l-3.4-2.1h-4.4l-1.8-2h-5.1l-6.2,1.6l-5-0.4l-1.2-0.9l4.9-9.5
		l1.3-4.4l2.3-5.6l4.4-3.9l7.2,2.2l0.6-2.4h-1.5l-2-7.8l-2.1-4.7l5.9-1.3l1.2-2.5l6.8,0.8l0.1-3.9l4-1.6l3,2.2l6.5-3.3l1.2-5.7
		l2.6-2L374.1,407.8z"/>
</g>
<g>
	<path id="shape2" class="st0" d="M560.6,375.5l-0.7-4.3l-1.8-2l-3.2-0.9l-3.4-2.3l-8.7-3.9l-0.9-0.2l-1-1.1l-4.3,1.1l-7.5-1.6
		l2-6.2l3.3-1.9V350l-5.2-2.1l-0.6-5.8l-3.2-3.6l-4.9,3.1l-5.2,1.3h-3.8l-6.4,1.6l-0.8,2.4l-3.2,1l1,4.1l-2.7,2.3l-0.2,3.1l-1.9,2.7
		l0.1,2.5l-5.6-0.9l-0.6-1.5l-4.3,0.6l-4.9-4l-5-7l-2.7,0.5l-2.9,6.3l-8.8,1.3l1,2.3l-2.9,2.2l-4-0.7l-3.3,1.6l-6.9-2.1l-1.9-2.3
		l-4.5,0.5l-3.7-3.5l-5.9,2.1l-6.1,4.9l-4.6-0.6l-0.8-2.4l-4.3,1.1l0.4,5.6l1.3,2l-1.5,5.5l0.4,2l-3.2,4.1l0.1,2.4l-5.1-0.8
		l-1.7,1.6l-5.1,0.9l-4.8,2.3l-2,2.3l-3.8-0.2l-3.1,1.3l-2,5.4l0.1,5.1l-5,0.3l-2.4,1.9l-3.6,0.8l0.3,4.2l1.8,1.9l-2.5,2.1l-1.2,5.6
		l-6.5,3.4l-3-2.3l-4,1.6l-0.1,4l-6.8-0.8l-1.2,2.4l-5.9,1.3l2.1,4.7l2,7.9h1.4l-0.6,2.3l-7.2-2.2l-4.3,3.9l-2.3,5.6l-1.3,4.4
		l-4.9,9.5l1.2,0.9l5,0.4l6.2-1.5h5.1l1.8,1.9l4.4,0.1l3.4,2l0.3,2.7l1.7,3.9h-3.5l-3.7,1.6l-1.4,2.9l3.9-0.3l4.2,3.9l-0.2,3.5
		l6.2,1.7l10.8,1.5l5.9,1.4l2,1.5l4.8,1.7l1.9-0.5l5.2,1.4l0.5-2.7l2.4-2.3l0.5-2.8l4.5-1.6l4.4,0.3l5.4,2.3l6.1,0.7l1.7-7.5
		l1.9-2.3l4.5-2.5l5.2-0.7l5.4,0.8l4.2,1.6l6.4-0.5l7-3.9l11.2-4.7l0.7-1.1l2.4-1.3l8.8-6.7l7.3-6l6-3.4l4.8-4.5l1.4-2.9l8.4-5.6
		l3.9-2.9l5.1-5.7l6.5-6.2l6.5-8.2l3-4l4.3-5.2l3-4.3l2.5-0.9l5.9-5.1l2.1-2.7l2.4-0.3l6.6-7.2l4.6-6.1L560.6,375.5z"/>
</g>
<g>
	<path id="shape3" class="st0" d="M414.9,374.2l1.4-5.4l-1.2-2l-0.4-5.6l-2.9-2.4l-2.1,0.7l-8.5-8.4l-2.7-4.4l-1.5-0.6l-3.2-6.2
		l-4-2.3l-6.2-5.7l-1.9-0.8l-2-4.9l10.8-22.5l3.4-7l3.1-6.5l-2.3-0.7l2.2-7l4.1-12.6l-2.4,1.4l-2.9-4.7l-0.9-1.7l6.8-8.2l-1.5-0.7
		l-6.2,0.8l-3.4-2.1l-1.1,5.2l1.3,1.3l-2.6,2.7l0.4,3.2l-3,3.4l-2.1-3.9l-3.3-2.5l2.9-4.5l-1.5-3.6l-9.2,2.1l0.3-4.2l-2.1-0.6
		l0.1-6.1l0.9-2.7l-2.2-1l-3.6-2.6l2.4-5.4l1.9-1.5l-2.1-5.6l-3.6-0.1l-2.9-1.8l-8.5-3.5l3-4.3l-3.8-3l-6.1-1.6l0.4-5.1l-1.8-2.3
		l2.7-4.5l-2.9-1l0.5-2.1l3.8,1.2l1.1-2.8l-9.4-0.8l-0.7,4l-2.4-0.3l-2.5,1.9l-2,8.6l-1.2,2.1l-3-1.5l-0.2-10.1l-2.2,0.1l-2.3,3.5
		h-4.2l-1.8,3.4l-3.7,0.9l-6.2,10l-3,1.2l-5.1,0.3l0.1,3.3l-3,3.1l-9.1-1.3l-8.5,1.8l-7.7-2.7l-2.1,0.9l-1.7,1.5l-2.7-0.2l-1.7-2.6
		l0.8-12.2l6.7-10.5l-1.5-4.4l0.7-2l-4.8-8.8l0.5-3.5l-5-8.6l0.1-1.9l-3-3.1l-2-5.7l-5.6-4.8l-2.7-0.5l-3.7-4l0.1,26.4v21.2v28.6
		v28.5l-0.1,23.1l-8.3,2.1l-1.9,1.5l-3.8,0.4l-1.2,2l-0.6,3.1l-2.7,1.9l-4.2,0.2l-0.9,2.3l1.3,3.6l-5.1,2.2l-3.6-1.6l-2.1-2.4
		l-6.5-0.9l-6.7,2.1l-7.8-0.4l-2.2,1.2l-4.6-1.4l-3.7-3.7l-9.7-0.2l-0.6-2.5l-5.6,1l0.4-5.4l-3-3.4l2.5-3.5l-2.5-5.3l-3.7,0.8
		l-0.6-4.3l-3.5-3.3l-6.2,2l0.1,2.9l-2.7,1.7l-1.5,2.9l1.7,2l-2.3,4.8l-1.5-0.8l-3,2.2l-3.4,1.1l-0.9,2.4l3.4,3.1l1.3,5.6l2.7,1.8
		l1.8,4.1l2.1,1.7l0.7,4.3l3,5.4l1.9,5.5l2.6,10.8l3.2,8.8l2.9,9.9l5,10.4l2.8,4.1l2.2,6l2.7,3.6l2.4,5.6l5.3-5.1l-1.5-3.2l3.6-0.2
		l0.4-4.6l2.6-0.1l2.4,2.1l3-1.1l3.3-5.7l1.4-4.8l2.7-3l2.2-0.5l2.6,4.5l3.3,0.4l1,3.7l5,2.7l1,7.4l-2.3,1.2l1.1,4.9l-0.1,4.5
		l2.2,2.5l-1,1.8l3.3,6.3l-0.7,6.5l0.7,3.3l-1.9,3l11.5,5.1l3.7,3.7l-0.7,5l-2.6,1.4l2.7,6.8l-0.3,3.4l1.4,4l2.4-1.6l0.4-5.9
		l5.7-2.8l4.2-0.6l6.7-7.1l2.8,1.4l-4.5,10.3l2.8,9.3l3.5,1.9l4.4,5l4.8-0.5l4.3,0.7l3.1-4.7l-1.2-3.1l1.6-2.7l3.7-0.8l3.1,0.6
		l3.9-5.7l3.6-3.7l8.1-3.3l-0.8-3.1l3.4-0.8l1.5,1.5l5.1,1l4.3-2.7l0.7-3.2l2.5-4.2l-0.8-2.3l3-1.7l1.1-4.7l3.4-6.6l9.6,5.1l-1.3,3
		l8.8,0.5l8.7,4.9l2.9-2.8l2.2-5.4l6.1-1l6.8-2l5.1,6.9l4.6-3.9l1.4,2.8l2.5-0.6l3.6-0.8l2.5-2l5-0.2l-0.1-5.1l2-5.5l3-1.2l3.9,0.1
		l2-2.2l4.7-2.3l5.2-0.9l1.7-1.6l5,0.8v-2.4l3.2-4.2L414.9,374.2z"/>
</g>
<g>
	<path id="shape4" class="st0" d="M546.8,248.6l1.7-0.9l-4.3,2.2l-6.3-8.8L532,238l-2.9-0.5l-3.8-5.1l-3.2,0.4l-3.1,0.7l-5.2-3
		l-1.9,2.9l-3.1-2.3l-2.3,1.2l-0.6-2.6L503,230l-1.7-2l-3.9,0.2l-3.5-4.1l-0.3-2.4l-1.8-0.9l-2.1,2.5l-4.9,0.5l-4-0.8l-2.4,3.4
		l-3.8,2.5L472,227l-4.1,4l-1.9-1.5l-3.1,0.2l-2.1-1.4l-2.5,1l-7.7,2.9l-3.1,3.6l-3.2,2.3l2.4,3.3l-2.2,5l-4.9,0.3l-1.3,3.5
		l-3.1,1.8l-2.3,3.7l0.7,1.4l-4.6-3.8l-3-1.3l-11,4.5l-4.9,3.5h-1.4l-5.8,6.7l-2,3.2l-4,12.6l-2.2,7l2.3,0.7l-3.2,6.5l-3.4,7
		l-10.7,22.5l2,4.9l1.8,0.8l6.3,5.7l3.9,2.3l3.3,6.2l1.5,0.6l2.7,4.4l8.4,8.4l2.2-0.7l2.8,2.4l4.3-1.1l0.8,2.4l4.6,0.6l6.1-5l5.9-2
		l3.7,3.5l4.5-0.5l1.9,2.3l6.9,2.1l3.4-1.6l4,0.7l2.8-2.3l-1-2.2l8.8-1.3l2.9-6.4l0.5-6.6l-2.1,0.2l-0.9-3.3l-2.5-2.7l-3.7-9.1
		l-2.6-2.4l3.5-3.2l4.7-1.7l2.9-2.8l5.5-7.2l0.1-1.8l3.1-3.1l2.5-5.8l5.9-2.9l3.4,0.3l2.3-3.8l2.1-2.2l5.8-0.2l1.8-2.6l6.8-1.6
		l2.3,3.2l2.8,1l2.5,2.5l3.1-6.9l5.1-0.3l3.5-5.1l4-1.8l4.2-3.9l3.4-0.8l1.4-3.5l-1.5-3.4l1.9-3l1-9.2l2.2-4L546.8,248.6z"/>
</g>
<g>
	<path id="shape5" class="st0" d="M648,227.6l-18.7-0.6l-7.9-1.8l-2.4,0.5l-1.3,10.4l0.1,7.1l-15.1-0.1l-6.8-2.5l-4.2,4.1l-1.2-0.9
		l-4.6,0.8l-1-1.9l-2.9,1.6l-3.8-2.3l-5.7,1.1l-2.4,0.4l-2.5-2.1l-6.8,4.4l-7.8-0.3l-1.8-0.2l-2.6,2.3l-1.8,1l2.4,4l-2.2,4l-0.9,9.2
		l-2,3.1l1.5,3.3l-1.3,3.6l-3.5,0.8l-4.2,3.8l-3.9,1.8l-3.6,5.1l-5,0.3l-3.1,7l2,3.1l4.3,2.1l4.3,3.9l1.4,2.3l3,1.5l3.2,7.4
		l-1.7,3.7l-3.2,1.9l0.6,3l-1.3,2.3l-3,0.8l-1.6,5.7l1.2,3.1l-4.8,3.2l3.2,3.6l0.6,5.8l5.1,2.1l0.1,2.2l-3.4,1.9l-1.9,6.2l7.5,1.6
		l4.3-1.1l1,1.1l0.9,0.2l8.7,3.9l3.4,2.2l3.2,0.9l1.8,2.1l0.7,4.3l1.5,2.1l6.7-9.2l5.5-9.7l1.5-2.1l4.2-8.4l4.2-8.3l5-5.9l-0.7-1.9
		l4.6-9.1l4.8-6.8l4.2-4.6l6.3-7l4.4-3.9l6.6-2.9l3.6-3.7l7.1-6.9l1.3-3.2l2.2-3.1l4.1-9.1l1.5-12.1l2.3-8.7l-0.1-1.3l5.1-13.6
		L648,227.6z"/>
</g>
<g>
	<path id="shape6" class="st0" d="M501.2,170l-3.4-0.2l3.9-5.4l-8.6-3.2l-1.2,1.5l-3.9-0.9l-7,0.4l-1.7,3.8l-1.7-0.7l-4.7,0.4
		l-0.7-1.6l-3.5-0.3l0.7-2.4l-5.7-2.6l-1.9-3.8l-6.3,2.1l-0.9,1.5l-4-2.4l-5.1-0.1l-1.6-5.6l-0.5-0.3l-16.7,4.1l0.6,4.5l-4.6,12.7
		l-3.1,9.7l-1.5,3.5l-7.5,4.5l-5.3-0.1l-4.2-1.5l-4.6,2.9l-6.3,0.6l-6.3-2.6l-3.3,0.6l-3.2-1.8l-2.6-3.2l-6,1l-3.1-0.8l-4.5-5.5
		l-5.1-2.4l-2.9-2.3l-4.4-1.6l-5.2-0.3l-6.8,2.2l-3.5,4.8l-1.5,3.5l1.2,1.1l-3.6,8.4l-0.5,5.7l-2.8,3.6l2.2-0.1l0.2,10.1l2.9,1.5
		l1.2-2.1l2.1-8.6l2.4-1.9l2.5,0.3l0.7-4l9.3,0.8l-1,2.8l-3.8-1.2l-0.5,2.1l2.9,1l-2.7,4.5l1.8,2.4l-0.4,5l6.1,1.6l3.8,3l-3,4.3
		l8.5,3.5l2.9,1.8l3.6,0.1l2.1,5.6l-2,1.5l-2.4,5.4l3.7,2.6l2.2,1l-0.9,2.7l-0.2,6.1l2.2,0.6l-0.3,4.2l9.2-2.1l1.5,3.6l-2.9,4.5
		l3.3,2.5l2.1,3.9l3-3.4l-0.4-3.2l2.6-2.7l-1.3-1.3l1-5.2l3.5,2.1l6.1-0.8l1.6,0.7l-6.8,8.2l0.9,1.7l2.8,4.7l2.5-1.4l1.9-3.2
		l5.8-6.7h1.4l4.9-3.5l11-4.5l3,1.3l4.6,3.8l-0.6-1.4l2.2-3.7l3.2-1.8l1.2-3.5l4.9-0.3l2.3-5l-2.4-3.3l3.1-2.3l3.2-3.6l7.6-2.9
		l2.5-1l2.1,1.4l3.1-0.2l1.9,1.5l4.1-4l2.6,1.9l3.8-2.5l2.5-3.4l-0.7-3.3l-5.9-1.2l-4.3,0.9l-2.6-3.9l2.3-0.6l-1.4-4.5l4.5-3.4
		l-1.2-4.7l2.2-1.1l2-0.9l1.1-7.6l2.2-0.7l3.4-1.9l3.2,3.5l4.8-1.2l2-1.5l-0.2-7.8l2.5-4.2l-2.8-2.2l0.8-1.5l2.2,1.3l8-2.1v-1
		L501.2,170z"/>
</g>
<g>
	<path id="shape7" class="st0" d="M524.9,185.4l-4.8-5.5l-0.2,6.3l-5.1-0.3l-1.8-5.3l-0.1-6.5l3.7-1.6l1.1-3.6l-1-2.6l-2.9,1.2
		l0.3,3.2l-4.6,0.7l-0.3,1.8l-6.4,0.1v1l-8,2.1l-2.2-1.3l-0.8,1.5l2.8,2.2l-2.5,4.2l0.2,7.8l-2,1.5l-4.8,1.2l-3.1-3.4l-3.5,1.8
		l-2.2,0.7l-1.1,7.6l-2,1l-2.2,1l1.2,4.8l-4.5,3.3l1.4,4.5l-2.3,0.6l2.6,3.9l4.3-0.9l5.9,1.3l0.7,3.2l3.9,0.8l5-0.5l2.1-2.5l1.8,0.9
		l0.2,2.4l3.5,4.1l3.9-0.1l5.1-4.3l-0.3-3.7l7.6-5.2l3.8,0.4l2.3-6.2h-4l-5.6-4l-0.1-1.7l-0.7-3.9l2.3-0.2l1.7-3.1l5.1,1.2l2.8-1
		l1.7-3.4V191L524.9,185.4z"/>
</g>
<g>
	<path id="shape8" class="st0" d="M619.5,169l-1-17l0.4-8.1l-0.8-5.2l-2.5-4.1l-0.7-6.8h-3.6l-5.4,2.5h-5.2l-5.5,1.4l-1.8-2.2
		l-4.1,2l-0.3,7.9l3.3,1.8l2.9,4.2l-0.8,2l-8.4,0.9l-2.7-1.5l-3.5-2.7l-0.9,1.3l-0.3,7.1l-2.6,5.1l-5.8,2.1l-0.9-2h-7.2l-1.5,9.2
		l-5.1-1l0.9,4.7l-0.6,3.7h-3.2l-3.7,2.2l-3-1l-4.8,1.7l-4.9-0.5l-3.1-1.1l-3-2.5l-4.2-1.8l0.3-3.8l2.4-1.1l-1.5-1.5l-3.1,0.2
		l-2.4-4l0.9-1.8l-5.1,0.3l-1.4,1.5l-3.4,1.7l0.9,1.9l-5,1l-3,2.3l2.6,1.6l2.3-1.7l3.7-0.3l2.8-1.2l1,2.6l-1.1,3.6l-3.6,1.6v6.5
		l1.9,5.3l5,0.2l0.2-6.2l4.9,5.4l-2.2,5.7l0.1,1.9l-1.8,3.4l-2.8,1l-5-1.2l-1.7,3.1l-2.4,0.2l0.7,3.9l0.2,1.7l5.6,4h4l-2.4,6.1
		l-3.7-0.3l-7.6,5.1l0.2,3.8l-5.1,4.2l1.8,2l2.8-0.3l0.7,2.6l2.3-1.2l3,2.3l2-2.9l5.1,3l3.2-0.7l3.2-0.4l3.8,5.1l2.9,0.5l5.9,3
		l6.3,8.9l4.3-2.2l2.6-2.3l1.8,0.2l7.8,0.3l6.8-4.5l2.5,2.2l2.4-0.4l5.7-1.2l3.8,2.4l2.9-1.6l1,1.9l4.6-0.8l1.2,0.9l4.2-4.2
		l-3.9-1.4l-6-7.4l0.5-2.9l-5-2.2l-0.7-4.7l0.3-7.2l0.9-3.3l4.1-5.2l4.7-9.6l0.5-2.2l5.8-6.2l3.2-0.8l14.1,9.7l3.3-1.6l-1.3-3.9
		l2.3-6.8l-0.8-6.5l1.1-2.4L619.5,169z"/>
</g>
<g>
	<path id="shape9" class="st0" d="M611.2,124.6l-2.2-5.7l-0.3-3.2l-4-5V102v-0.1l0.1-0.8l-2.8-9.3l-4-12.9l-0.6-2.2l-1.7-3.5
		l-3.5-1.6l-2.1,0.7l-7.9-1.9l-6.4,1.4l-4.5-0.6l-6.5,1.3l-1.7-2l-3.3,0.5l-3.2-2.6l-7.7-3.1l-7.2,0.4l-6.6,1.7l-3.5-0.8l-2,1.2
		h-3.7l-2.1,3.2l-1.4,5l-6.7,1.9l-2.2,1.5l-9.2,0.5l-4.2,3.1l-3.5,5l-1.9,3.4l-3.1,1.8l-0.5,3.5l-4.9,2.5l-5.8,4l-0.4,3l-4.3,2.6
		l-2.4-1l-1.5,2.3l-5.3,2.5l-1.6,3.6l-2.5,1.6l-0.9,0.5l-2,11l-1.4,2.5l0.2,4.9l-2.1,2l-3,0.7l-6.1,5.6l-1.3,3.6l-1.9,1.9l1.6,5.6
		h5.1l4,2.5l0.9-1.5l6.3-2.1l1.9,3.8l5.7,2.6l-0.7,2.4l3.5,0.3l0.7,1.6l4.7-0.4l1.7,0.7l1.7-3.8l7-0.4l3.9,0.9l1.2-1.5l8.6,3.2
		l-3.9,5.4l3.5,0.2l1.6,3.4l6.4-0.1l0.3-1.8l4.6-0.8l-0.3-3.1l-3.6,0.3l-2.3,1.7l-2.6-1.6l2.9-2.3l5.1-1l-0.9-1.9l3.3-1.7l1.5-1.5
		l5.1-0.3l-1,1.8l2.5,4l3.1-0.2l1.4,1.5l-2.3,1.1l-0.3,3.8l4.2,1.8l3,2.5l3.1,1.1l4.9,0.5l4.8-1.7l3,1l3.7-2.2h3.2l0.6-3.7l-1-4.8
		l5.2,1.1l1.5-9.2h7.2l0.9,2l5.7-2.1l2.7-5.1l0.3-7.1l0.9-1.3l3.5,2.7l2.7,1.5l8.4-0.9l0.8-2l-2.9-4.2l-3.3-1.8l0.3-7.9l4-2l1.8,2.2
		l5.6-1.5l5.1,0.1l5.4-2.5h3.7L611.2,124.6z"/>
</g>
<g id="arrows-layer">
</g>
<g>
	<polygon class="st0" points="83.9,30.2 83.9,30.2 83.9,30.2 	"/>
	<polygon class="st0" points="83.9,30.2 83.9,30.2 83.9,30.2 	"/>
</g>
</svg>
