<?xml version="1.0" standalone="no"?> 
<!DOCTYPE svg PUBLIC "-//W3C//DTD SVG 1.1//EN" "http://www.w3.org/Graphics/SVG/1.1/DTD/svg11.dtd"> 
<svg id="migration-svg" xmlns="http://www.w3.org/2000/svg" version="1.2" baseProfile="tiny" viewBox="0 0 800 600" stroke-linecap="round" stroke-linejoin="round">
  <g id="map-layer">
    <g id="province-group">
      <g><path id="shape1" parent="1" d="M276.7,484.9L276.3 480.8 273.7 481.4 272.4 478.6 267.7 482.5 262.7 475.6 255.8 477.6 249.8 478.6 247.5 484 244.7 486.8 236 481.8 227.2 481.4 228.5 478.4 218.8 473.3 215.5 479.8 214.3 484.6 211.3 486.3 212.1 488.6 209.7 492.8 209 496 204.6 498.7 199.5 497.7 198 496.2 194.6 497 195.4 500.1 187.4 503.4 183.8 507.1 179.8 512.8 176.8 512.1 173.1 513 171.5 515.7 172.7 518.8 169.6 523.5 165.2 522.8 160.4 523.3 156.1 518.3 152.6 516.4 149.7 507.1 154.2 496.8 151.5 495.4 144.8 502.4 140.6 503.1 134.9 505.9 134.4 511.8 132 513.4 130.7 509.4 131 506 128.3 499.2 130.9 497.8 131.6 492.8 127.9 489.1 116.4 484 118.2 481 117.6 477.7 118.2 471.2 114.9 464.9 115.9 463.1 113.8 460.6 113.9 456.1 112.8 451.2 115 450 114 442.6 109.1 439.9 108 436.2 104.8 435.8 102.1 431.3 100 431.8 97.3 434.8 95.9 439.6 92.6 445.3 89.6 446.4 87.1 444.3 84.5 444.4 84.1 449 80.6 449.2 82 452.4 76.8 457.5 80.5 462.1 81.2 464.8 87.4 472.3 91.3 479.1 93.1 484.8 93.4 488.8 95 498.3 94.1 500.2 94.7 504.9 93.1 511.9 88.2 517.3 86.2 517.5 83 515.1 81.1 515.9 80.6 522.5 80.9 526.6 84.1 525.4 85.7 527.3 82.9 529.7 87.7 534.5 89.2 537.5 92.3 541.4 95 546.9 98 551.4 99.5 557.4 96.7 559.2 94 564.6 95.5 567.1 96.9 574.7 99.2 571.7 97.6 569.6 98.9 567.1 106 565.7 109.7 566.8 110.7 573.1 110.1 577.2 117 575.8 122.4 579.5 124.1 578.4 126.7 581.3 128.1 585.8 134.1 591.2 138.1 592 142.7 591.9 146.4 594.5 149.2 590.8 154 589 154.8 587.1 159.4 584.2 161.6 581.5 168.3 580 173.9 580 173.3 578.1 175.9 576.8 182.1 577.4 187 579.5 194.6 576.4 199.6 577.8 205.6 575.9 207 572.2 212.6 570.6 213.1 567.3 216.4 565.1 220.2 565 224.2 564.9 226.7 562.8 233.2 564 239.4 566.2 245.4 566.1 252 566.6 254 563.3 260.5 562.2 260.8 558.7 256.5 554.9 252.6 555.2 254 552.3 257.7 550.7 261.2 550.6 259.6 546.8 259.2 544.1 255.8 542 251.4 542 249.6 540 244.5 540 238.3 541.6 233.3 541.2 232.1 540.3 237 530.8 238.3 526.4 240.6 520.8 245 516.9 252.2 519.1 252.8 516.7 251.3 516.7 249.3 508.9 247.2 504.2 253.1 502.9 254.3 500.4 261.1 501.2 261.2 497.3 265.2 495.7 268.2 497.9 274.7 494.6 275.9 488.9 278.5 486.9 z"></path></g>
      <g><path id="shape2" parent="2" d="M521.7,439.1L521 434.8 519.2 432.8 516 431.9 512.6 429.6 503.9 425.7 503 425.5 502 424.4 497.7 425.5 490.2 423.9 492.2 417.7 495.5 415.8 495.5 413.6 490.3 411.5 489.7 405.7 486.5 402.1 481.6 405.2 476.4 406.5 472.6 406.5 466.2 408.1 465.4 410.5 462.2 411.5 463.2 415.6 460.5 417.9 460.3 421 458.4 423.7 458.5 426.2 452.9 425.3 452.3 423.8 448 424.4 443.1 420.4 438.1 413.4 435.4 413.9 432.5 420.2 423.7 421.5 424.7 423.8 421.8 426 417.8 425.3 414.5 426.9 407.6 424.8 405.7 422.5 401.2 423 397.5 419.5 391.6 421.6 385.5 426.5 380.9 425.9 380.1 423.5 375.8 424.6 376.2 430.2 377.5 432.2 376 437.7 376.4 439.7 373.2 443.8 373.3 446.2 368.2 445.4 366.5 447 361.4 447.9 356.6 450.2 354.6 452.5 350.8 452.3 347.7 453.6 345.7 459 345.8 464.1 340.8 464.4 338.4 466.3 334.8 467.1 335.1 471.3 336.9 473.2 334.4 475.3 333.2 480.9 326.7 484.3 323.7 482 319.7 483.6 319.6 487.6 312.8 486.8 311.6 489.2 305.7 490.5 307.8 495.2 309.8 503.1 311.2 503.1 310.6 505.4 303.4 503.2 299.1 507.1 296.8 512.7 295.5 517.1 290.6 526.6 291.8 527.5 296.8 527.9 303 526.4 308.1 526.4 309.9 528.3 314.3 528.4 317.7 530.4 318 533.1 319.7 537 316.2 537 312.5 538.6 311.1 541.5 315 541.2 319.2 545.1 319 548.6 325.2 550.3 336 551.8 341.9 553.2 343.9 554.7 348.7 556.4 350.6 555.9 355.8 557.3 356.3 554.6 358.7 552.3 359.2 549.5 363.7 547.9 368.1 548.2 373.5 550.5 379.6 551.2 381.3 543.7 383.2 541.4 387.7 538.9 392.9 538.2 398.3 539 402.5 540.6 408.9 540.1 415.9 536.2 427.1 531.5 427.8 530.4 430.2 529.1 439 522.4 446.3 516.4 452.3 513 457.1 508.5 458.5 505.6 466.9 500 470.8 497.1 475.9 491.4 482.4 485.2 488.9 477 491.9 473 496.2 467.8 499.2 463.5 501.7 462.6 507.6 457.5 509.7 454.8 512.1 454.5 518.7 447.3 523.3 441.2 z"></path></g>
      <g><path id="shape3" parent="3" d="M286.2,350L287.6 344.6 286.4 342.6 286 337 283.1 334.6 281 335.3 272.5 326.9 269.8 322.5 268.3 321.9 265.1 315.7 261.1 313.4 254.9 307.7 253 306.9 251 302 261.8 279.5 265.2 272.5 268.3 266 266 265.3 268.2 258.3 272.3 245.7 269.9 247.1 267 242.4 266.1 240.7 272.9 232.5 271.4 231.8 265.2 232.6 261.8 230.5 260.7 235.7 262 237 259.4 239.7 259.8 242.9 256.8 246.3 254.7 242.4 251.4 239.9 254.3 235.4 252.8 231.8 243.6 233.9 243.9 229.7 241.8 229.1 241.9 223 242.8 220.3 240.6 219.3 237 216.7 239.4 211.3 241.3 209.8 239.2 204.2 235.6 204.1 232.7 202.3 224.2 198.8 227.2 194.5 223.4 191.5 217.3 189.9 217.7 184.8 215.9 182.5 218.6 178 215.7 177 216.2 174.9 220 176.1 221.1 173.3 211.7 172.5 211 176.5 208.6 176.2 206.1 178.1 204.1 186.7 202.9 188.8 199.9 187.3 199.7 177.2 197.5 177.3 195.2 180.8 191 180.8 189.2 184.2 185.5 185.1 179.3 195.1 176.3 196.3 171.2 196.6 171.3 199.9 168.3 203 159.2 201.7 150.7 203.5 143 200.8 140.9 201.7 139.2 203.2 136.5 203 134.8 200.4 135.6 188.2 142.3 177.7 140.8 173.3 141.5 171.3 136.7 162.5 137.2 159 132.2 150.4 132.3 148.5 129.3 145.4 127.3 139.7 121.7 134.9 119 134.4 115.3 130.4 115.4 156.8 115.4 178 115.4 206.6 115.4 235.1 115.3 258.2 107 260.3 105.1 261.8 101.3 262.2 100.1 264.2 99.5 267.3 96.8 269.2 92.6 269.4 91.7 271.7 93 275.3 87.9 277.5 84.3 275.9 82.2 273.5 75.7 272.6 69 274.7 61.2 274.3 59 275.5 54.4 274.1 50.7 270.4 41 270.2 40.4 267.7 34.8 268.7 35.2 263.3 32.2 259.9 34.7 256.4 32.2 251.1 28.5 251.9 27.9 247.6 24.4 244.3 18.2 246.3 18.3 249.2 15.6 250.9 14.1 253.8 15.8 255.8 13.5 260.6 12 259.8 9 262 5.6 263.1 4.7 265.5 8.1 268.6 9.4 274.2 12.1 276 13.9 280.1 16 281.8 16.7 286.1 19.7 291.5 21.6 297 24.2 307.8 27.4 316.6 30.3 326.5 35.3 336.9 38.1 341 40.3 347 43 350.6 45.4 356.2 50.7 351.1 49.2 347.9 52.8 347.7 53.2 343.1 55.8 343 58.2 345.1 61.2 344 64.5 338.3 65.9 333.5 68.6 330.5 70.8 330 73.4 334.5 76.7 334.9 77.7 338.6 82.7 341.3 83.7 348.7 81.4 349.9 82.5 354.8 82.4 359.3 84.6 361.8 83.6 363.6 86.9 369.9 86.2 376.4 86.9 379.7 85 382.7 96.5 387.8 100.2 391.5 99.5 396.5 96.9 397.9 99.6 404.7 99.3 408.1 100.7 412.1 103.1 410.5 103.5 404.6 109.2 401.8 113.4 401.2 120.1 394.1 122.9 395.5 118.4 405.8 121.2 415.1 124.7 417 129.1 422 133.9 421.5 138.2 422.2 141.3 417.5 140.1 414.4 141.7 411.7 145.4 410.9 148.5 411.5 152.4 405.8 156 402.1 164.1 398.8 163.3 395.7 166.7 394.9 168.2 396.4 173.3 397.4 177.6 394.7 178.3 391.5 180.8 387.3 180 385 183 383.3 184.1 378.6 187.5 372 197.1 377.1 195.8 380.1 204.6 380.6 213.3 385.5 216.2 382.7 218.4 377.3 224.5 376.3 231.3 374.3 236.4 381.2 241 377.3 242.4 380.1 244.9 379.5 248.5 378.7 251 376.7 256 376.5 255.9 371.4 257.9 365.9 260.9 364.7 264.8 364.8 266.8 362.6 271.5 360.3 276.7 359.4 278.4 357.8 283.4 358.6 283.4 356.2 286.6 352 z"></path></g>
      <g><path id="shape4" parent="4" d="M630.4,272.6L632.1 271.7 627.8 273.9 621.5 265.1 615.6 262 612.7 261.5 608.9 256.4 605.7 256.8 602.6 257.5 597.4 254.5 595.5 257.4 592.4 255.1 590.1 256.3 589.5 253.7 586.6 254 584.9 252 581 252.2 577.5 248.1 577.2 245.7 575.4 244.8 573.3 247.3 568.4 247.8 564.4 247 562 250.4 558.2 252.9 555.6 251 551.5 255 549.6 253.5 546.5 253.7 544.4 252.3 541.9 253.3 534.2 256.2 531.1 259.8 527.9 262.1 530.3 265.4 528.1 270.4 523.2 270.7 521.9 274.2 518.8 276 516.5 279.7 517.2 281.1 512.6 277.3 509.6 276 498.6 280.5 493.7 284 492.3 284 486.5 290.7 484.5 293.9 480.5 306.5 478.3 313.5 480.6 314.2 477.4 320.7 474 327.7 463.3 350.2 465.3 355.1 467.1 355.9 473.4 361.6 477.3 363.9 480.6 370.1 482.1 370.7 484.8 375.1 493.2 383.5 495.4 382.8 498.2 385.2 502.5 384.1 503.3 386.5 507.9 387.1 514 382.1 519.9 380.1 523.6 383.6 528.1 383.1 530 385.4 536.9 387.5 540.3 385.9 544.3 386.6 547.1 384.3 546.1 382.1 554.9 380.8 557.8 374.4 558.3 367.8 556.2 368 555.3 364.7 552.8 362 549.1 352.9 546.5 350.5 550 347.3 554.7 345.6 557.6 342.8 563.1 335.6 563.2 333.8 566.3 330.7 568.8 324.9 574.7 322 578.1 322.3 580.4 318.5 582.5 316.3 588.3 316.1 590.1 313.5 596.9 311.9 599.2 315.1 602 316.1 604.5 318.6 607.6 311.7 612.7 311.4 616.2 306.3 620.2 304.5 624.4 300.6 627.8 299.8 629.2 296.3 627.7 292.9 629.6 289.9 630.6 280.7 632.8 276.7 z"></path></g>
      <g><path id="shape5" parent="5" d="M782.6,218.8L763.9 218.2 756 216.4 753.6 216.9 752.3 227.3 752.4 234.4 737.3 234.3 730.5 231.8 726.3 235.9 725.1 235 720.5 235.8 719.5 233.9 716.6 235.5 712.8 233.2 707.1 234.3 704.7 234.7 702.2 232.6 695.4 237 687.6 236.7 685.8 236.5 683.2 238.8 681.4 239.8 683.8 243.8 681.6 247.8 680.7 257 678.7 260.1 680.2 263.4 678.9 267 675.4 267.8 671.2 271.6 667.3 273.4 663.7 278.5 658.7 278.8 655.6 285.8 657.6 288.9 661.9 291 666.2 294.9 667.6 297.2 670.6 298.7 673.8 306.1 672.1 309.8 668.9 311.7 669.5 314.7 668.2 317 665.2 317.8 663.6 323.5 664.8 326.6 660 329.8 663.2 333.4 663.8 339.2 668.9 341.3 669 343.5 665.6 345.4 663.7 351.6 671.2 353.2 675.5 352.1 676.5 353.2 677.4 353.4 686.1 357.3 689.5 359.5 692.7 360.4 694.5 362.5 695.2 366.8 696.7 368.9 703.4 359.7 708.9 350 710.4 347.9 714.6 339.5 718.8 331.2 723.8 325.3 723.1 323.4 727.7 314.3 732.5 307.5 736.7 302.9 743 295.9 747.4 292 754 289.1 757.6 285.4 764.7 278.5 766 275.3 768.2 272.2 772.3 263.1 773.8 251 776.1 242.3 776 241 781.1 227.4 z"></path></g>
      <g><path id="shape6" parent="6" d="M400.8,84.3L397.4 84.1 401.3 78.7 392.7 75.5 391.5 77 387.6 76.1 380.6 76.5 378.9 80.3 377.2 79.6 372.5 80 371.8 78.4 368.3 78.1 369 75.7 363.3 73.1 361.4 69.3 355.1 71.4 354.2 72.9 350.2 70.5 345.1 70.4 343.5 64.8 343 64.5 326.3 68.6 326.9 73.1 322.3 85.8 319.2 95.5 317.7 99 310.2 103.5 304.9 103.4 300.7 101.9 296.1 104.8 289.8 105.4 283.5 102.8 280.2 103.4 277 101.6 274.4 98.4 268.4 99.4 265.3 98.6 260.8 93.1 255.7 90.7 252.8 88.4 248.4 86.8 243.2 86.5 236.4 88.7 232.9 93.5 231.4 97 232.6 98.1 229 106.5 228.5 112.2 225.7 115.8 227.9 115.7 228.1 125.8 231 127.3 232.2 125.2 234.3 116.6 236.7 114.7 239.2 115 239.9 111 249.2 111.8 248.2 114.6 244.4 113.4 243.9 115.5 246.8 116.5 244.1 121 245.9 123.4 245.5 128.4 251.6 130 255.4 133 252.4 137.3 260.9 140.8 263.8 142.6 267.4 142.7 269.5 148.3 267.5 149.8 265.1 155.2 268.8 157.8 271 158.8 270.1 161.5 269.9 167.6 272.1 168.2 271.8 172.4 281 170.3 282.5 173.9 279.6 178.4 282.9 180.9 285 184.8 288 181.4 287.6 178.2 290.2 175.5 288.9 174.2 289.9 169 293.4 171.1 299.5 170.3 301.1 171 294.3 179.2 295.2 180.9 298 185.6 300.5 184.2 302.4 181 308.2 174.3 309.6 174.3 314.5 170.8 325.5 166.3 328.5 167.6 333.1 171.4 332.5 170 334.7 166.3 337.9 164.5 339.1 161 344 160.7 346.3 155.7 343.9 152.4 347 150.1 350.2 146.5 357.8 143.6 360.3 142.6 362.4 144 365.5 143.8 367.4 145.3 371.5 141.3 374.1 143.2 377.9 140.7 380.4 137.3 379.7 134 373.8 132.8 369.5 133.7 366.9 129.8 369.2 129.2 367.8 124.7 372.3 121.3 371.1 116.6 373.3 115.5 375.3 114.6 376.4 107 378.6 106.3 382 104.4 385.2 107.9 390 106.7 392 105.2 391.8 97.4 394.3 93.2 391.5 91 392.3 89.5 394.5 90.8 402.5 88.7 402.5 87.7 z"></path></g>
      <g><path id="shape7" parent="7" d="M472.8,163.7L468 158.2 467.8 164.5 462.7 164.2 460.9 158.9 460.8 152.4 464.5 150.8 465.6 147.2 464.6 144.6 461.7 145.8 462 149 457.4 149.7 457.1 151.5 450.7 151.6 450.7 152.6 442.7 154.7 440.5 153.4 439.7 154.9 442.5 157.1 440 161.3 440.2 169.1 438.2 170.6 433.4 171.8 430.3 168.4 426.8 170.2 424.6 170.9 423.5 178.5 421.5 179.5 419.3 180.5 420.5 185.3 416 188.6 417.4 193.1 415.1 193.7 417.7 197.6 422 196.7 427.9 198 428.6 201.2 432.5 202 437.5 201.5 439.6 199 441.4 199.9 441.6 202.3 445.1 206.4 449 206.3 454.1 202 453.8 198.3 461.4 193.1 465.2 193.5 467.5 187.3 463.5 187.3 457.9 183.3 457.8 181.6 457.1 177.7 459.4 177.5 461.1 174.4 466.2 175.6 469 174.6 470.7 171.2 470.7 169.3 z"></path></g>
      <g><path id="shape8" parent="8" d="M727,103.5L726 86.5 726.4 78.4 725.6 73.2 723.1 69.1 722.4 62.3 718.8 62.3 713.4 64.8 708.2 64.8 702.7 66.2 700.9 64 696.8 66 696.5 73.9 699.8 75.7 702.7 79.9 701.9 81.9 693.5 82.8 690.8 81.3 687.3 78.6 686.4 79.9 686.1 87 683.5 92.1 677.7 94.2 676.8 92.2 669.6 92.2 668.1 101.4 663 100.4 663.9 105.1 663.3 108.8 660.1 108.8 656.4 111 653.4 110 648.6 111.7 643.7 111.2 640.6 110.1 637.6 107.6 633.4 105.8 633.7 102 636.1 100.9 634.6 99.4 631.5 99.6 629.1 95.6 630 93.8 624.9 94.1 623.5 95.6 620.1 97.3 621 99.2 616 100.2 613 102.5 615.6 104.1 617.9 102.4 621.6 102.1 624.4 100.9 625.4 103.5 624.3 107.1 620.7 108.7 620.7 115.2 622.6 120.5 627.6 120.7 627.8 114.5 632.7 119.9 630.5 125.6 630.6 127.5 628.8 130.9 626 131.9 621 130.7 619.3 133.8 616.9 134 617.6 137.9 617.8 139.6 623.4 143.6 627.4 143.6 625 149.7 621.3 149.4 613.7 154.5 613.9 158.3 608.8 162.5 610.6 164.5 613.4 164.2 614.1 166.8 616.4 165.6 619.4 167.9 621.4 165 626.5 168 629.7 167.3 632.9 166.9 636.7 172 639.6 172.5 645.5 175.5 651.8 184.4 656.1 182.2 658.7 179.9 660.5 180.1 668.3 180.4 675.1 175.9 677.6 178.1 680 177.7 685.7 176.5 689.5 178.9 692.4 177.3 693.4 179.2 698 178.4 699.2 179.3 703.4 175.1 699.5 173.7 693.5 166.3 694 163.4 689 161.2 688.3 156.5 688.6 149.3 689.5 146 693.6 140.8 698.3 131.2 698.8 129 704.6 122.8 707.8 122 721.9 131.7 725.2 130.1 723.9 126.2 726.2 119.4 725.4 112.9 726.5 110.5 z"></path></g>
      <g><path id="shape9" parent="9" d="M605.5,65.8L603.3 60.1 603 56.9 599 51.9 599 43.2 599 43.1 599.1 42.3 596.3 33 592.3 20.1 591.7 17.9 590 14.4 586.5 12.8 584.4 13.5 576.5 11.6 570.1 13 565.6 12.4 559.1 13.7 557.4 11.7 554.1 12.2 550.9 9.6 543.2 6.5 536 6.9 529.4 8.6 525.9 7.8 523.9 9 520.2 9 518.1 12.2 516.7 17.2 510 19.1 507.8 20.6 498.6 21.1 494.4 24.2 490.9 29.2 489 32.6 485.9 34.4 485.4 37.9 480.5 40.4 474.7 44.4 474.3 47.4 470 50 467.6 49 466.1 51.3 460.8 53.8 459.2 57.4 456.7 59 455.8 59.5 453.8 70.5 452.4 73 452.6 77.9 450.5 79.9 447.5 80.6 441.4 86.2 440.1 89.8 438.2 91.7 439.8 97.3 444.9 97.3 448.9 99.8 449.8 98.3 456.1 96.2 458 100 463.7 102.6 463 105 466.5 105.3 467.2 106.9 471.9 106.5 473.6 107.2 475.3 103.4 482.3 103 486.2 103.9 487.4 102.4 496 105.6 492.1 111 495.6 111.2 497.2 114.6 503.6 114.5 503.9 112.7 508.5 111.9 508.2 108.8 504.6 109.1 502.3 110.8 499.7 109.2 502.6 106.9 507.7 105.9 506.8 104 510.1 102.3 511.6 100.8 516.7 100.5 515.7 102.3 518.2 106.3 521.3 106.1 522.7 107.6 520.4 108.7 520.1 112.5 524.3 114.3 527.3 116.8 530.4 117.9 535.3 118.4 540.1 116.7 543.1 117.7 546.8 115.5 550 115.5 550.6 111.8 549.6 107 554.8 108.1 556.3 98.9 563.5 98.9 564.4 100.9 570.1 98.8 572.8 93.7 573.1 86.6 574 85.3 577.5 88 580.2 89.5 588.6 88.6 589.4 86.6 586.5 82.4 583.2 80.6 583.5 72.7 587.5 70.7 589.3 72.9 594.9 71.4 600 71.5 605.4 69 609.1 69 z"></path></g>
    </g>
  </g>
  <g id="arrows-layer"></g>
  <linearGradient id="grad">
    <stop offset="00%"  stop-color="hsl(40, 80%, 100%)" stop-opacity="0.00"/>
    <stop offset="20%"  stop-color="hsl(40, 80%, 90%)"  stop-opacity="0.25"/>
    <stop offset="30%"  stop-color="hsl(40, 80%, 85%)"  stop-opacity="0.50"/>
    <stop offset="40%"  stop-color="hsl(40, 80%, 80%)"  stop-opacity="0.55"/>
    <stop offset="50%"  stop-color="hsl(40, 80%, 75%)"  stop-opacity="0.60"/>
    <stop offset="60%"  stop-color="hsl(40, 80%, 70%)"  stop-opacity="0.65"/>
    <stop offset="70%"  stop-color="hsl(40, 80%, 65%)"  stop-opacity="0.70"/>
    <stop offset="80%"  stop-color="hsl(40, 80%, 60%)"  stop-opacity="0.75"/>
    <stop offset="90%"  stop-color="hsl(40, 80%, 55%)"  stop-opacity="0.80"/>
    <stop offset="100%" stop-color="hsl(42, 80%, 50%)"  stop-opacity="0.80"/>
  </linearGradient>
  <linearGradient id="grad-gain">
    <stop offset="00%"  stop-color="hsl(163, 81%, 100%)" stop-opacity="0.00"/>
    <stop offset="20%"  stop-color="hsl(163, 81%, 80%)"  stop-opacity="0.25"/>
    <stop offset="30%"  stop-color="hsl(163, 81%, 60%)"  stop-opacity="0.50"/>
    <stop offset="40%"  stop-color="hsl(163, 81%, 53%)"  stop-opacity="0.55"/>
    <stop offset="50%"  stop-color="hsl(163, 81%, 50%)"  stop-opacity="0.60"/>
    <stop offset="60%"  stop-color="hsl(163, 81%, 47%)"  stop-opacity="0.65"/>
    <stop offset="70%"  stop-color="hsl(163, 81%, 43%)"  stop-opacity="0.70"/>
    <stop offset="80%"  stop-color="hsl(163, 81%, 40%)"  stop-opacity="0.75"/>
    <stop offset="90%"  stop-color="hsl(163, 81%, 30%)"  stop-opacity="0.80"/>
    <stop offset="100%" stop-color="hsl(163, 81%, 29%)"  stop-opacity="0.80"/>
  </linearGradient>
  <linearGradient id="grad-loss">
    <stop offset="00%"  stop-color="hsl(2, 72%, 100%)" stop-opacity="0.00"/>
    <stop offset="20%"  stop-color="hsl(2, 72%, 95%)"  stop-opacity="0.25"/>
    <stop offset="30%"  stop-color="hsl(2, 72%, 90%)"  stop-opacity="0.50"/>
    <stop offset="40%"  stop-color="hsl(2, 72%, 83%)"  stop-opacity="0.55"/>
    <stop offset="50%"  stop-color="hsl(2, 72%, 75%)"  stop-opacity="0.60"/>
    <stop offset="60%"  stop-color="hsl(2, 72%, 70%)"  stop-opacity="0.65"/>
    <stop offset="70%"  stop-color="hsl(2, 72%, 73%)"  stop-opacity="0.70"/>
    <stop offset="80%"  stop-color="hsl(2, 72%, 65%)"  stop-opacity="0.75"/>
    <stop offset="90%"  stop-color="hsl(2, 72%, 60%)"  stop-opacity="0.80"/>
    <stop offset="100%" stop-color="hsl(2, 72%, 59%)"  stop-opacity="0.80"/>
  </linearGradient>
  <linearGradient id="gradshade">
    <stop offset="0%" stop-color="#FFFFFF" stop-opacity="0" />
    <stop offset="80%" stop-color="#FFFFFF" stop-opacity="0" />
    <stop offset="90%" stop-color="#FFFFFF" stop-opacity="50" />
    <stop offset="100%" stop-color="#FFFFFF" />
  </linearGradient>
  <linearGradient id="grad-shape" x1="0%" y1="0%" x2="100%" y2="0%">
    <stop id="gain" stop-color="#0E8865" offset="0.0" />
    <stop stop-color="#FFFFFF" offset="0.5" />
    <stop id="loss" stop-color="#E2504B" offset="1.0" />
  </linearGradient>
  <marker id="end-mark" viewBox="-1 -1 3 2" markerWidth="3" markerHeight="3" orient="auto">
    <path fill="hsl(42, 80%, 56%)" class="marker-path" d="M0,1 L2,0 L0,-1 Z" />
  </marker>
  <marker id="end-mark-gain" viewBox="-1 -1 3 2" markerWidth="3" markerHeight="3" orient="auto">
    <path fill="hsl(163, 81%, 29%" class="marker-path" d="M0,1 L2,0 L0,-1 Z" />
  </marker>
  <marker id="end-mark-loss" viewBox="-1 -1 3 2" markerWidth="3" markerHeight="3" orient="auto">
    <path fill="hsl(2, 72%, 59%)" class="marker-path" d="M0,1 L2,0 L0,-1 Z" />
  </marker>
  <marker id="end-mark-shade" viewBox="-1 -1 3 2" markerWidth="3" markerHeight="3" orient="auto">
    <path fill="white" stroke="white" stroke-width="0.2" class="marker-path" d="M0,1 L2,0 L0,-1 Z" />
  </marker>
  <g class="tooltip">
    <text class="line1 shadow" y="10px" dy="0.2em"></text>
    <text class="line1" y="10px" dy="0.2em"></text>
    <text class="line2 shadow" y="10px" dy="0.2em"></text>
    <text class="line2" y="10px" dy="0.2em"></text>
    <rect class="gain"></rect>
    <rect class="loss"></rect>
  </g>
</svg> 