<?xml version="1.0"?>
<svg xmlns="http://www.w3.org/2000/svg" version="1.2" baseProfile="tiny" width="800" height="705" viewBox="0 0 800 705" stroke-linecap="round" stroke-linejoin="round">
<g id="collection">
<g id="EC">
  <path d="M 638.3465 435.638 644.1725 435.7083 646.2475 439.7158 657.3408 454.6912 654.0687 455.2537 652.4725 460.8079 649.6793 462.7062 641.5389 458.6284 634.5158 458.769 630.6052 450.4025 628.7696 443.653 625.9763 440.8407 626.1359 437.2551 628.8494 430.9977 638.3465 435.638 Z"/>
  <path d="M 527.8923 446.9574 531.8029 447.2387 538.3471 456.7301 545.2106 462.7765 551.1164 463.1983 561.0126 466.1512 560.853 463.2687 564.0453 457.5738 563.6463 454.4803 567.7165 451.3868 567.7165 444.8482 570.9088 443.653 574.7396 438.9424 582.4011 436.7629 587.9079 437.6066 598.4425 434.2319 605.9445 429.5213 610.5734 435.0756 608.5782 439.6455 598.1233 448.223 595.0108 446.7465 593.3348 449.7697 593.255 456.0973 598.2031 461.1594 602.7522 462.214 604.907 458.2065 609.456 463.128 619.5917 466.8543 627.0138 465.0263 632.9196 468.8932 641.9379 470.2993 650.3177 477.1894 654.4677 478.8065 657.261 483.0249 657.8995 487.5246 660.3735 490.9696 651.2754 502.4296 644.2523 508.7573 640.5014 509.9525 628.8494 520.6391 622.7042 522.8187 621.7465 525.9825 615.5215 532.8023 613.1272 537.1613 610.0147 538.5674 607.6205 543.1374 596.8464 555.5817 584.8752 565.9168 581.6829 570.4868 565.9607 581.8765 563.327 582.6499 560.4539 587.9932 551.276 596.2192 543.6943 599.8751 538.0279 605.57 531.324 608.8744 529.9673 611.4758 516.5596 620.0532 514.5644 622.5843 506.2643 625.6778 493.7345 631.5836 487.9085 635.2395 477.4536 635.8723 468.5152 633.2006 462.2901 632.9897 454.4689 634.8177 449.6805 637.7003 447.0468 645.9965 451.0372 650.0743 446.1689 651.6211 437.6295 650.918 431.5641 648.176 423.4236 647.1917 416.7996 648.6682 415.6823 652.3241 411.8515 656.8238 412.6496 659.7767 395.3312 658.5814 390.862 655.9098 380.886 653.3084 372.7456 652.8163 356.8638 650.004 358.859 643.9576 352.1551 640.0907 344.0945 639.4579 347.207 635.5911 355.3474 631.5836 352.5542 623.5686 346.6484 620.3344 338.508 618.7174 327.8137 618.6471 315.0444 619.8423 314.6454 615.7645 322.0675 602.7577 321.9079 598.2581 325.4992 591.2977 334.3579 586.5168 340.4233 586.3059 342.3387 584.056 337.8695 578.7127 335.6349 569.854 335.7945 565.495 339.4656 561.4875 352.2349 559.4486 355.4272 554.6677 359.258 552.1367 365.3234 553.7537 371.8677 550.5899 374.661 547.8479 375.9379 541.0985 378.6514 538.2862 375.9379 534.8412 376.8158 529.4275 377.135 527.7402 385.435 525.3497 393.1764 524.4357 393.5755 516.1395 395.5707 507.773 405.2274 506.859 414.6448 500.9532 426.2169 496.2426 432.5218 497.5785 436.9112 490.1962 439.6247 481.4079 440.3429 474.1662 438.4275 471.7055 437.5497 463.9014 444.3333 463.4093 445.5305 466.1512 449.7603 467.4168 455.1872 463.9014 457.5815 459.7533 459.8161 461.0891 469.5527 456.5192 475.9373 461.6516 483.5989 460.5267 488.0681 465.5185 495.9691 466.8543 499.6403 464.956 503.072 466.9246 511.2124 462.214 509.9355 459.3315 515.5221 459.3315 516.2403 457.3629 524.0615 456.5895 525.4182 451.3165 528.4509 451.0352 527.8923 446.9574 Z"/>
</g>
<g id="NP"><path d="M 480.2469 136.763 483.5191 133.318 486.5518 127.2013 495.6499 119.3972 502.4335 115.6709 503.5509 108.4293 506.9826 93.9461 506.9028 91.3447 510.2547 82.8376 513.5269 83.3297 516.3999 76.1584 523.9817 72.7837 527.5731 68.9168 537.7087 67.2997 540.6616 59.4253 545.2904 58.1598 548.0837 59.6363 549.1212 54.4335 555.2664 51.9728 557.8203 49.2308 557.4212 45.6452 561.6511 43.6766 563.0078 38.8254 568.8338 34.5367 570.6694 29.8261 577.8521 25.1155 587.1896 25.1858 607.0618 18.2958 609.9349 14.2883 609.5359 10.4917 614.0849 5.6405 620.3099 5.4296 623.0234 3.6719 630.8446 4.375 634.9148 2.6173 645.3696 1.0002 650.3975 1.3518 659.8149 5.2187 669.2322 10.562 674.6592 10.8432 677.6121 13.1634 688.2265 11.8978 694.5314 13.2337 705.066 10.7729 726.2151 15.4835 739.144 59.6363 737.9469 73.768 739.0642 78.0567 743.7729 83.4 748.2421 97.1802 753.8287 104.2812 749.9979 104.2812 746.4065 108.7808 742.4959 106.7419 740.82 108.4996 733.0786 106.8826 731.3228 108.5699 723.0228 110.8197 733.2382 112.0853 734.5152 114.0539 729.3276 127.9043 728.769 131.9822 732.52 132.1931 732.9988 135.4272 739.6229 141.4033 735.4728 145.1999 727.7315 147.5903 727.7315 152.3712 732.0411 153.6367 730.6844 159.6128 725.2574 158.98 721.6661 160.8783 714.5632 161.4408 715.3612 157.2224 719.7507 156.0271 717.6757 148.9261 714.2439 146.606 718.4737 141.1924 715.5209 140.9111 712.4881 136.06 701.7939 131.5603 698.0429 127.6934 696.2871 132.6852 690.94 133.7398 687.0294 137.7473 678.7294 135.0054 665.5611 137.2552 666.4389 144.0046 665.4014 147.4497 656.2235 153.707 648.0831 161.4408 650.2379 164.2531 648.2427 167.4169 644.0129 168.6121 638.4263 167.4872 629.7273 157.5739 627.4926 158.3473 627.6523 151.5275 631.2436 148.9964 631.0042 144.4968 621.3474 148.2934 617.5167 154.4804 613.2868 156.449 610.2541 151.2463 606.4233 151.176 605.1464 153.8476 596.2079 154.1992 589.4242 157.363 587.9877 161.6517 582.5608 163.4797 577.2934 167.3466 579.129 169.3152 589.8233 165.7998 592.6166 170.7213 585.8329 171.9165 581.1242 174.6585 574.2607 174.307 571.1482 169.3152 565.9607 167.8387 564.1251 163.2688 570.2703 163.8312 570.7492 161.2299 564.6838 157.5036 558.0597 156.0974 555.1068 157.0114 543.2154 155.1835 539.3846 156.2381 536.1125 162.4954 534.2769 159.8237 528.2913 159.9643 524.3807 157.0817 519.1134 156.2381 512.7288 148.5043 511.1326 141.6845 507.222 145.1999 498.4431 149.4183 491.42 147.3091 482.8806 146.5357 480.646 142.6688 480.2469 136.763 Z"/></g>
<g id="NL"><path d="M 605.9445 429.5213 612.4089 426.0059 610.3339 421.2954 613.1272 412.5773 618.2349 410.4681 620.1503 401.8907 625.1782 399.4299 626.6148 395.1412 620.9484 381.2204 616.0003 380.0252 612.0897 375.7365 605.2262 371.0259 599.48 363.503 605.1464 352.8164 615.6811 350.7775 617.9157 345.5748 626.3753 341.2157 630.3657 336.4349 635.3138 335.5912 639.6235 328.5605 637.2292 324.6233 642.1773 311.7571 640.661 303.1093 644.6514 300.5783 642.2571 295.7271 645.0504 292.1415 652.8716 287.5715 662.7678 288.5558 670.1101 284.5483 677.0534 283.2828 678.0909 285.1108 684.4755 285.392 688.7852 283.7046 697.0852 287.0794 700.4371 285.9544 704.1881 288.4152 712.568 287.009 717.3564 282.1579 731.0036 286.9387 752.5518 288.0637 751.6739 276.1818 754.7066 260.2924 762.1287 262.6828 772.3441 263.878 799 264.2999 795.7279 279.3456 786.7096 300.7892 781.6817 320.2642 781.8413 322.5844 778.5692 337.1379 772.1845 347.3324 769.6307 356.613 754.7864 369.4791 750.4767 369.6901 751.195 372.9945 745.0498 375.9474 739.3834 375.5958 738.5056 377.9863 728.6892 388.3214 725.2574 390.8525 710.0939 409.4135 703.39 421.7875 703.3102 427.623 696.4467 434.0913 689.7429 445.8325 678.4899 463.9014 670.0303 478.5956 666.4389 482.0406 660.3735 490.9696 657.8995 487.5246 657.261 483.0249 654.4677 478.8065 650.3177 477.1894 641.9379 470.2993 632.9196 468.8932 627.0138 465.0263 619.5917 466.8543 609.456 463.128 604.907 458.2065 602.7522 462.214 598.2031 461.1594 593.255 456.0973 593.3348 449.7697 595.0108 446.7465 598.1233 448.223 608.5782 439.6455 610.5734 435.0756 605.9445 429.5213 Z M 638.3465 435.638 628.8494 430.9977 626.1359 437.2551 625.9763 440.8407 628.7696 443.653 630.6052 450.4025 634.5158 458.769 641.5389 458.6284 649.6793 462.7062 652.4725 460.8079 654.0687 455.2537 657.3408 454.6912 646.2475 439.7158 644.1725 435.7083 638.3465 435.638 Z"/></g>
<g id="WC"><path d="M 356.8638 650.004 347.3666 652.0429 344.4137 655.1364 346.5686 657.4565 325.0204 656.7535 318.0771 654.0818 307.9415 652.8163 301.078 656.8238 294.9328 656.6832 289.426 658.933 289.3462 663.5732 282.0039 665.6825 279.2904 667.7917 278.3327 672.7131 269.7135 676.1582 261.174 674.5411 253.7519 678.6189 249.9211 678.9705 242.2595 676.6503 233.8797 676.58 229.0912 678.9002 230.9268 682.4858 222.7864 681.5718 216.4815 682.8374 210.0969 689.5868 200.2805 697.0394 195.8911 701.4687 196.6094 703.2967 191.9007 703.9998 187.3516 701.0469 177.7747 702.9452 165.9631 694.438 161.5737 695.0708 163.8083 689.0947 159.6583 684.2435 153.7525 685.0872 150.7198 681.3609 138.1101 683.5404 139.387 671.6585 133.7207 668.0026 125.261 668.565 120.4725 672.8538 122.4677 678.2674 122.6274 683.892 119.5947 681.6421 118.0783 677.1425 114.8062 674.049 116.1629 668.2135 114.0879 667.0183 116.2427 661.1125 121.2706 657.2456 117.8389 648.3166 112.1725 641.6375 111.2148 636.8566 103.1542 630.7399 99.1638 622.5843 93.1782 617.4519 95.4128 616.7488 100.2811 622.3734 95.8917 612.3898 92.0609 612.3195 90.9436 614.7099 86.634 602.1952 89.108 597.0628 91.8215 595.5864 97.408 599.383 100.6802 597.4847 105.7879 591.2977 107.9427 582.439 106.4263 574.424 107.5437 569.7134 105.2292 562.6827 102.5956 549.8165 96.61 537.5831 87.9907 526.8262 82.0849 521.2016 80.7282 517.2644 75.2214 511.2883 77.7753 511.8508 77.6955 505.945 80.0897 498.6331 85.6763 489.3525 92.2205 491.3914 96.2109 488.8604 99.9619 481.5485 102.835 472.7601 105.5485 474.0256 109.8581 470.6509 118.637 475.8536 124.2235 481.9703 128.8524 483.2358 129.1716 495.188 128.3735 498.9846 130.688 509.1791 133.8005 514.0303 135.5563 525.2091 138.3495 529.6384 139.2274 538.9893 137.7909 547.0746 145.213 548.1292 148.8044 546.02 148.565 550.0275 152.5554 553.7537 159.5785 556.2145 160.8554 564.1592 157.9823 568.6588 161.4938 576.955 161.2544 583.4936 164.2871 586.2356 167.1602 576.1114 171.39 574.7755 175.6997 570.8383 181.4458 569.6431 190.7834 559.8001 192.9382 560.0814 194.6142 564.7216 188.9478 572.1039 191.5017 582.0874 196.0507 591.0867 206.5056 599.8751 212.0921 597.6956 219.5143 598.0471 222.946 594.7427 224.3825 586.6574 226.1383 584.4779 237.7105 579.9782 240.6634 571.682 245.6913 566.9011 251.0384 565.0029 256.7846 558.8861 264.2865 556.8472 270.751 558.2534 276.1779 555.3708 281.8443 547.4964 280.8866 538.5674 283.3606 536.2473 289.5857 520.4282 298.5242 524.6466 304.7492 531.1149 311.8521 533.9975 320.7108 534.8412 324.6214 536.3879 326.856 541.2391 331.8041 536.3176 336.832 528.5135 341.7801 524.5763 352.3147 523.0296 359.6571 525.5606 363.5677 530.4118 368.1167 526.2637 370.91 525.7716 376.8158 529.4275 375.9379 534.8412 378.6514 538.2862 375.9379 541.0985 374.661 547.8479 371.8677 550.5899 365.3234 553.7537 359.258 552.1367 355.4272 554.6677 352.2349 559.4486 339.4656 561.4875 335.7945 565.495 335.6349 569.854 337.8695 578.7127 342.3387 584.056 340.4233 586.3059 334.3579 586.5168 325.4992 591.2977 321.9079 598.2581 322.0675 602.7577 314.6454 615.7645 315.0444 619.8423 327.8137 618.6471 338.508 618.7174 346.6484 620.3344 352.5542 623.5686 355.3474 631.5836 347.207 635.5911 344.0945 639.4579 352.1551 640.0907 358.859 643.9576 356.8638 650.004 Z"/></g>
<g id="NC"><path d="M 75.2214 511.2883 64.0483 494.6256 62.4521 489.9853 48.3261 468.8229 43.8569 459.0502 41.2232 450.8243 37.6319 444.0045 34.3597 432.7554 26.9376 415.6708 24.3039 412.6476 19.5155 400.8361 11.8539 392.0477 8.3423 389.5869 5.6289 381.5016 1 377.3535 1.4788 374.3303 9.9385 367.3699 11.6943 369.1276 15.9241 361.6048 13.6097 357.1754 18.9568 350.0744 18.9568 345.6451 28.6934 341.9891 33.5617 346.3481 34.1203 351.4102 41.7021 351.8321 45.054 359.2846 41.8617 364.4873 46.9694 371.6587 46.6502 377.7754 55.1896 375.8068 56.7858 379.8846 63.4098 378.9003 71.7099 380.0955 84.4791 385.8607 91.2628 384.0327 95.5725 384.8061 112.1725 380.3767 122.4677 381.1501 128.9322 385.8607 132.763 384.8061 138.589 380.3064 136.3543 374.9631 138.1101 372.0102 145.0534 371.1665 147.288 369.1276 150.9592 360.7611 163.2496 357.0348 170.592 351.9727 159.5785 152.9336 166.7612 159.2613 172.7468 161.6517 179.5305 166.6435 187.8305 180.494 189.267 185.3452 192.8584 187.8762 194.8536 197.7895 203.0738 212.7649 204.0315 222.5375 206.0267 225.7717 202.1161 233.857 196.0507 242.5047 196.0507 256.7067 197.8863 263.8077 200.6796 267.7449 208.3411 262.6828 221.8287 265.3545 234.4383 262.4719 249.5221 263.4562 253.6721 259.5893 253.7519 253.6132 261.3336 252.4883 267.2394 249.8167 271.3894 244.1921 276.4971 234.2788 280.6472 232.8024 284.7174 227.67 290.3837 226.4044 293.9751 221.0611 297.6463 221.1314 299.4818 246.0904 304.9886 246.0904 315.204 251.1525 314.1665 260.9955 317.8377 268.9402 314.805 270.6978 314.7252 278.9237 318.556 280.5408 325.1002 287.009 336.832 291.1572 338.5878 293.8288 350.559 297.4145 357.8215 294.6725 357.8215 291.1572 362.61 290.5244 363.1686 284.8295 365.5629 288.0637 365.4032 295.5162 368.9946 308.4527 383.9187 304.6561 385.036 310.4213 382.0033 316.4677 386.1533 320.6158 385.8341 323.9905 389.8245 327.2949 394.2139 321.7407 394.5332 316.4677 397.9649 311.6868 397.0072 300.2268 400.9178 299.7346 402.514 304.0936 414.0861 305.4295 404.4293 316.538 409.8563 326.7325 413.7669 325.1154 406.0255 349.9338 407.5419 356.9645 397.4062 380.1658 383.1206 412.1555 386.4725 418.4128 398.4437 425.3029 399.0822 428.2558 404.6688 430.2947 410.6544 441.825 416.5602 446.1841 417.2784 448.7151 429.09 460.1751 432.5218 460.2454 437.5497 463.9014 438.4275 471.7055 440.3429 474.1662 439.6247 481.4079 436.9112 490.1962 432.5218 497.5785 426.2169 496.2426 414.6448 500.9532 405.2274 506.859 395.5707 507.773 393.5755 516.1395 393.1764 524.4357 385.435 525.3497 377.135 527.7402 376.8158 529.4275 370.91 525.7716 368.1167 526.2637 363.5677 530.4118 359.6571 525.5606 352.3147 523.0296 341.7801 524.5763 336.832 528.5135 331.8041 536.3176 326.856 541.2391 324.6214 536.3879 320.7108 534.8412 311.8521 533.9975 304.7492 531.1149 298.5242 524.6466 289.5857 520.4282 283.3606 536.2473 280.8866 538.5674 281.8443 547.4964 276.1779 555.3708 270.751 558.2534 264.2865 556.8472 256.7846 558.8861 251.0384 565.0029 245.6913 566.9011 240.6634 571.682 237.7105 579.9782 226.1383 584.4779 224.3825 586.6574 222.946 594.7427 219.5143 598.0471 212.0921 597.6956 206.5056 599.8751 196.0507 591.0867 191.5017 582.0874 188.9478 572.1039 194.6142 564.7216 192.9382 560.0814 190.7834 559.8001 181.4458 569.6431 175.6997 570.8383 171.39 574.7755 167.1602 576.1114 164.2871 586.2356 161.2544 583.4936 161.4938 576.955 157.9823 568.6588 160.8554 564.1592 159.5785 556.2145 152.5554 553.7537 148.565 550.0275 148.8044 546.02 145.213 548.1292 137.7909 547.0746 139.2274 538.9893 138.3495 529.6384 135.5563 525.2091 133.8005 514.0303 130.688 509.1791 128.3735 498.9846 129.1716 495.188 128.8524 483.2358 124.2235 481.9703 118.637 475.8536 109.8581 470.6509 105.5485 474.0256 102.835 472.7601 99.9619 481.5485 96.2109 488.8604 92.2205 491.3914 85.6763 489.3525 80.0897 498.6331 77.6955 505.945 77.7753 511.8508 75.2214 511.2883 Z"/></g>
<g id="NW"><path d="M 293.9751 221.0611 295.8905 216.0693 298.6838 213.9601 297.8857 208.8277 300.5992 205.242 299.5617 201.3751 302.3549 197.5786 303.9511 186.2591 311.7723 176.6974 314.9646 177.4005 324.5416 173.7445 334.1983 174.4476 345.6907 183.5875 348.4839 184.3609 357.7417 192.868 361.7321 194.2038 367.9571 192.5165 372.8254 193.5711 376.2571 197.5786 380.886 199.4769 384.1581 198.4926 394.5332 202.711 401.1572 202.9219 406.5842 201.4454 413.6073 197.7192 419.8323 199.055 430.2073 197.7895 440.1035 190.9697 443.7747 181.0564 445.2112 173.9554 452.0747 157.8551 454.0699 150.6838 453.5113 143.2313 474.0219 136.4818 480.2469 136.763 480.646 142.6688 482.8806 146.5357 491.42 147.3091 498.4431 149.4183 507.222 145.1999 511.1326 141.6845 512.7288 148.5043 519.1134 156.2381 524.3807 157.0817 528.2913 159.9643 534.2769 159.8237 536.1125 162.4954 539.3846 156.2381 543.2154 155.1835 555.1068 157.0114 558.0597 156.0974 564.6838 157.5036 570.7492 161.2299 570.2703 163.8312 564.1251 163.2688 565.9607 167.8387 571.1482 169.3152 574.2607 174.307 573.6223 178.8066 565.7213 181.3377 563.1674 179.4394 563.6463 185.6967 559.4962 191.1103 555.7453 191.8837 557.5809 197.438 553.2712 203.4844 545.9289 204.7499 540.1029 201.3048 532.6808 205.1014 530.2067 216.7724 523.423 220.358 525.099 227.9512 518.2355 233.2242 520.55 238.7785 533.3192 234.2788 540.0231 236.4583 536.9106 244.8952 536.5116 253.332 533.4788 259.1675 529.9673 260.2221 525.0192 258.4644 518.874 263.8077 518.7144 261.8391 512.1701 262.1204 506.7432 258.5347 505.9451 263.4562 503.072 261.2064 492.6172 265.917 481.2844 275.6896 484.8758 279.908 483.1998 285.2514 486.0729 287.5715 478.8902 287.1497 473.3834 289.3292 472.4257 292.7742 466.2805 298.1175 462.0507 304.5155 461.3324 301.0704 455.267 300.0861 451.5959 297.9769 443.9343 303.1093 440.9814 302.125 433.24 305.2889 424.541 311.5462 423.8227 314.5694 419.1938 317.3817 415.6823 324.553 413.7669 325.1154 409.8563 326.7325 404.4293 316.538 414.0861 305.4295 402.514 304.0936 400.9178 299.7346 397.0072 300.2268 397.9649 311.6868 394.5332 316.4677 394.2139 321.7407 389.8245 327.2949 385.8341 323.9905 386.1533 320.6158 382.0033 316.4677 385.036 310.4213 383.9187 304.6561 368.9946 308.4527 365.4032 295.5162 365.5629 288.0637 363.1686 284.8295 362.61 290.5244 357.8215 291.1572 357.8215 294.6725 350.559 297.4145 338.5878 293.8288 336.832 291.1572 325.1002 287.009 318.556 280.5408 314.7252 278.9237 314.805 270.6978 317.8377 268.9402 314.1665 260.9955 315.204 251.1525 304.9886 246.0904 299.4818 246.0904 297.6463 221.1314 293.9751 221.0611 Z"/></g>
<g id="FS"><path d="M 599.48 363.503 591.8983 358.7222 588.7858 352.2539 584.3963 354.4334 577.6127 354.785 573.4626 359.2143 565.6415 359.2846 559.0174 367.5808 553.8299 367.7918 551.4356 370.7447 545.9289 370.3931 544.1731 374.8928 540.6616 377.2129 539.3846 382.5562 535.3144 386.634 535.3144 389.5869 531.7231 391.204 529.9673 396.9692 526.5356 401.75 521.5875 405.2654 510.6538 409.4135 510.0951 411.6633 514.2451 416.2333 519.4326 428.7479 522.7048 431.7008 524.8596 437.1145 528.1317 437.6769 526.2961 441.5438 527.8923 446.9574 528.4509 451.0352 525.4182 451.3165 524.0615 456.5895 516.2403 457.3629 515.5221 459.3315 509.9355 459.3315 511.2124 462.214 503.072 466.9246 499.6403 464.956 495.9691 466.8543 488.0681 465.5185 483.5989 460.5267 475.9373 461.6516 469.5527 456.5192 459.8161 461.0891 457.5815 459.7533 455.1872 463.9014 449.7603 467.4168 445.5305 466.1512 444.3333 463.4093 437.5497 463.9014 432.5218 460.2454 429.09 460.1751 417.2784 448.7151 416.5602 446.1841 410.6544 441.825 404.6688 430.2947 399.0822 428.2558 398.4437 425.3029 386.4725 418.4128 383.1206 412.1555 397.4062 380.1658 407.5419 356.9645 406.0255 349.9338 413.7669 325.1154 415.6823 324.553 419.1938 317.3817 423.8227 314.5694 424.541 311.5462 433.24 305.2889 440.9814 302.125 443.9343 303.1093 451.5959 297.9769 455.267 300.0861 461.3324 301.0704 462.0507 304.5155 466.2805 298.1175 472.4257 292.7742 473.3834 289.3292 478.8902 287.1497 486.0729 287.5715 483.1998 285.2514 484.8758 279.908 481.2844 275.6896 492.6172 265.917 503.072 261.2064 505.9451 263.4562 506.7432 258.5347 512.1701 262.1204 518.7144 261.8391 518.874 263.8077 525.0192 258.4644 529.9673 260.2221 533.4788 259.1675 536.5116 253.332 540.1827 251.1525 541.6193 253.1914 553.2712 251.0822 557.5809 248.1996 561.1722 256.2146 568.754 260.9955 573.1434 261.5579 582.4809 264.3702 585.7531 267.6043 593.0954 264.9327 601.6349 269.0808 605.8647 266.4091 610.6532 268.448 613.8455 275.2678 616.4791 274.4241 629.2484 280.8923 631.2436 285.8138 637.3888 294.7428 645.0504 292.1415 642.2571 295.7271 644.6514 300.5783 640.661 303.1093 642.1773 311.7571 637.2292 324.6233 639.6235 328.5605 635.3138 335.5912 630.3657 336.4349 626.3753 341.2157 617.9157 345.5748 615.6811 350.7775 605.1464 352.8164 599.48 363.503 Z"/></g>
<g id="GT"><path d="M 573.1434 261.5579 568.754 260.9955 561.1722 256.2146 557.5809 248.1996 553.2712 251.0822 541.6193 253.1914 540.1827 251.1525 536.5116 253.332 536.9106 244.8952 540.0231 236.4583 533.3192 234.2788 520.55 238.7785 518.2355 233.2242 525.099 227.9512 523.423 220.358 530.2067 216.7724 532.6808 205.1014 540.1029 201.3048 545.9289 204.7499 553.2712 203.4844 557.5809 197.438 555.7453 191.8837 559.4962 191.1103 563.6463 185.6967 563.1674 179.4394 565.7213 181.3377 573.6223 178.8066 574.2607 174.307 581.1242 174.6585 585.8329 171.9165 592.6166 170.7213 589.8233 165.7998 600.9166 163.3391 605.5455 165.167 604.1887 169.8073 599.6397 177.0489 602.4329 178.2441 608.8974 176.2052 620.4695 175.924 619.9109 180.7049 617.1176 180.494 613.8455 183.8687 610.5734 191.6728 607.7801 194.2741 605.7849 203.625 602.9118 206.2966 600.6772 213.3273 589.105 211.7806 586.4713 215.9287 581.5233 217.4051 588.3069 229.7089 593.6541 231.115 599.5599 230.2713 601.6349 234.771 595.0108 240.3252 585.7531 242.7156 577.5329 249.887 576.7348 254.3866 573.8617 256.9177 573.1434 261.5579 Z"/></g>
<g id="MP"><path d="M 717.3564 282.1579 712.568 287.009 704.1881 288.4152 700.4371 285.9544 697.0852 287.0794 688.7852 283.7046 684.4755 285.392 678.0909 285.1108 677.0534 283.2828 670.1101 284.5483 662.7678 288.5558 652.8716 287.5715 645.0504 292.1415 637.3888 294.7428 631.2436 285.8138 629.2484 280.8923 616.4791 274.4241 613.8455 275.2678 610.6532 268.448 605.8647 266.4091 601.6349 269.0808 593.0954 264.9327 585.7531 267.6043 582.4809 264.3702 573.1434 261.5579 573.8617 256.9177 576.7348 254.3866 577.5329 249.887 585.7531 242.7156 595.0108 240.3252 601.6349 234.771 599.5599 230.2713 593.6541 231.115 588.3069 229.7089 581.5233 217.4051 586.4713 215.9287 589.105 211.7806 600.6772 213.3273 602.9118 206.2966 605.7849 203.625 607.7801 194.2741 610.5734 191.6728 613.8455 183.8687 617.1176 180.494 619.9109 180.7049 620.4695 175.924 608.8974 176.2052 602.4329 178.2441 599.6397 177.0489 604.1887 169.8073 605.5455 165.167 600.9166 163.3391 589.8233 165.7998 579.129 169.3152 577.2934 167.3466 582.5608 163.4797 587.9877 161.6517 589.4242 157.363 596.2079 154.1992 605.1464 153.8476 606.4233 151.176 610.2541 151.2463 613.2868 156.449 617.5167 154.4804 621.3474 148.2934 631.0042 144.4968 631.2436 148.9964 627.6523 151.5275 627.4926 158.3473 629.7273 157.5739 638.4263 167.4872 644.0129 168.6121 648.2427 167.4169 650.2379 164.2531 648.0831 161.4408 656.2235 153.707 665.4014 147.4497 666.4389 144.0046 665.5611 137.2552 678.7294 135.0054 687.0294 137.7473 690.94 133.7398 696.2871 132.6852 698.0429 127.6934 701.7939 131.5603 712.4881 136.06 715.5209 140.9111 718.4737 141.1924 714.2439 146.606 717.6757 148.9261 719.7507 156.0271 715.3612 157.2224 714.5632 161.4408 721.6661 160.8783 725.2574 158.98 730.6844 159.6128 732.0411 153.6367 727.7315 152.3712 727.7315 147.5903 735.4728 145.1999 739.6229 141.4033 732.9988 135.4272 732.52 132.1931 728.769 131.9822 729.3276 127.9043 734.5152 114.0539 733.2382 112.0853 723.0228 110.8197 731.3228 108.5699 733.0786 106.8826 740.82 108.4996 742.4959 106.7419 746.4065 108.7808 749.9979 104.2812 753.8287 104.2812 754.1479 115.3194 759.495 129.7323 757.6595 181.6892 756.3027 187.5247 757.2604 196.8755 755.345 198.7738 752.7912 207.2809 754.4671 213.6789 748.8008 214.8038 729.0882 201.0236 723.2622 201.5158 713.5257 209.6011 709.216 219.8659 705.7045 225.7717 697.2448 235.8256 696.0477 239.9034 695.7285 253.2617 696.3669 258.3238 700.2775 256.4255 704.0285 264.1593 704.5872 270.9087 713.1266 280.5408 717.3564 282.1579 Z"/></g>
</g>
</svg>