<?xml version="1.0" encoding="utf-8"?>
<!-- Generator: Adobe Illustrator 19.2.0, SVG Export Plug-In . SVG Version: 6.00 Build 0)  -->
<svg version="1.1" id="Layer_1" xmlns="http://www.w3.org/2000/svg" xmlns:xlink="http://www.w3.org/1999/xlink" x="0px" y="0px"
	 viewBox="0 0 800 705" style="enable-background:new 0 0 800 705;" xml:space="preserve">
<g id="EC">
	<path d="M583.7,483.6l3.8,0l1.4,2.6l7.2,9.8l-2.1,0.4l-1,3.6l-1.8,1.2l-5.3-2.7l-4.6,0.1l-2.6-5.5l-1.2-4.4l-1.8-1.8l0.1-2.3
		l1.8-4.1L583.7,483.6z"/>
	<path d="M511.6,491l2.6,0.2l4.3,6.2l4.5,3.9l3.9,0.3l6.5,1.9l-0.1-1.9l2.1-3.7l-0.3-2l2.7-2v-4.3l2.1-0.8l2.5-3.1l5-1.4l3.6,0.6
		l6.9-2.2l4.9-3.1l3,3.6l-1.3,3l-6.8,5.6l-2-1l-1.1,2l-0.1,4.1l3.2,3.3l3,0.7l1.4-2.6l3,3.2l6.6,2.4l4.8-1.2l3.9,2.5l5.9,0.9
		l5.5,4.5l2.7,1.1l1.8,2.8l0.4,2.9l1.6,2.2l-5.9,7.5l-4.6,4.1l-2.4,0.8l-7.6,7l-4,1.4l-0.6,2.1l-4.1,4.5l-1.6,2.8l-2,0.9l-1.6,3
		l-7,8.1l-7.8,6.7l-2.1,3l-10.3,7.4l-1.7,0.5l-1.9,3.5l-6,5.4l-5,2.4l-3.7,3.7l-4.4,2.2l-0.9,1.7l-8.8,5.6l-1.3,1.7l-5.4,2l-8.2,3.9
		l-3.8,2.4l-6.8,0.4l-5.8-1.7l-4.1-0.1l-5.1,1.2l-3.1,1.9l-1.7,5.4l2.6,2.7l-3.2,1l-5.6-0.5l-4-1.8l-5.3-0.6l-4.3,1l-0.7,2.4
		l-2.5,2.9l0.5,1.9l-11.3-0.8l-2.9-1.7l-6.5-1.7l-5.3-0.3l-10.4-1.8l1.3-3.9l-4.4-2.5l-5.3-0.4l2-2.5l5.3-2.6l-1.8-5.2l-3.9-2.1
		l-5.3-1.1l-7,0l-8.3,0.8l-0.3-2.7l4.8-8.5l-0.1-2.9l2.3-4.5l5.8-3.1l4-0.1l1.3-1.5l-2.9-3.5l-1.5-5.8l0.1-2.8l2.4-2.6l8.3-1.3
		l2.1-3.1l2.5-1.7l4,1.1l4.3-2.1l1.8-1.8l0.8-4.4l1.8-1.8l-1.8-2.2l0.6-3.5l0.2-1.1l5.4-1.6l5.1-0.6l0.3-5.4l1.3-5.5l6.3-0.6
		l6.1-3.9l7.6-3.1l4.1,0.9l2.9-4.8l1.8-5.7l0.5-4.7l-1.3-1.6l-0.6-5.1l4.4-0.3l0.8,1.8l2.8,0.8l3.5-2.3l1.6-2.7l1.5,0.9l6.4-3
		l4.2,3.4l5-0.7l2.9,3.3l5.2,0.9l2.4-1.2l2.2,1.3l5.3-3.1l-0.8-1.9h3.6l0.5-1.3l5.1-0.5l0.9-3.4l2-0.2L511.6,491z"/>
</g>
<g id="NP">
	<path d="M508.1,97.7l2.1-2.2l2-4l5.9-5.1l4.4-2.4l0.7-4.7l2.2-9.5l-0.1-1.7l2.2-5.6l2.1,0.3l1.9-4.7l5-2.2l2.3-2.5l6.6-1.1l1.9-5.1
		l3-0.8l1.8,1l0.7-3.4l4-1.6l1.7-1.8l-0.3-2.3l2.8-1.3l0.9-3.2l3.8-2.8l1.2-3.1l4.7-3.1l6.1,0l13-4.5l1.9-2.6l-0.3-2.5l3-3.2
		l4.1-0.1l1.8-1.1l5.1,0.5l2.7-1.1l6.8-1.1l3.3,0.2l6.1,2.5l6.1,3.5l3.5,0.2l1.9,1.5l6.9-0.8L648,17l6.9-1.6l13.8,3.1l8.4,28.8
		l-0.8,9.2l0.7,2.8l3.1,3.5l2.9,9l3.6,4.6h-2.5l-2.3,2.9l-2.6-1.3l-1.1,1.1l-5.1-1.1l-1.1,1.1l-5.4,1.5l6.7,0.8l0.8,1.3l-3.4,9
		l-0.4,2.7l2.4,0.1l0.3,2.1l4.3,3.9l-2.7,2.5l-5.1,1.6v3.1l2.8,0.8l-0.9,3.9l-3.5-0.4l-2.3,1.2l-4.6,0.4l0.5-2.8l2.9-0.8l-1.4-4.6
		l-2.2-1.5l2.8-3.5l-1.9-0.2l-2-3.2l-7-2.9l-2.4-2.5l-1.1,3.3l-3.5,0.7l-2.6,2.6l-5.4-1.8l-8.6,1.5l0.6,4.4l-0.7,2.2l-6,4.1l-5.3,5
		l1.4,1.8l-1.3,2.1l-2.8,0.8l-3.6-0.7l-5.7-6.5l-1.5,0.5l0.1-4.5l2.3-1.7l-0.2-2.9l-6.3,2.5l-2.5,4l-2.8,1.3l-2-3.4l-2.5,0l-0.8,1.7
		l-5.8,0.2l-4.4,2.1l-0.9,2.8l-3.5,1.2l-3.4,2.5l1.2,1.3l7-2.3l1.8,3.2l-4.4,0.8l-3.1,1.8l-4.5-0.2l-2-3.3l-3.4-1l-1.2-3l4,0.4
		l0.3-1.7l-4-2.4l-4.3-0.9l-1.9,0.6l-7.8-1.2l-2.5,0.7l-2.1,4.1l-1.2-1.7l-3.9,0.1l-2.6-1.9l-3.4-0.6l-4.2-5l-1-4.5l-2.6,2.3
		l-5.7,2.8l-4.6-1.4l-5.6-0.5l-1.5-2.5L508.1,97.7z"/>
</g>
<g id="NL">
	<path d="M639.5,423.4l4.2-2.3l-1.4-3.1l1.8-5.7l3.3-1.4l1.3-5.6l3.3-1.6l0.9-2.8l-3.7-9.1l-3.2-0.8l-2.6-2.8l-4.5-3.1l-3.8-4.9
		l3.7-7l6.9-1.3l1.5-3.4l5.5-2.8l2.6-3.1l3.2-0.6l2.8-4.6l-1.6-2.6l3.2-8.4l-1-5.6l2.6-1.7l-1.6-3.2l1.8-2.3l5.1-3l6.5,0.6l4.8-2.6
		l4.5-0.8l0.7,1.2l4.2,0.2l2.8-1.1l5.4,2.2l2.2-0.7l2.4,1.6l5.5-0.9l3.1-3.2l8.9,3.1l14.1,0.7l-0.6-7.8l2-10.4l4.8,1.6l6.7,0.8
		l17.4,0.3l-2.1,9.8l-5.9,14l-3.3,12.7l0.1,1.5l-2.1,9.5l-4.2,6.7l-1.7,6.1l-9.7,8.4l-2.8,0.1l0.5,2.2l-4,1.9l-3.7-0.2l-0.6,1.6
		l-6.4,6.7l-2.2,1.7l-9.9,12.1l-4.4,8.1l-0.1,3.8l-4.5,4.2l-4.4,7.7l-7.3,11.8l-5.5,9.6l-2.3,2.2l-4,5.8l-1.6-2.2l-0.4-2.9l-1.8-2.8
		l-2.7-1.1l-5.5-4.5l-5.9-0.9l-3.9-2.5l-4.8,1.2l-6.6-2.4l-3-3.2l-1.4,2.6l-3-0.7l-3.2-3.3l0.1-4.1l1.1-2l2,1l6.8-5.6l1.3-3
		L639.5,423.4z M660.6,427.4l-6.2-3l-1.8,4.1l-0.1,2.3l1.8,1.8l1.2,4.4l2.6,5.5l4.6-0.1l5.3,2.7l1.8-1.2l1-3.6l2.1-0.4l-7.2-9.8
		l-1.4-2.6L660.6,427.4z"/>
</g>
<g id="WC">
	<path d="M282.8,655.8l-6.2,1.3l-1.9,2l1.4,1.5l-14.1-0.5l-4.5-1.7l-6.6-0.8l-4.5,2.6l-4-0.1l-3.6,1.5l-0.1,3l-4.8,1.4l-1.8,1.4
		l-0.6,3.2l-5.6,2.2l-5.6-1.1l-4.8,2.7l-2.5,0.2l-5-1.5l-5.5,0l-3.1,1.5l1.2,2.3l-5.3-0.6l-4.1,0.8l-4.2,4.4l-6.4,4.9l-2.9,2.9
		l0.5,1.2l-3.1,0.5l-3-1.9l-6.3,1.2l-7.7-5.6l-2.9,0.4l1.5-3.9l-2.7-3.2l-3.9,0.6l-2-2.4l-8.2,1.4l0.8-7.8l-3.7-2.4l-5.5,0.4
		l-3.1,2.8l1.3,3.5l0.1,3.7l-2-1.5l-1-2.9l-2.1-2l0.9-3.8l-1.4-0.8l1.4-3.9l3.3-2.5l-2.2-5.8l-3.7-4.4l-0.6-3.1l-5.3-4l-2.6-5.3
		l-3.9-3.4l1.5-0.5l3.2,3.7l-2.9-6.5l-2.5,0l-0.7,1.6l-2.8-8.2l1.6-3.4l1.8-1l3.6,2.5l2.1-1.2l3.3-4l1.4-5.8l-1-5.2l0.7-3.1
		l-1.5-4.6l-1.7-8.4l-3.9-8l-5.6-7l-3.9-3.7l-0.9-2.6l-3.6-3.9l1.7,0.4l-0.1-3.9l1.6-4.8l3.6-6.1l4.3,1.3l2.6-1.7l2.4-4.8l1.9-5.7
		l1.8,0.8l2.8-2.2l5.7,3.4l3.6,4l3,0.8l0.2,7.8l-0.5,2.5l1.5,6.7l2,3.2l1.1,7.3l1.8,2.9l0.6,6.1l-0.9,5.3l4.8,0.7l2.3-1.4l-0.2,2.6
		l2.6,2.4l4.6,1.6l0.8,5.2l-1.9,2.9l2.3,5.4l-0.2,4.3l2,1.8l1.9-6.6l2.8-0.9l2.8-2.6l3.8-0.8l6.1-6.4l1.4,0.2l1.1,3l-3.7,4.8
		l1.7,6.5l3,5.9l6.8,5.7l3.6-1.4l4.8,0.2l2.2-2.2l0.9-5.3l1.1-1.4l7.6-2.9l1.9-5.4l3.3-3.1l3.5-1.2l3.8-4l4.9-1.3l4.2,0.9l3.5-1.9
		l3.7-5.1l-0.6-5.8l1.6-1.5l4.1-10.3l5.8,2.8l4.1,4.2l4.6,1.9l5.8,0.6l2.6,1l1.5,3.2l3.2-3.2l3.3-5.1l3.2-2.6l6.9-1l4.8,1.7l2.6,3.2
		l3-2.7l1.8-0.3l3.9,2.4l-0.6,3.5l1.8,2.2l-1.8,1.8l-0.8,4.4l-1.8,1.8l-4.3,2.1l-4-1.1l-2.5,1.7l-2.1,3.1l-8.3,1.3l-2.4,2.6
		l-0.1,2.8l1.5,5.8l2.9,3.5l-1.3,1.5l-4,0.1l-5.8,3.1L260,622l0.1,2.9l-4.8,8.5l0.3,2.7l8.3-0.8l7,0l5.3,1.1l3.9,2.1l1.8,5.2
		l-5.3,2.6l-2,2.5l5.3,0.4l4.4,2.5L282.8,655.8z"/>
</g>
<g id="NC">
	<path d="M72.5,440.6l-7.3-10.9l-1-3L55,412.8l-2.9-6.4l-1.7-5.4l-2.3-4.5l-2.1-7.3L41,378.1l-1.7-2l-3.1-7.7l-5-5.7l-2.3-1.6
		l-1.8-5.3l-3-2.7l0.3-2l5.5-4.5l1.1,1.1l2.8-4.9l-1.5-2.9l3.5-4.6v-2.9l6.4-2.4l3.2,2.8l0.4,3.3l5,0.3l2.2,4.9l-2.1,3.4l3.3,4.7
		l-0.2,4l5.6-1.3l1,2.7l4.3-0.6l5.4,0.8l8.3,3.8l4.4-1.2l2.8,0.5l10.8-2.9l6.7,0.5l4.2,3.1l2.5-0.7l3.8-2.9l-1.5-3.5l1.1-1.9
		l4.5-0.6l1.5-1.3l2.4-5.5l8-2.4l4.8-3.3l-7.2-130l4.7,4.1l3.9,1.6l4.4,3.3l5.4,9l0.9,3.2l2.3,1.7l1.3,6.5l5.4,9.8l0.6,6.4l1.3,2.1
		l-2.6,5.3l-4,5.6v9.3l1.2,4.6l1.8,2.6l5-3.3l8.8,1.7l8.2-1.9l9.8,0.6l2.7-2.5l0.1-3.9l5-0.7l3.9-1.7l2.7-3.7l3.3-6.5l2.7-1l2.7-3.4
		l3.7-0.8l2.3-3.5l2.4,0l1.2,16.3h3.6l6.7,3.3l-0.7,6.4l2.4,5.2l-2,1.1l-0.1,5.4l2.5,1.1l4.3,4.2l7.7,2.7l1.1,1.7l7.8,2.3l4.7-1.8
		v-2.3l3.1-0.4l0.4-3.7l1.6,2.1l-0.1,4.9l2.3,8.4l9.7-2.5l0.7,3.8l-2,3.9l2.7,2.7l-0.2,2.2l2.6,2.2l2.9-3.6l0.2-3.4l2.2-3.1
		l-0.6-7.5l2.6-0.3l1,2.8l7.6,0.9l-6.3,7.3l3.5,6.7l2.6-1.1l-5.1,16.2l1,4.6l-6.6,15.1l-9.3,20.9l2.2,4.1l7.8,4.5l0.4,1.9l3.6,1.3
		l3.9,7.5l3.9,2.8l0.5,1.7l7.7,7.5l2.2,0l3.3,2.4l0.6,5.1l1.3,1.6l-0.5,4.7l-1.8,5.7l-2.9,4.8l-4.1-0.9l-7.6,3.1l-6.1,3.9l-6.3,0.6
		l-1.3,5.5l-0.3,5.4l-5.1,0.6l-5.4,1.6l-0.2,1.1l-3.9-2.4l-1.8,0.3l-3,2.7l-2.6-3.2l-4.8-1.7l-6.9,1l-3.2,2.6l-3.3,5.1l-3.2,3.2
		l-1.5-3.2l-2.6-1l-5.8-0.6l-4.6-1.9l-4.1-4.2l-5.8-2.8l-4.1,10.3l-1.6,1.5l0.6,5.8l-3.7,5.1l-3.5,1.9l-4.2-0.9l-4.9,1.3l-3.8,4
		l-3.5,1.2l-3.3,3.1l-1.9,5.4l-7.6,2.9l-1.1,1.4l-0.9,5.3l-2.2,2.2l-4.8-0.2l-3.6,1.4l-6.8-5.7l-3-5.9l-1.7-6.5l3.7-4.8l-1.1-3
		l-1.4-0.2l-6.1,6.4l-3.8,0.8l-2.8,2.6l-2.8,0.9l-1.9,6.6l-2-1.8l0.2-4.3l-2.3-5.4l1.9-2.9l-0.8-5.2l-4.6-1.6l-2.6-2.4l0.2-2.6
		l-2.3,1.4l-4.8-0.7l0.9-5.3l-0.6-6.1l-1.8-2.9l-1.1-7.3l-2-3.2l-1.5-6.7l0.5-2.5l-0.2-7.8l-3-0.8l-3.6-4l-5.7-3.4l-2.8,2.2
		l-1.8-0.8l-1.9,5.7l-2.4,4.8l-2.6,1.7l-4.3-1.3l-3.6,6.1l-1.6,4.8l0.1,3.9L72.5,440.6z"/>
</g>
<g id="NW">
	<path d="M254.4,154.8l1.3-3.3l1.8-1.4l-0.5-3.4l1.8-2.3l-0.7-2.5l1.8-2.5l1-7.4l5.1-6.2l2.1,0.5l6.3-2.4l6.3,0.5l7.5,6l1.8,0.5
		l6,5.6l2.6,0.9l4.1-1.1l3.2,0.7l2.2,2.6l3,1.2l2.1-0.6l6.8,2.8l4.3,0.1l3.5-1l4.6-2.4l4.1,0.9l6.8-0.8l6.5-4.5l2.4-6.5l0.9-4.6
		l4.5-10.5l1.3-4.7l-0.4-4.9l13.4-4.4l4.1,0.2l0.3,3.9l1.5,2.5l5.6,0.5l4.6,1.4l5.7-2.8l2.6-2.3l1,4.5l4.2,5l3.4,0.6l2.6,1.9
		l3.9-0.1l1.2,1.7l2.1-4.1l2.5-0.7l7.8,1.2l1.9-0.6l4.3,0.9l4,2.4l-0.3,1.7l-4-0.4l1.2,3l3.4,1l2,3.3l-0.4,2.9l-5.2,1.7l-1.7-1.2
		l0.3,4.1l-2.7,3.5l-2.4,0.5l1.2,3.6l-2.8,3.9l-4.8,0.8l-3.8-2.2l-4.8,2.5l-1.6,7.6l-4.4,2.3l1.1,5l-4.5,3.4l1.5,3.6l8.3-2.9
		l4.4,1.4l-2,5.5l-0.3,5.5l-2,3.8l-2.3,0.7l-3.2-1.1l-4,3.5l-0.1-1.3l-4.3,0.2l-3.5-2.3l-0.5,3.2l-1.9-1.5l-6.8,3.1l-7.4,6.4
		l2.3,2.8l-1.1,3.5l1.9,1.5l-4.7-0.3l-3.6,1.4l-0.6,2.2l-4,3.5l-2.8,4.2l-0.5-2.2l-4-0.6l-2.4-1.4l-5,3.4l-1.9-0.6l-5.1,2.1
		l-5.7,4.1l-0.5,2l-3,1.8l-2.3,4.7l-1.3,0.4l-2.6,1.1l-3.5-6.7l6.3-7.3l-7.6-0.9l-1-2.8l-2.6,0.3l0.6,7.5l-2.2,3.1l-0.2,3.4
		l-2.9,3.6l-2.6-2.2l0.2-2.2l-2.7-2.7l2-3.9l-0.7-3.8l-9.7,2.5l-2.3-8.4l0.1-4.9l-1.6-2.1l-0.4,3.7l-3.1,0.4v2.3l-4.7,1.8l-7.8-2.3
		l-1.1-1.7l-7.7-2.7l-4.3-4.2l-2.5-1.1l0.1-5.4l2-1.1l-2.4-5.2l0.7-6.4l-6.7-3.3H258l-1.2-16.3L254.4,154.8z"/>
</g>
<g id="FS">
	<path d="M563.8,377.1l-5-3.1l-2-4.2l-2.9,1.4l-4.4,0.2l-2.7,2.9l-5.1,0l-4.3,5.4l-3.4,0.1l-1.6,1.9l-3.6-0.2l-1.1,2.9l-2.3,1.5
		l-0.8,3.5l-2.7,2.7v1.9l-2.3,1.1l-1.1,3.8l-2.2,3.1l-3.2,2.3l-7.1,2.7l-0.4,1.5l2.7,3l3.4,8.2l2.1,1.9l1.4,3.5l2.1,0.4l-1.2,2.5
		l1,3.5l0.4,2.7l-2,0.2l-0.9,3.4l-5.1,0.5l-0.5,1.3h-3.6l0.8,1.9l-5.3,3.1l-2.2-1.3l-2.4,1.2l-5.2-0.9l-2.9-3.3l-5,0.7l-4.2-3.4
		l-6.4,3l-1.5-0.9l-1.6,2.7l-3.5,2.3l-2.8-0.8l-0.8-1.8l-4.4,0.3l-3.3-2.4l-2.2,0l-7.7-7.5l-0.5-1.7l-3.9-2.8l-3.9-7.5l-3.6-1.3
		l-0.4-1.9l-7.8-4.5l-2.2-4.1l9.3-20.9l6.6-15.1l-1-4.6l5.1-16.2l1.3-0.4l2.3-4.7l3-1.8l0.5-2l5.7-4.1l5.1-2.1l1.9,0.6l5-3.4
		l2.4,1.4l4,0.6l0.5,2.2l2.8-4.2l4-3.5l0.6-2.2l3.6-1.4l4.7,0.3l-1.9-1.5l1.1-3.5l-2.3-2.8l7.4-6.4l6.8-3.1l1.9,1.5l0.5-3.2l3.5,2.3
		l4.3-0.2l0.1,1.3l4-3.5l3.2,1.1l2.3-0.7l2-3.8l2.4-1.4l0.9,1.3l7.6-1.4l2.8-1.9l2.3,5.2l5,3.1l2.9,0.4l6.1,1.8l2.1,2.1l4.8-1.7
		l5.6,2.7l2.8-1.7l3.1,1.3l2.1,4.5l1.7-0.6l8.3,4.2l1.3,3.2l4,5.8l5-1.7l-1.8,2.3l1.6,3.2l-2.6,1.7l1,5.6l-3.2,8.4l1.6,2.6l-2.8,4.6
		l-3.2,0.6l-2.6,3.1l-5.5,2.8l-1.5,3.4l-6.9,1.3L563.8,377.1z"/>
</g>
<g id="GT">
	<path d="M503.5,211.1l-2.9-0.4l-5-3.1l-2.3-5.2l-2.8,1.9l-7.6,1.4l-0.9-1.3l-2.4,1.4l0.3-5.5l2-5.5l-4.4-1.4l-8.3,2.9l-1.5-3.6
		l4.5-3.4l-1.1-5l4.4-2.3l1.6-7.6l4.8-2.5l3.8,2.2l4.8-0.8l2.8-3.9l-1.2-3.6l2.4-0.5l2.7-3.5l-0.3-4.1l1.7,1.2l5.2-1.7l0.4-2.9
		l4.5,0.2l3.1-1.8l4.4-0.8l-1.8-3.2l7.2-1.6l3,1.2l-0.9,3l-3,4.7l1.8,0.8l4.2-1.3l7.6-0.2l-0.4,3.1l-1.8-0.1l-2.1,2.2l-2.1,5.1
		l-1.8,1.7l-1.3,6.1l-1.9,1.7l-1.5,4.6l-7.6-1l-1.7,2.7l-3.2,1l4.4,8l3.5,0.9l3.9-0.6l1.4,2.9l-4.3,3.6l-6,1.6l-5.4,4.7l-0.5,2.9
		l-1.9,1.7L503.5,211.1z"/>
</g>
<g id="MP">
	<path d="M692.3,263l-3.1,3.2l-5.5,0.9l-2.4-1.6l-2.2,0.7l-5.4-2.2l-2.8,1.1l-4.2-0.2l-0.7-1.2l-4.5,0.8l-4.8,2.6l-6.5-0.6l-5.1,3
		l-5,1.7l-4-5.8l-1.3-3.2l-8.3-4.2l-1.7,0.6l-2.1-4.5l-3.1-1.3l-2.8,1.7l-5.6-2.7l-4.8,1.7l-2.1-2.1l-6.1-1.8l0.5-3l1.9-1.7l0.5-2.9
		l5.4-4.7l6-1.6l4.3-3.6l-1.4-2.9l-3.9,0.6l-3.5-0.9l-4.4-8l3.2-1l1.7-2.7l7.6,1l1.5-4.6l1.9-1.7l1.3-6.1l1.8-1.7l2.1-5.1l2.1-2.2
		l1.8,0.1l0.4-3.1l-7.6,0.2l-4.2,1.3l-1.8-0.8l3-4.7l0.9-3l-3-1.2L609,187l-7,2.3l-1.2-1.3l3.4-2.5l3.5-1.2l0.9-2.8l4.4-2.1l5.8-0.2
		l0.8-1.7l2.5,0l2,3.4l2.8-1.3l2.5-4l6.3-2.5l0.2,2.9l-2.3,1.7l-0.1,4.5l1.5-0.5l5.7,6.5l3.6,0.7l2.8-0.8l1.3-2.1l-1.4-1.8l5.3-5
		l6-4.1l0.7-2.2l-0.6-4.4l8.6-1.5l5.4,1.8l2.6-2.6l3.5-0.7l1.1-3.3l2.4,2.5l7,2.9l2,3.2l1.9,0.2l-2.8,3.5l2.2,1.5l1.4,4.6l-2.9,0.8
		l-0.5,2.8l4.6-0.4l2.3-1.2l3.5,0.4l0.9-3.9l-2.8-0.8v-3.1l5.1-1.6l2.7-2.5l-4.3-3.9l-0.3-2.1l-2.4-0.1l0.4-2.7l3.4-9l-0.8-1.3
		l-6.7-0.8l5.4-1.5l1.1-1.1l5.1,1.1l1.1-1.1l2.6,1.3l2.3-2.9h2.5l0.2,7.2l3.5,9.4l-1.2,33.9l-0.9,3.8l0.6,6.1l-1.3,1.2l-1.7,5.6
		l1.1,4.2l-3.7,0.7l-12.9-9l-3.8,0.3l-6.4,5.3l-2.8,6.7l-2.3,3.9l-5.5,6.6l-0.8,2.7l-0.2,8.7l0.4,3.3l2.6-1.2l2.4,5l0.4,4.4l5.6,6.3
		L692.3,263z"/>
</g>
</svg>
