<?xml version="1.0" encoding="utf-8"?>
<!-- Generator: Adobe Illustrator 19.2.0, SVG Export Plug-In . SVG Version: 6.00 Build 0)  -->
<svg version="1.1" id="Layer_1" xmlns="http://www.w3.org/2000/svg" xmlns:xlink="http://www.w3.org/1999/xlink" x="0px" y="0px"
	 viewBox="0 0 800 600" style="enable-background:new 0 0 800 600;" xml:space="preserve">
<style type="text/css">
	.st0{fill:#1122A5;stroke:#000000;}
	.st1{fill:#2222A5;stroke:#000000;}
	.st2{fill:#3322A5;stroke:#000000;}
	.st3{fill:#4422A5;stroke:#000000;}
	.st4{fill:#5522A5;stroke:#000000;}
	.st5{fill:#6622A5;stroke:#000000;}
	.st6{fill:#7722A5;stroke:#000000;}
	.st7{fill:#8822A5;stroke:#000000;}
	.st8{fill:#9922A5;stroke:#000000;}
	.st9{fill:none;stroke:#57D316;}
</style>
<g id="province1">
	<path id="municipality199" d="M95,546.9l3.5-3.8l3.8,2.3l1.6,3.5l3.4,2.3l1.6-1.9l0.1,6.7l-1.1,0.6l-0.3,7.2l3.1,0.8l4.4-0.4l-1.7,6.3l-2.6,2.5l-1-6.3l-3.7-1.1l-7.1,1.4l-1.3,2.5l1.6,2.1l-2.3,3l-1.4-7.5l-1.4-2.5l2.7-5.3l2.8-1.9l-1.6-6L95,546.9z"/>
	<path id="municipality160" d="M114,442.6l1,7.3l-2.3,1.2l1.1,4.9l-0.1,4.5l2.2,2.5l-1,1.9l3.3,6.3l-0.7,6.5l0.7,3.3l-1.9,3l-4.7-0.9l-4.1,1l-3.7,2.9l-1.9-2.9l-3.4-1.3l-1.2,3.7l-3.8,2.2l-0.3-3.9l-1.8-5.7l-3.9-6.8l-6.1-7.5l-0.7-2.7l-3.7-4.6l5.2-5.1l-1.4-3.2l3.5-0.2l0.4-4.6l2.6-0.1l2.5,2.2l3-1.1l3.3-5.7l1.4-4.8l2.7-3l2.2-0.5l2.6,4.5l3.2,0.4l1.1,3.6L114,442.6z"/>
	<path id="municipality161" d="M94.7,504.9l-0.6-4.7l0.8-1.9l-1.6-9.5l3.8-2.2l1.2-3.7l3.4,1.3l1.9,2.9l3.7-2.9l4.1-1l4.7,0.9l11.5,5.1l3.7,3.6l-0.7,5l-2.6,1.4l2.7,6.8l-0.3,3.4l-2.1,2.1l-8.1-1.9l-0.5,1.8l2,3.3l-0.7,4.3l-2.7,1.9l-1.9-1.1l-0.9-4.9l-4.9-7.2l-3.9,1.6l-2.5-4.1l-7.6-1.2L94.7,504.9z"/>
	<path id="municipality162" d="M88.1,517.3l4.9-5.4l1.7-7l2-0.7l7.6,1.2l2.5,4.1l3.9-1.6l4.9,7.2l0.9,4.9l1.9,1.1l2.7-1.9l-1,5.8l0.6,4l-3.1,1.4l-4.2,2.6l-2.9-3l-1.1-3.3l-2.5-2.9l-4.1-1.9l-2.6,1.7l-6.8,0.6L88.1,517.3z"/>
	<path id="municipality163" d="M89.2,537.5l-1.6-3l-4.7-4.9l2.8-2.3l-1.6-1.9l-3.2,1.2l-0.4-4.1l0.5-6.6l1.9-0.8l3.2,2.4l2-0.2l5.3,6.9l6.8-0.6l0.8,5l-2.9,5.1l-2.5-2.2l-3.8-0.2l-1.3,2.3l0.7,3.5L89.2,537.5z"/>
	<path id="municipality164" d="M89.2,537.5l2.2-0.4l-0.7-3.5l1.3-2.3l3.8,0.2l2.5,2.2l2.9-5.1l-0.8-5l2.6-1.7l4.1,1.9l2.5,2.9l1.1,3.3l2.9,3l1.9,4.1l-2,6.9l-4.6,5.4l-1.6,1.9l-3.4-2.3l-1.6-3.5l-3.8-2.3l-3.5,3.8l-2.8-5.4L89.2,537.5z"/>
	<path id="municipality165" d="M160.4,523.3l-1.7,3.6l-2.5,1.2l0.1,3.4l-3.2,0.4l-5.9,2.5l-1.3,3l-4.4,2.3l-7.8-0.6l-1.3,2.3l-4.1,2l-0.3,2.9l-2.6,1.9l-2.2-1.9l-4.1-0.6l-1.6-12.8l0.5-2.7l3.1-1.4l-0.6-4l1-5.8l0.7-4.3l-2-3.3l0.5-1.8l8.1,1.9l2.1-2.1l1.3,4l2.4-1.7l0.5-5.9l5.6-2.9l4.2-0.6l6.7-7.1l2.8,1.4l-4.5,10.3l2.8,9.3l3.5,1.9L160.4,523.3z"/>
	<path id="municipality166" d="M108.9,556.1l-0.1-6.7l4.6-5.4l2-6.9l-1.9-4.1l4.2-2.6l-0.5,2.7l1.6,12.8l-0.2,2.4l2.6,4.1l0.9,5.3l-3.7-0.9l-5,1.7l-1.1-3.2L108.9,556.1z"/>
	<path id="municipality167" d="M108.9,556.1l3.4-0.9l1.1,3.2l5-1.7l3.7,0.9l1,1.5l-8.1,5.2l-4.4,0.4l-3.1-0.8l0.3-7.2L108.9,556.1z"/>
	<path id="municipality168" d="M118.8,545.8l4.1,0.6l2.2,1.9l2.6-1.9l0.3-2.9l4.1-2l1.3-2.3l7.8,0.6l4.4-2.3l1.3-3l5.9-2.5l1.7,0.7l-1.5,7.1l4.9-0.5l-1,4.5l-3,1.9l-2.1-0.4l-5.6,1.1l-2.3-1.4l-8.7,0.7l1.9,3.8l-0.6,6.1l-4.6,3l-0.8,3.5l-1.6,1.1l-6.6-3.8l-1-1.5l-0.9-5.3l-2.6-4.1L118.8,545.8z"/>
	<path id="municipality171" d="M146.9,566.5l-1.3,3.1l-2.6,1.6l-1.1,2.3l-6.9,5.2l-10.1-1.7l-4.3-5l-3.8,1.2l-3.4-2.7l1.7-6.3l8.1-5.2l6.6,3.8l1.6-1.1l6,2.8L146.9,566.5z"/>
	<path id="municipality172" d="M135,578.8l2.8,1.9l0.4,11.3l-4-0.8l-6.1-5.3l-1.4-4.6l-2.6-2.9l-1.7,1.1l-5.3-3.6l-6.9,1.3l0.6-4.1l2.6-2.5l3.4,2.7l3.8-1.2l4.3,5L135,578.8z"/>
	<path id="municipality173" d="M173.9,580l-5.6-0.1l-6.7,1.6l-2.2,2.7l-4.6,2.9L154,589l-4.8,1.8l-2.8,3.7l-3.7-2.6l-4.6,0.1l-0.4-11.3l-2.8-1.9l6.9-5.2l1.1-2.3l5.8,0.8l5.6,1.8l4.6,5.2l4.3-2.5L173.9,580z"/>
	<path id="municipality170" d="M173.2,578.2l0.7,1.9l-10.6-3.5l-4.3,2.5l-4.6-5.2l-5.6-1.8l-5.8-0.8l2.6-1.6l1.3-3.1l5.9-2.1l2.9,1.9l1-5.3l3.5,0.3v-4.9l2.1-7.1l5.1-0.6l4.2,3.5l6.5,1.5l-2.1,3.6l-0.3,3.6l-3.1,0.9l-4-0.6l1.5,5.3l-3.6-0.4l0.8,3.9l-2,3.2l-0.1,2.9L173.2,578.2z"/>
	<path id="municipality175" d="M205.5,575.9l-5.9,1.9l-5-1.4l-7.6,3.1l-4.9-2.1l-6.2-0.6l-2.6,1.4l-7.9-2.1l0.1-2.9l2-3.2l-0.8-3.9l3.6,0.4l-1.5-5.3l4,0.6l3.1-0.9l0.3-3.6l4.4-1.1l8.9-0.1l1.7,1l8.5-1.5l0.1,1.7l-1.5,2.8l1.3,3.4l1.2,7.2L205.5,575.9z"/>
	<path id="municipality176" d="M205.5,575.9l-4.8-5.1l-1.2-7.2l-1.3-3.4l1.5-2.8l7.3,0.4l5.9-0.7l3.5,1.5l1.4,5l2.3,1.2l-3.7,0.1l-3.4,2.1l-0.5,3.4l-5.6,1.6L205.5,575.9z"/>
	<path id="municipality177" d="M233.1,564l-6.5-1.2l-2.5,2.1l-4.1,0.1l-2.3-1.2l-1.4-5l4.2-3.6l0.1-5l6.8-0.8l5.2,0.1l-1.3-4.1l1.9-4.2l5,0.4l6.2-1.5h5l1.8,2l4.4,0.1l3.4,2l0.4,2.7l1.7,3.8l-3.5,0.1l-3.7,1.6l-1.4,2.8l-1.9,2.4l-3.3,0.8l-4.7-2.6l-6.2,0.2l-2.4,1L233.1,564z"/>
	<path id="municipality179" d="M260.5,562.2l-6.5,1.1l-1.9,3.4l-6.6-0.6l0.2-2.9l1.9-4.8l3.3-0.8l1.9-2.4l3.8-0.2l4.3,3.8L260.5,562.2z"/>
	<path id="municipality169" d="M131.3,561.9l0.8-3.5l4.6-3l0.6-6.1l-1.9-3.8l8.7-0.7l2.3,1.4l5.6-1.1l2.1,0.4l3-1.9l5-0.9l1.5,2.1l-1.4,4.4l-2.1,7.1v4.9l-3.5-0.3l-1,5.3l-2.9-1.9l-5.9,2.1l-9.6-1.8L131.3,561.9z"/>
	<path id="municipality174" d="M197,540.3l6.7-0.2l2.3-1l1.1,6l-0.1,5.3l-3,2.7l-3.7,0.1l-0.7,2.5l-8.5,1.5l-1.7-1l-8.9,0.1l-4.4,1.1l2.1-3.6l-6.5-1.5l-4.2-3.5l-5.1,0.6l1.4-4.4l6.7-1.1l5-2.2l2.8,0.3l13.2-1.7L197,540.3z"/>
	<path id="municipality180" d="M247.4,558.4l-1.9,4.8l-0.2,2.9l-6.1,0.1l-6.2-2.2l0.9-6.9l2.4-1l6.2-0.2L247.4,558.4z"/>
	<path id="municipality181" d="M191.4,516.5l-1.1,6.7l5.7,6.6l1.9,0.9l-0.8,9.5l-5.6-0.1l-13.2,1.7l-2.8-0.3l-5,2.2l-6.7,1.1l-1.5-2.1l-5,0.9l1-4.5l-4.9,0.5l1.5-7.1l-1.7-0.7l3.2-0.4l-0.1-3.4l2.5-1.2l1.7-3.6l4.8-0.5l4.3,0.7l3.1-4.7l-1.2-3.1l1.6-2.7l3.7-0.9l3.1,0.6l4-5.7l5.2,5.7l2.3,0.4L191.4,516.5z"/>
	<path id="municipality178" d="M216.4,558.8l-3.5-1.5l-5.9,0.7l-7.3-0.4l-0.1-1.7l0.7-2.5l3.7-0.1l3-2.7l0.1-5.3l-1.1-6l9.7-1.8l7.9,3.3l9.7,0.6l-1.9,4.2l1.3,4.1l-5.2-0.1l-6.8,0.8l-0.1,5L216.4,558.8z"/>
	<path id="municipality182" d="M238.3,526.4l-1.3,4.4l-4.9,9.5l1.2,0.9l-9.7-0.6l-7.9-3.3l-9.7,1.8l-2.3,1l-6.7,0.2l0.8-9.5l-1.9-0.9l-5.7-6.6l1.1-6.7l1.5,1.1l6.6-2.7l2.2-2l5.8-1.8l2.8-2l1,5.7l4,3l3.4-1.9l2.6,4.8l8.8,2.1l3.7,0.1l1.6,3.9L238.3,526.4z"/>
	<path id="municipality183" d="M276.3,480.8l0.4,4.2l1.8,1.9l-2.5,2.1l-1.3,5.6l-6.5,3.3l-3-2.3l-4,1.6l-0.1,4l-6.8-0.8l-1.2,2.4l-5.9,1.3l2.1,4.7l2,7.8h1.4l-0.6,2.3l-7.2-2.2l-4.4,3.9l-2.3,5.6l-3.1,0.6l-1.6-3.9l-3.7-0.1l-8.8-2.1l-2.6-4.8l-3.4,1.9l-4-3l-1-5.7l-2.8,2l-5.8,1.8l-2.2,2l-6.6,2.7l-1.5-1.1l-0.2-3.3l-2.3-0.4l-5.2-5.7l3.6-3.7l8-3.2l-0.8-3.2l3.4-0.7l1.5,1.5l5.1,1l4.4-2.7l0.7-3.2l2.5-4.2l-0.8-2.2l3-1.7l1.1-4.8l3.4-6.6l9.6,5.1l-1.3,3l8.8,0.5l8.7,4.9l2.9-2.8l2.2-5.3l6.1-1l6.8-2.1l5,6.9l4.7-3.8l1.3,2.8L276.3,480.8z"/>
</g>
<g id="province2">
	<path id="municipality288" d="M424.6,423.8l2.3,1.1l0.4,5.5l1.9,0.7l-1.5,3.7l0.3,3.5l2.4,5.3l-1.7,4.2h2.4l1.1,2.9l-3.1,1l-1.4,2.2l-2.6-3h-3.5l-2.8,3.3l-3.2-0.7l-3.4,1.4l-0.7-3l3-3.5l-0.6-3.1l1.6-2.8l-5.4-8.6v-2.9l-4.5-0.7l2-5.3l6.9,2l3.4-1.6l4,0.7L424.6,423.8z"/>
	<path id="municipality289" d="M413.9,445.3l-1.9,1.4l-6.4-1.6l-5.9,1.4l-1,1.9l-5.3,2l-2.1,5.2l-6.1-1.2l-5.6,1.5l-1-7.5l-5.3-2.2l-0.1-2.4l3.2-4.1l-0.4-2l1.4-5.5l-1.3-2l-0.4-5.6l4.3-1.1l0.8,2.4l4.6,0.6l6.1-5l5.9-2l3.7,3.5l4.5-0.5l1.9,2.3l-2,5.3l4.5,0.7v2.9l5.4,8.6L413.9,445.3z"/>
	<path id="municipality290" d="M494.4,452.7l-1.4-3.6l1.8-4.2l4.7-3.1l-1-3.5l3.3-2.6l3.1,1.9l-0.8,2l8.2,3.5l6.2,4.1l-6.6,7.2l-2.4,0.3l-2.1,2.8l-4.8-3.7l-0.9-3.1l-5.1-1.4L494.4,452.7z"/>
	<path id="municipality291" d="M494.4,452.7l2.3-3.4l5.1,1.4l0.9,3.1l4.8,3.7l-5.9,5l-2.5,1l-2.9,4.3l-2.3-1.2l-0.2-3.3l1.5-5.4L494.4,452.7z"/>
	<path id="municipality292" d="M478.3,456l3.2-0.2l1-6l2.8-1l2,1.3l3.5-0.1l1.1-1.6l1.1,0.8l1.4,3.6l0.7,5.2l-1.5,5.4l0.2,3.3l2.3,1.2l-4.4,5.2l-2.8-2.6l-4.6-1.6l-4-5.4l-0.2-6.5L478.3,456z"/>
	<path id="municipality293" d="M476.2,432.4l4.7,3.8l2.2,4.9l2.3-1.9l2.7,0.5l2.1,2l1.8,6.7l-1.1,1.6l-3.5,0.1l-2-1.3l-2.8,1l-1,6l-3.2,0.2l-2.9-1.3l-4.1,1.6l-4.5-0.5l3.7-5.4l-0.1-3l3.8-0.5l1.7-3.7l-4.6-3.1L476.2,432.4z"/>
	<path id="municipality294" d="M491.8,473l-2.9,4l-5.2-4.2l-4.4,3.7l-5.8-2.7l-4.1-0.1l-1.2-3.6l-2.3-1.5l-1.3-7.7l2.2-2.2v-2.8h0.1l4.5,0.5l4.1-1.6l2.9,1.3l1.9,0.8l0.2,6.5l4,5.4l4.6,1.6L491.8,473z"/>
	<path id="municipality295" d="M463.2,415.6l-1-4.1l3.2-1l0.8-2.4l6.4-1.7l3.8,0.1l5.3-1.3l4.9-3.1l3.2,3.6l0.6,5.8l5.2,2.1l0.1,2.1l-3.4,2l-1.9,6.2l-5.6-1.2l-1,4.2l-2-0.1l-3.1-3.5l-3.2,2.2l-3,0.2l0.3-5.7l-2.8-2.7L463.2,415.6z"/>
	<path id="municipality296" d="M476.2,432.4l-4-6.6l3-0.2l3.2-2.2l3.1,3.5l2,0.1l1-4.2l5.6,1.2l7.4,1.6l4.3-1.1l1,1.1l-0.9,1.7l-3.8,5.2l-5.5,1.3l-1.6-1.9l-3.1,1.3l-0.1,6.7l-2.7-0.5l-2.3,1.9l-2.2-4.9L476.2,432.4z"/>
	<path id="municipality297" d="M502,435.8l1.6-1.7l-1.4-6.8l0.9-1.7l0.8,0.2l8.8,3.9l3.4,2.2l3.2,0.9l1.9,2l0.7,4.3l1.6,2.1l-4.6,6.1l-6.2-4.1l-8.2-3.5l0.8-2L502,435.8z"/>
	<path id="municipality298" d="M502.1,427.2l1.4,6.8l-1.6,1.7l-3.3,2.6l1,3.5l-4.7,3.1l-1.8,4.2l-1.1-0.8l-1.8-6.7l-2.1-2l0.1-6.7l3.1-1.3l1.6,1.9l5.5-1.3L502.1,427.2z"/>
	<path id="municipality260" d="M438.9,522.4l-1.5-0.9l-1.5-4.7l1.9-0.4l-0.5-5l-6.9-3.7l-1.9-1.9l2.3-4.5l2.1-1.5l2.2,5.9l2.8-2.1l6.8,2l3.4-3.2l4.6,1l1.7,2.9l2.9,2.1l-4.9,4.5l-5.9,3.4L438.9,522.4z"/>
	<path id="municipality261" d="M342.9,502.1l-2.6,1.7l0.6,2.2l-3.2,0.9l-1.1,2.1l-4.9,2.3l-1.9,2.9l-4.7-2l-0.1-1.5l-6.1-1.3l-0.5-5.1l-5.1-2.6l-2.1,1.3h-1.4l-2-7.8l-2.1-4.7l5.9-1.3l1.2-2.4l6.8,0.8l0.1-4l4-1.6l3,2.3l6.5-3.3l1.3-5.6l2.5-2.1l-1.8-1.9l-0.4-4.2l3.6-0.8l2.4-1.9l5-0.2l6.2,1.3l6.1,3.5l1.3,2.5l-0.8,9.8l1.1,2.6l-4.8,6.2l-1.1-1.2l-5.3,2.4l-1.4,4.4l-2.8,2.9L342.9,502.1z"/>
	<path id="municipality262" d="M401,509.5l-4.4,0.9l-5.8,7.9l1.3,5l-6.2-0.8l-10.6-0.1l-8.5-1.2l-0.1-4.9l-1.9-0.1l-1.1-4.2l0.4-4.9l-5.5-4.7l-6.8-1.9l-8.6,1.7l1.3-3.5l2.8-2.9l1.4-4.4l5.3-2.4l1.1,1.2l4.8-6.2l5.6,1.8l1.2,1.4l11.5,2.4l3.8,4.1l4,1.1l3.2-1.9l1.7,2l4.4,0.3l-1,3.2l0.5,5.7l3.5-0.9L401,509.5z"/>
	<path id="municipality263" d="M366.7,521.2l-1.4,1.6l-7.9-1.4l-1.1,4.7l-3.1-2.5l0.7-3.1l-8.2-1.5l-3.8-3.2l-3.8,1.2l-6.7-0.7l-1.5-2.3l1.9-2.9l4.9-2.3l1.1-2.1l3.2-0.9l-0.6-2.2l2.6-1.7l8.6-1.7l6.8,1.9l5.5,4.7l-0.4,4.9l1.1,4.2l1.9,0.1L366.7,521.2z"/>
	<path id="municipality264" d="M404.3,532.9l-3.7-1.6l-4.8,0.6l-2.3-4.2l0.8-3.3l-2.3-1l-1.3-5l5.8-7.9l4.4-0.9l4.9,0.4l6.1,2.1l0.4,1.7l5.8-0.4l1,2.8l3.3,3.3l0.2,2.5l-2.6,1.4l-2.5-0.8l-2.5,3.8l-3.3,1.5l-2.2,4.8L404.3,532.9z"/>
	<path id="municipality265" d="M408.9,540.1l-2.1-1.9l-3.5-0.6l1-4.8l5.2-0.4l2.2-4.8l3.3-1.5l2.5-3.8l2.5,0.8l2.6-1.4l0.5,3.3l4.7,5.2l-0.8,1.1l-11.2,4.7L408.9,540.1z"/>
	<path id="municipality266" d="M404.3,532.9l-1,4.8l3.5,0.6l2.1,1.9l-6.5,0.5l-4.1-1.5l-5.4-0.8l-5.2,0.7l-3.5-3.5l-9.3-2.8l-2.9,0.1l-1.4,6.4l-2.1,4.1l-4.7-1.9l-7.9-5.4l-3.1-0.8l-0.9-4l3-1.2l1.4-3.8l1.1-4.7l7.9,1.4l1.4-1.6l8.5,1.2l10.6,0.1l6.2,0.8l2.3,1l-0.8,3.3l2.3,4.2l4.8-0.6L404.3,532.9z"/>
	<path id="municipality267" d="M291.7,527.5l-1.2-0.9l4.9-9.5l1.3-4.4l2.3-5.6l4.4-3.9l7.2,2.2l0.6-2.3l2.1-1.3l5.1,2.6l0.5,5.1l6.1,1.3l0.1,1.5l4.7,2l1.5,2.3l6.7,0.7l3.8-1.2l3.8,3.2l8.2,1.5l-0.7,3.1l3.1,2.5l-1.4,3.8l-3,1.2l0.9,4l-6.1,1.5l-1.1,4.3l-6.5-2.5l-3.2,2l-4-2.5l-10.6-3l-3.3-1.8l-0.4-2.7l-3.4-2l-4.4-0.1l-1.8-2h-5l-6.2,1.5L291.7,527.5z"/>
	<path id="municipality268" d="M343.9,554.7l2.2-1.2l-0.6-6l0.7-2.4l3.5-0.5l0.9-2.5l-5-1.1l1.1-4.3l6.1-1.5l3.1,0.8l7.9,5.4l4.7,1.9l-0.4,5l-4.4-0.2l-4.4,1.6l-0.5,2.8l-2.4,2.4l-0.5,2.6l-5.2-1.4l-1.9,0.5L343.9,554.7z"/>
	<path id="municipality269" d="M311.1,541.5l1.4-2.8l3.7-1.6l3.5-0.1l-1.7-3.8l3.3,1.8l10.6,3l4,2.5l3.2-2l6.5,2.5l5,1.1l-0.9,2.5l-3.5,0.5l-0.7,2.4l0.6,6l-2.2,1.2l-2-1.6l-5.9-1.4l-10.8-1.5l-6.2-1.7l0.2-3.5l-4.3-3.8L311.1,541.5z"/>
	<path id="municipality270" d="M488.9,477l-6.5,8.1l-6.5,6.2l-2-0.5l-2.2-4.1l-3.4,0.5l-5-4.1l-0.9-4.6l-7-2.1l5.5-2.9l2.2-6.4l2.8,1.4l2.3,1.5l1.2,3.6l4.1,0.1l5.8,2.7l4.4-3.7L488.9,477z"/>
	<path id="municipality271" d="M466.9,500l-7.6-6.3l-3.1,1l-4.8-3l-3.9-5.1v-3.3l1.4-1.8l-1.2-2.7l3.6-2.2l3.7-0.5l0.3,0.3l7,2.1l0.9,4.6l5,4.1l3.4-0.5l2.2,4.1l2,0.5l-5.1,5.7L466.9,500z"/>
	<path id="municipality272" d="M457.1,508.5l-2.9-2.1l-1.7-2.9l-4.6-1l-3.2-3.2l3.4-4.9l3.3-2.6l4.8,3l3.1-1l7.6,6.3l-8.5,5.6L457.1,508.5z"/>
	<path id="municipality273" d="M416.6,487.1l7.3-4.1l4.7,0.6l9.1,4.2l1.7-4.5l1.9-4.7l3.6,0.5v3.2l2.7,1v3.3l3.9,5.1l-3.3,2.6l-3.4,4.9l3.2,3.2l-3.4,3.2l-6.8-2l-2.8,2.1l-2.2-5.9l-2.1,1.5l-2.3,4.5l-4.3-2l-0.4-6.7l1-1.4l-5.3-2.1L416.6,487.1z"/>
	<path id="municipality274" d="M430.4,507.8l6.9,3.7l0.5,5l-1.9,0.4l1.5,4.7l1.5,0.9l-8.8,6.7l-2.3,1.2l-4.7-5.2l-0.5-3.3l-0.2-2.5l-3.3-3.3l3.7-2.4l4.5-0.9L430.4,507.8z"/>
	<path id="municipality276" d="M405.9,509.9l-0.7-2l1.5-4.5l-1.4-2l3.5-2.6l-0.8-2.3l4.6-5l-0.5-1.5l3.4-0.8l1.3-2.1l2.8,6.6l5.3,2.1l-1,1.4l0.4,6.7l4.3,2l1.9,1.9l-3.1,5l-4.5,0.9l-3.7,2.4l-1-2.8l-5.8,0.4L412,512L405.9,509.9z"/>
	<path id="municipality277" d="M398.3,485.4l3.7,3.4l5.9-0.6l4,2l0.5,1.5l-4.6,5l0.8,2.3l-3.5,2.6l1.4,2l-1.5,4.5l0.7,2l-4.9-0.4l-3-6.4l-3.5,0.9l-0.5-5.7l1-3.2l-4.4-0.3l-1.7-2l2-4.5L398.3,485.4z"/>
	<path id="municipality278" d="M359.6,483.8l-1.1-2.6l0.8-9.8l-1.3-2.5l-6.1-3.5l-6.2-1.3l-0.1-5.1l2-5.5l3.1-1.3l3.8,0.2l2-2.2l4.7-2.3l5.2-0.9l1.7-1.6l5,0.8l5.3,2.2l1,7.5l0.9,3.4l-5.1,3.9l5.6,5.7l6.7,2.5l4.7,3.5l2.3,4l4.1,1.9l-0.5,4.4l-7.5,2.9l-2,4.5l-3.2,1.9l-4-1.1l-3.8-4.1l-11.5-2.4l-1.2-1.4L359.6,483.8z"/>
	<path id="municipality279" d="M393.4,450.4l3.1,4.5l-1.9,3l1.1,2.1l5.9,0.5l1.4,5.9l6.1,2.5l4.2-0.6l-0.2,7.4l-3.2-0.5l-0.8,11.9l-1.1,1l-5.9,0.6l-3.7-3.4l0.5-4.4l-4.1-1.9l-2.3-4l-4.7-3.5L381,469l-5.6-5.7l5.1-3.9l-0.9-3.4l5.6-1.5l6.1,1.2L393.4,450.4z"/>
	<path id="municipality280" d="M393.4,450.4l5.3-2l1-1.9l5.9-1.4l6.4,1.6l1.9-1.4l0.6,3.1l-3,3.5l0.7,3l3.4-1.4l3.2,0.7l0.6,5.5l-3,3l1.1,1.5l-4.1,4.2l-4.2,0.6l-6.1-2.5l-1.4-5.9l-5.9-0.5l-1.1-2.1l1.9-3L393.4,450.4z"/>
	<path id="municipality281" d="M416.6,487.1l-1.3,2.1l-3.4,0.8l-4-2l1.1-1l0.8-11.9l3.2,0.5l0.2-7.4l4.1-4.2l1.4-0.5l8.2,9l1.3,2.1l5.5-0.6l2.6,4.4l-0.5,1.4l3.4,3.5l-1.7,4.5l-9.1-4.2l-4.7-0.6L416.6,487.1z"/>
	<path id="municipality282" d="M447.6,483.4l-2.7-1v-3.2l-3.6-0.5l-1.9,4.7l-3.4-3.5l0.5-1.4l-2.6-4.4l-5.5,0.6l-1.3-2.1l3,0.9l3.7-2.6l2.5,0.2l0.8-3.2l-1.1-3.1l1.2-1.8l2.8,1.9l5.2-0.5l2-2.1l3.7,5.8l4.3,2.1l-1,4.1l0.8,1.9l-3.7,0.5l-3.6,2.2l1.2,2.7L447.6,483.4z"/>
	<path id="municipality283" d="M418.8,454.2l2.8-3.3h3.5l2.6,3l1.4-2.2l3.1-1l4.1,2.9l1.3-5.9l3.7-1.7l1.7,0.5l-1.4,6l0.7,2l-3.9,1.4l-1.8,2.1l0.7,5l-1.2,1.8l1.1,3.1l-0.8,3.2l-2.5-0.2l-3.7,2.6l-3-0.9l-8.2-9l-1.4,0.5l-1.1-1.5l3-3L418.8,454.2z"/>
	<path id="municipality284" d="M465.7,468.6l-2.8-1.4l-2.2,6.4l-5.5,2.9l-0.3-0.3l-0.8-1.9l1-4.1l-4.3-2.1l-3.7-5.8l-0.4-3.7l7-0.7l2.3-1.1l3.4-3.8l3.2-1.1l3.7,4v2.8l-2.2,2.2L465.7,468.6z"/>
	<path id="municipality285" d="M443.1,446.5l3.5,0.4l4.3-1.2l1.9,1.1l4.6,3.3l4.3-0.4l1.4,2.1l-3.2,1.1l-3.4,3.8l-2.3,1.1l-7,0.7l0.4,3.7l-2,2.1l-5.2,0.5l-2.8-1.9l-0.7-5l1.8-2.1l3.9-1.4l-0.7-2L443.1,446.5z"/>
	<path id="municipality286" d="M466.7,455.8L466.7,455.8l-3.8-4l-1.4-2.1l-4.3,0.4l-4.6-3.3l1.7-3l-0.1-2.7l4.7-8.8l-0.5-6l-0.1-2.5l1.9-2.7l0.1-3l2.8-2.3l6.6,1.7l2.8,2.7l-0.3,5.7l4,6.6l-5,7.7l4.6,3.1l-1.7,3.7l-3.8,0.5l0.1,3L466.7,455.8z"/>
	<path id="municipality287" d="M435.4,413.9l2.7-0.5l5,7l4.9,4l4.3-0.5l0.7,1.5l5.5,0.9l0.5,6l-4.7,8.8l0.1,2.7l-1.7,3l-1.9-1.1l-4.3,1.2l-3.5-0.4l-1.7-0.5l-3.7,1.7l-1.3,5.9l-4.1-2.9l-1.1-2.9h-2.4l1.7-4.2l-2.4-5.3l-0.3-3.5l1.5-3.7l-1.9-0.7l-0.4-5.5l-2.3-1.1l-1-2.3l8.8-1.3L435.4,413.9z"/>
	<path id="municipality299" d="M368.1,548.2l0.4-5l2.1-4.1l1.4-6.4l2.9-0.1l9.3,2.8l3.5,3.5l-4.5,2.5l-1.9,2.3l-1.7,7.4l-6.1-0.7L368.1,548.2z"/>
</g>
<g id="province3">
	<path id="municipality363" d="M21.5,297l-1.9-5.6l-3-5.3l-0.7-4.4l-2.1-1.6l-1.8-4.2l-2.7-1.8L8,268.6l-3.4-3.1l0.9-2.4l3.5-1.1l3-2.3l1.4,0.8l2.3-4.7l-1.6-2l1.4-2.9l2.7-1.8l-0.1-2.9l6.2-2l3.5,3.3l0.6,4.3l3.7-0.8l2.5,5.3l-2.5,3.5l3,3.4l-0.4,5.4l-2.2,2.6l3.5,2.2l-0.1,6.2l2.5,11l-0.6,3.6l-6.1-1.2l1-2.7l-3.7-3.1l-4.6,3.3l-0.1,4L21.5,297z"/>
	<path id="municipality364" d="M27.4,316.6l-3.2-8.8L21.5,297l2.9-2.5l0.1-4l4.6-3.3l3.7,3.1l-1,2.7l6.1,1.2l0.6-3.6l-2.5-11l0.1-6.2l-3.5-2.2l2.2-2.6l5.6-0.9l0.6,2.5l9.6,0.2l3.7,3.8l4.6,1.4l2.2-1.2l7.8,0.4l3.3,4.6l-0.7,4.3l1.5,2.8l0.2,7.3l3.1-0.1l0.8,2.4l-0.5,6.9l1.5,5.6l-2.6,1.2l-3.8-0.2l-3.5,2.1l-4,0.6l-1-1.4l-3.6,0.5l-0.4,3.1l-6.4,2.4h-4.3l-4.1-1.6l-4-0.3l-2.6-2.3l-2.5,3l-4,2.1l-2-3.2L27.4,316.6z"/>
	<path id="municipality365" d="M45.4,356.2l-2.5-5.5l-2.6-3.6l-2.2-6l-2.8-4.2l-5-10.3l-2.9-9.9l2-2.1l2,3.2l4-2.1l2.5-3l2.6,2.3l4,0.3l4.1,1.6h4.3l6.4-2.4l0.4-3.1l3.6-0.5l1,1.4l4-0.6l3.5-2.1l3.8,0.2l2.6-1.2l1.8,0.5l-0.2,3.7l1.6,4.2l3.2,0.4v3.3l2.2,6.4l-2.4,5.6l-1.7,9l-4.9-2.8l-1.1-3.6l-3.2-0.4l-2.6-4.5l-2.2,0.5l-2.7,3l-1.4,4.8l-3.3,5.7l-3,1.1l-2.5-2.2l-2.6,0.1l-0.4,4.6l-3.5,0.2l1.4,3.2L45.4,356.2z"/>
	<path id="municipality366" d="M82.6,341.4l1.7-9l2.4-5.6l6.7-3.2l2.2,1.5l5.2,0.7l3.6,2.3l4.8,0.2l6.2-3.9l-0.7-7l2.9-2l1.2-3l-2-3l4-3.5l-0.6-4l8.8-1.3l2.6,3.7l2.3-3l2.1,0.3l-1.1,7.9l2.6,4.4l3-1.5l1.7-3l10.5-7.9l2.4,3.6l-3.7,4.9l4.7,3.9l-1.9,2.1l-2.5,1.7l-0.7,6.1l-2,1.6l-5.8,1.6l-9.7-3.5l-1.5,7.4l-2.8,3.2l1.1,2.9l-3,7.1l2.4,3.1l-2.2,2.1l-1.2,4.9l1.6,3.5l4.5,0.5l1.4,4l-1,10.8l1.6,1.9l-1.5,2.4l2.7,4.5l-8.6-0.8l-2.9,7l-0.1,2.6l-3.5,0.1l-0.4,3.6l-6.7,7.1l-4.2,0.6l-5.6,2.9l-0.5,5.9l-2.4,1.7l-1.3-4l0.3-3.4l-2.7-6.8l2.6-1.4l0.7-5l-3.7-3.6l-11.5-5.1l1.9-3l-0.7-3.3l0.7-6.5l-3.3-6.3l1-1.9l-2.2-2.5l0.1-4.5l-1.1-4.9l2.3-1.2L82.6,341.4z"/>
	<path id="municipality367" d="M149,325.3l4.4,1.2l2.8,7.6l-1.2,1.7l4.7,5.1l2.3,3.6l-0.3,6l0.8,2.3l5,1.4l-1.5,2l-0.2,3.6l4.6,0.8l3.7,4.6l-0.5,3.6l3,0.5l1.6,2.8l-3,2.1l4.2,4.5l4.8-0.2l-1.1,4.8l-3,1.7l0.8,2.2l-2.5,4.2l-0.7,3.2l-4.4,2.7l-5.1-1l-1.5-1.5l-3.4,0.7l0.8,3.2l-8,3.2l-3.6,3.7l-4,5.7l-3.1-0.6l-3.7,0.9l-1.6,2.7l1.2,3.1l-3.1,4.7l-4.3-0.7L129,422l-4.3-5l-3.5-1.9l-2.8-9.3l4.5-10.3l-2.8-1.4l0.4-3.6l3.5-0.1l0.1-2.6l2.9-7l8.6,0.8l-2.7-4.5l1.5-2.4l-1.6-1.9l1-10.8l-1.4-4l-4.5-0.5l-1.6-3.5l1.2-4.9l2.2-2.1l-2.4-3.1l3-7.1l-1.1-2.9l2.8-3.2l1.5-7.4l9.7,3.5L149,325.3z"/>
	<path id="municipality368" d="M68.9,274.7l6.7-2.1l6.5,0.9l2.2,2.4l3.5,1.6l5.2-2.2l-1.4-3.6l0.9-2.3l4.3-0.2l2.6-1.9l0.6-3l3.4,3.3l1.4,5l3.5,1.6l-6.3,7.8l0.8,6.4l4.3,5.6l0.7,5.5l-5.5,0.9l-0.4,4.1l2.6,2.4l7-0.5l3.5,3.2l1.6-0.2l2,3l-1.2,3l-2.9,2l0.7,7l-6.2,3.9l-4.8-0.2l-3.6-2.3l-5.2-0.7l-2.2-1.5l-6.7,3.2l-2.2-6.4v-3.3l-3.2-0.4l-1.6-4.2l0.2-3.7l-1.8-0.5l-1.5-5.6l0.5-6.9l-0.8-2.4l-3.1,0.1l-0.2-7.3l-1.5-2.8l0.7-4.3L68.9,274.7z"/>
	<path id="municipality369" d="M257.8,365.9l-2,5.5l0.1,5.1l-5,0.2l-2.4,1.9l-3.6,0.8l-2.6,0.7l-1.3-2.8l-4.7,3.8l-5-6.9l-6.8,2.1l-6.1,1l-2.2,5.3l-2.9,2.8l-8.7-4.9l-8.8-0.5l1.3-3l-9.6-5.1l-3.4,6.6l-4.8,0.2l-4.2-4.5l3-2.1l-1.6-2.8l-3-0.5l0.5-3.6l-3.7-4.6l-4.6-0.8l0.2-3.6l1.5-2l0.9-1.2h4.6l4.9-1.9l2.5,1.4l-0.2,3.1l3.5,1.3l8-1.4l1.7-1.3l-1.1-3.2l6.3-1.9l3.7-0.2l3.5-2.5l5,0.1l1.7-2l3.6,4.6h3.1l2.4,2.9l3.5-3.1l4.5-1.9l3.2,0.3l3.1-1.5l4,1.7l4.6,4.7l0.5,5l2.6,1.4l1,3.9l3.8,2.3l0.4,2.1L257.8,365.9z"/>
	<path id="municipality370" d="M260.3,341.7l1-4.7l3.8-8.7l2.5-4.1l2.2-1.7l2.7,4.4l8.5,8.4l2.2-0.7l2.8,2.3l0.4,5.6l1.3,2l-1.4,5.5l0.4,2l-3.2,4.1l0.1,2.4l-5-0.8l-1.7,1.6l-5.2,0.9l-4.7,2.3l-2,2.2l-3.8-0.2l-3.1,1.3l8-13.9l-2-6.1L260.3,341.7z"/>
	<path id="municipality371" d="M212.4,344.4l-1.3-1l-0.1-5.4l1-3l4.6-1l-0.4-5.1l-7.3-0.8l-0.5-5.1l4.1-2.9l2.9-4.2l-0.7-3.7l1.7-1.2l3.5,5.9l4.6-0.3l4.5,3.1l4.1-1.5l2,3.3l5.5,5.2l8.1,4l-0.1,4.8l5.6,2.7l2.7,2.6l3.3,0.8l3.5,4.3l2,6.1l-8,13.9l-5.2,0.9l-0.4-2.1l-3.8-2.3l-1-3.9l-2.6-1.4l-0.5-5l-4.6-4.7l-4-1.7l-3.1,1.5l-3.2-0.3l-4.5,1.9l-3.5,3.1l-2.4-2.9H216L212.4,344.4z"/>
	<path id="municipality372" d="M149,325.3l2-1.6l0.7-6.1l2.5-1.7l5.7-1.9l2.5,1.6l5.9-1.3l4.3,1.2l2.6-1.3l3.1,0.5l0.6,1.9l5.5,2.4l2.8,2.6l5.2-0.2l1.7-1.1l2.6,1.5l1.3-2.5l3.1-1.8l5.9,1.6l1.4,4.1l0.5,5.1l7.3,0.8l0.4,5.1l-4.6,1l-1,3l0.1,5.4l1.3,1l-1.7,2l-5-0.1l-3.5,2.5l-3.7,0.2l-6.3,1.9l1.1,3.2l-1.7,1.3l-8,1.4l-3.5-1.3l0.2-3.1l-2.5-1.4l-4.9,1.9h-4.6l-0.9,1.2l-5-1.4l-0.8-2.3l0.3-6l-2.3-3.6l-4.7-5.1l1.2-1.7l-2.8-7.6L149,325.3z"/>
	<path id="municipality373" d="M265,315.7l3.2,6.2l1.5,0.6l-2.2,1.7l-2.5,4.1l-3.8,8.7l-1,4.7l-3.3-0.8l-2.7-2.6l-5.6-2.7l0.1-4.8l-8.1-4l-5.5-5.2l3.1,0.5l0.2-3.8l2.9-0.5l0.5-3.2l4.3-0.1l2.6-1.4l0.7-2.4l4.8-1.1l0.5-2l6.2,5.8L265,315.7z"/>
	<path id="municipality374" d="M235.2,321.5l-2-3.3l-4.1,1.5l-4.5-3.1l-4.6,0.3l-3.5-5.9l3.3-0.2l-1.9-3.8l1.9-2.1l-3.4-3.3l-0.2-3.6l8.2-10.6l2.6-2l2-3.9l2,1.3l0.3,2.9l4.7,3.4l2.1,3.9l0.2,3.1l6.4,2l1.6-0.6l4.7,4.8l2,4.9l1.9,0.8l-0.5,2l-4.8,1.1l-0.7,2.4l-2.6,1.4l-4.3,0.1l-0.5,3.2l-2.9,0.5l-0.2,3.8L235.2,321.5z"/>
	<path id="municipality375" d="M208.4,323l-1.4-4.1l-5.9-1.6l-3.1,1.8l-1.3,2.5l-2.6-1.5l-1.7,1.1l-5.2,0.2l-2.8-2.6l-5.5-2.4l-0.6-1.9l-0.1-3.7l-6.2-2.2l-2.8-2.4l3.4-5.4l-1.4-2.4l3.6-3.8l-1.7-1.9l4.1-4.3l-4.3-6.4l3.7-3l1-2.5l3,0.2l4.1,5.3l1.3,0.9l0.4,7l2.2-0.1l0.5-3l2.7-3.5l6,0.2l1.4,4.2l5.3,0.6l-0.7-5.2l7.5,1.8l2.9-1.4l4.9,0.4l0.9,2.4l-4.9,4.2l1.1,7.2l0.2,3.6l3.4,3.3l-1.9,2.1l1.9,3.8l-3.3,0.2l-1.7,1.2l0.7,3.7l-2.9,4.2L208.4,323z"/>
	<path id="municipality376" d="M261.7,279.5L251,302l-4.7-4.8l-1.6,0.6l-6.4-2l-0.2-3.1l-2.1-3.9l-4.7-3.4l-0.3-2.9l-2-1.3l-2,3.9l-2.6,2l-8.2,10.6l-1.1-7.2l4.9-4.2L219,284l-4.9-0.4l-2.9,1.4l-7.5-1.8l0.7,5.2l-5.3-0.6l-1.4-4.2l-6-0.2l-2.7,3.5l-0.5,3l-2.2,0.1l-0.4-7l-1.3-0.9l-2.3-6.6l-3.1-2.6l2.5-2.8l10.6-11.3l2,1.9l6.4,0.8l2.1,2.1l10.4,0.6l2.9-1.4l2.2,3.3l2.7-0.5l1,2.1l4.1,1.9l2.5-1.4l2.6-4.3l1.5-2.1l4.8,4l1.3-1.3l5.2-0.2l-1.7,3.1l1.4,3.3l5,2l-1.1,1.7l5,2.2l4.4,3.5L261.7,279.5z"/>
	<path id="municipality377" d="M128.2,237.9l-4.4,2.2l-0.7-4.4l-2.9,2.2l-4.8-2.7v-28.6V178v-21.2l-0.1-26.4l3.7,4l2.8,0.5l5.6,4.8l2,5.7l3,3.2l-0.1,1.8l5,8.7l-0.5,3.4l4.8,8.9l-0.7,1.9l1.4,4.4l-6.7,10.5l-0.8,12.3l1.7,2.6l2.7,0.2l1.7-1.6l2.8,3.2l0.2,3.9l2.3-0.2l-0.8,4.9l2,0.7l-1,3.7l-2.2,3.1l-8.4,5.8l-2,4.2l-6.2,4.8L128.2,237.9z"/>
	<path id="municipality378" d="M115.3,235.1l4.8,2.7l2.9-2.2l0.7,4.4l4.4-2.2l4.6,6.4l0.7,5.2l7,6.1l6.7,3.2l7.6,9.5l-4.2,4.3l3.9,3.5l-1.2,2.8l3,2.1l-0.2,3.1l-3.8,3.8l2.9,3.5l-0.1,3.8l-2.3,6.2l-10.5,7.9l-1.7,3l-3,1.5l-2.6-4.4l1.1-7.9l-2.1-0.3l-2.3,3l-2.6-3.7l-8.8,1.3l0.6,4l-4,3.5l-1.6,0.2l-3.5-3.2l-7,0.5l-2.6-2.4l0.4-4.1l5.5-0.9l-0.7-5.5l-4.3-5.6l-0.8-6.4l6.3-7.8l-3.5-1.6l-1.4-5l-3.4-3.3l1.2-2l3.8-0.4l1.9-1.5l8.3-2.1L115.3,235.1z"/>
	<path id="municipality379" d="M154.7,268.3l-7.6-9.5l-6.7-3.2l-7-6.1l-0.7-5.2l-4.6-6.4l-0.7-2.2l6.2-4.8l2-4.2l8.4-5.8l2.2-3.1l1-3.7l-2-0.7l0.8-4.9l-2.3,0.2l-0.2-3.9l-2.8-3.2l2.1-0.9l7.7,2.7l8.5-1.8l9.1,1.4l3.1-3.2l2.5,3.2l1.4,3.4l2.6,2.3v3v14.5l-2.6,1l2.6,6.9l-0.4,2l-6.2,5.7l0.7,4l-4,4.6l2,0.9l0.8,4.2l2,1.1l-3.1,3.3l-4,2.7l-8.4,2.9L154.7,268.3z"/>
	<path id="municipality380" d="M184.5,282.1l-4.1-5.3l-3-0.2l-1,2.5l-3.7,3l4.3,6.4l-4.1,4.3l1.7,1.9l-3.6,3.8l1.4,2.4l-3.4,5.4l2.8,2.4l6.2,2.2l0.1,3.7l-3.1-0.5l-2.6,1.3l-4.3-1.2l-5.9,1.3l-2.5-1.6l-5.7,1.9l1.9-2.1l-4.7-3.9l3.7-4.9l-2.4-3.6l2.3-6.2l0.1-3.8l-2.9-3.5l3.8-3.8l0.2-3.1l-3-2.1l1.2-2.8l-3.9-3.5l4.2-4.3l2.5-2.8l8.4-2.9l4-2.7l3.1-3.3l2,1.5l0.8,3.4l6.1,8.6l-2.5,2.8l3.1,2.6L184.5,282.1z"/>
	<path id="municipality381" d="M181.6,270.1l-6.1-8.6l-0.8-3.4l-2-1.5l-2-1.1l-0.8-4.2l-2-0.9l4-4.6l-0.7-4l6.2-5.7l0.4-2l-2.6-6.9l2.6-1v-14.5l3.9-1.3l2.6,0.8l3.6-0.6l0.5,6.5l4.6,0.6l4.1-0.5l1.9,3l-0.4,3.7l1.4,3.4l-0.5,4.9l3.7,5.1l-1.4,5.4l5-3.4l2.8-1.1l2.3,1.1l0.4,2.6l7.8-0.8l2.5,5.1l2.6,0.3l-3.9,6.7l-0.3,3.2l5.6,2.8l-0.8,2.4l5.1,2.5l-2.6,4.3l-2.5,1.4l-4.1-1.9l-1-2.1l-2.7,0.5l-2.2-3.3l-2.9,1.4l-10.4-0.6l-2.1-2.1l-6.4-0.8l-2-1.9L181.6,270.1z"/>
	<path id="municipality383" d="M262.8,259l5.4-0.7l-2.2,7l2.3,0.7l-3.1,6.5l-3.4,7l-4.9,0.6l-4.4-3.5l-5-2.2l1.1-1.7l-5-2l-1.4-3.3l1.7-3.1l2.6-2.9l4.1,1.6l2.3,2.3l3.5,1.6l2.7-2.7l-0.1-3.6l2.5,0.6L262.8,259z"/>
	<path id="municipality384" d="M262.8,259l-1.2,2.3l-2.5-0.6l0.1,3.6l-2.7,2.7l-3.5-1.6l-2.3-2.3l-4.1-1.6l-2.6,2.9l-5.2,0.2l-1.3,1.3l-4.8-4l2.3-4.9l-0.4-2l2.4-7.4l-3.1-1.5l1.4-2.4l-7.9-4.8l2-1.6l14.5-3.4l9.2-2l1.5,3.6l-2.9,4.5l3.3,2.5l2.1,3.9l3.8,3.9l2.5,5.6L262.8,259z"/>
	<path id="municipality385" d="M259.4,239.7l3.2,0.7l1.7,2.5l2.7-0.5l2.8,4.7l2.4-1.4l-4,12.6l-5.4,0.7l0.3-3.2l-2.5-5.6l-3.8-3.9l3-3.4L259.4,239.7z"/>
	<path id="municipality382" d="M232.5,261.8l-1.5,2.1l-5.1-2.5l0.8-2.4l-5.6-2.8l0.3-3.2l3.9-6.7l-2.6-0.3l-2.5-5.1l2.6,0.5l4.3-2.7l7.9,4.8l-1.4,2.4l3.1,1.5l-2.4,7.4l0.4,2L232.5,261.8z"/>
	<path id="municipality386" d="M272.8,232.5l-6.8,8.1l1,1.7l-2.7,0.5l-1.7-2.5l-3.2-0.7l2.6-2.7l-1.3-1.3l1-5.2l3.4,2l6.2-0.8L272.8,232.5z"/>
	<path id="municipality360" d="M217.9,220.8l-2.3,1.8l-11.8-1l0.2,5.4l-4,0.2l-1.4-3.4l0.4-3.7l-1.9-3l-4.1,0.5l-4.6-0.6l-0.5-6.5l-3.6,0.6l-2.6-0.8l-3.9,1.3v-3l-2.6-2.3l-1.4-3.4l-2.5-3.2l-0.2-3.3l5.2-0.3l2.9-1.2l6.2-10.1l3.7-0.9l1.7-3.4h4.2l2.3-3.5l2.2-0.1l0.2,10.1l2.9,1.5l1.2-2.1l2-8.6l2.5-1.9l2.5,0.3l0.7-4l9.4,0.8l-1,2.9l-3.8-1.3l-0.5,2.2l2.9,0.9l-2.8,4.5l1.9,2.4l-0.5,5.1l6.1,1.6l3.8,3l-3,4.3l8.5,3.5l2.9,1.7l3.7,0.1l2.1,5.6l-2,1.5l-2.4,5.4l3.7,2.5l-2.4,3l-3.8,2.4l-1.5,2.6l-4.9-2.8l-1.4-4.8l-2.8-1.6l-2.6,0.3l-6.8-5.7l-1.9,2.3l4.1,5.6L217.9,220.8z"/>
	<path id="municipality362" d="M200,227.2l4-0.2l-0.2-5.4l11.8,1l2.3-1.8l2.6,3.4l-3.4,1.9l0.7,6.9l-4,0.5l-2.3,4.1l0.4,1.6l-2.3-1.1l-2.8,1.1l-5,3.4l1.4-5.4l-3.7-5.1L200,227.2z"/>
	<path id="municipality361" d="M240.6,219.3l2.2,1l-0.9,2.7l-0.2,6.1l2.1,0.6l-0.2,4.1l-14.5,3.4l-2,1.6l-4.3,2.7l-2.6-0.5l-7.8,0.8l-0.4-2.6l-0.4-1.6l2.3-4.1l4-0.5l-0.7-6.9l3.4-1.9l-2.6-3.4l-1.2-0.2l-4.1-5.6l1.9-2.3l6.8,5.7l2.6-0.3l2.8,1.6l1.4,4.8l4.9,2.8l1.5-2.6l3.8-2.4L240.6,219.3z"/>
</g>
<g id="province4">
	<path id="municipality460" d="M477.3,363.9l-4-2.3l-6.2-5.8l-1.9-0.8l-2-4.9l10.7-22.6l3.4-7l4.9,4.1l4-1.3l0.8,1.9l4-1.9l4.7,0.4l4.3-2.3l6.8,1.9L506,327l0.7,7.8l-4-0.1l-4.1,3l1.1,3.2l-0.9,5.8l-4.7,3.8l-1.4-2.5l-2.8,1.1l-1.2-3.3l-4.7,3.7l-1.9,0.4l0.7,9.6l-2.4,0.3l-1,3.7L477.3,363.9z"/>
	<path id="municipality461" d="M523.6,383.6l-3.7-3.5l-5.9,2l-6.1,5l-4.6-0.6l-0.8-2.4l-4.3,1.1l-2.8-2.3l-2.2,0.7l-8.5-8.4l-2.7-4.4l-1.5-0.6l-3.2-6.2l2.2-0.4l1-3.7l2.4-0.3l-0.7-9.6l1.9-0.4l4.7-3.7l1.2,3.3l2.8-1.1l1.4,2.5l4.7-3.8l0.9-5.8l-1.1-3.2l4.1-3l4,0.1l7.9,1.7l1.3,5.2l1.4,2.2l4.1-0.1l2.3,1.7v2.6l3.1,0.7l1.3,1.7l-1.1,2.8l-4.3,3.4l-1.9,3.7l2.2,3.5l-3.6,4.7l0.7,3.8l4.9,8.4L523.6,383.6z"/>
	<path id="municipality462" d="M523.6,383.6l1.3-2.7l-4.9-8.4l-0.7-3.8l3.6-4.7l-2.2-3.5l1.9-3.7l4.3-3.4l1.1-2.8l-1.3-1.7l5.2-1.6l2.4,2.2l1,3.3l3.7,0.5l-1.4,3.7l2.8,4.5l-0.2,2.3l4.1,2.9l3.7-1.2l0.8-1.8l3.9-1.5l2.5,2.6l0.9,3.3l2.1-0.2l-0.5,6.7l-2.9,6.4l-8.8,1.3l1,2.3l-2.8,2.2l-4-0.7l-3.4,1.6l-6.9-2l-1.9-2.3L523.6,383.6z"/>
	<path id="municipality463" d="M526.8,348.8l-3.1-0.7v-2.6l-2.3-1.7l2.6-1.8l5,0.7l4.4-5.6l5.6,5.8l3.5-0.2l3.5,2.7l4,2l-3.5,3.1l2.6,2.4l3.7,9.1l-3.9,1.5l-0.8,1.8l-3.7,1.2l-4.1-2.9l0.2-2.3l-2.8-4.5l1.4-3.7l-3.7-0.5l-1-3.3l-2.4-2.2L526.8,348.8z"/>
	<path id="municipality464" d="M551.8,319.9l-1-1.8l-3.8-0.5l-3.7,0.9l-2.9,5.7l-3.2,5.2l-2.5-0.5l-2.1-3.3l-3-0.7l-2.2,1.5l-2.1-3.1l-3.2-0.7l-3.4-2.7l-2.8,0.9l-4.8-2.5l3.1-5.1l1.7-1.1l3.6-1l2.2-3.2l6.7-3.6l-0.4-2l5.8-0.2l0.9-3.1l7.7,0.2l2.4,1.9l2.3,4.3l2.2,0.1l1.6,5.6l1.7,0.7L551.8,319.9z"/>
	<path id="municipality465" d="M484.5,293.9l1.9-3.1l5.8-6.7h1.4l0.8,2l5.2,4.8l3.4,1.9l-1.3,2.4l4.6,2.6l-1.4,1.2l1.1,5.3l3.7,4.2l6.8,1.1l-0.8,2.7l-1.7,1.1l-3.1,5.1l-0.7,3.9l-3.4,1.4l-6.8-1.9l-4.3,2.3l-4.7-0.4l-4,1.9l-0.8-1.9l-4,1.3l-4.9-4.1l3.1-6.5l-2.3-0.7l2.2-7L484.5,293.9z"/>
	<path id="municipality466" d="M517.1,281.1l1.6,3.8l2.9,2.3l-0.9,4.1l7,3.2l1.7,4.3l-1.4,3.6l0.4,2l-6.7,3.6l-2.2,3.2l-3.6,1l0.8-2.7l-6.8-1.1l-3.7-4.2l-1.1-5.3l1.4-1.2l-4.6-2.6l1.3-2.4l-3.4-1.9l-5.2-4.8l-0.8-2l4.9-3.5l11-4.5l3,1.3L517.1,281.1z"/>
	<path id="municipality467" d="M528,302.4l1.4-3.6l-1.7-4.3l1.8-0.5l2.4-7.2l0.4-5.3l2.4-2.3l3.2,1.2l3.7-3.8l2.9-2.3l2,2.7l-1.4,3.4l2.3,1.9l0.2,3.9l3.3,2.6l1.1-1.2l5.2,1.2l0.1,2.4l2.2,1.7l-2,4.3l0.5,1.5l-3.5,2.5l-1.9-1.1l-4.7,1.5l-0.9,3.6l-2.3-4.3l-2.4-1.9l-7.7-0.2l-0.9,3.1L528,302.4z"/>
	<path id="municipality468" d="M527.9,262.1l3.2-2.3l1.7,2.7l1.9-0.4l2.9,2.1l0.6,5.8l1.3,4.1l2.2,2.7l-3.7,3.8l-3.2-1.2l-2.4,2.3l-0.4,5.3l-2.4,7.2l-1.8,0.5l-7-3.2l0.9-4.1l-2.9-2.3l-1.6-3.8l-0.7-1.4l2.2-3.7l3.2-1.8l1.3-3.4l4.9-0.3l2.3-5L527.9,262.1z"/>
	<path id="municipality469" d="M580.4,318.5l-2.3,3.8l-3.5-0.3l-5.8,2.9l-2.5,5.8l-3.8-3.4l-1.6-5l-2.4-0.1l-6.7-2.3l0.8-8.1l-1.7-0.7l-1.6-5.6l-2.2-0.1l0.9-3.6l4.7-1.5l1.9,1.1l3.5-2.5l5.7,2.5l0.8-3.8l3.4-4.8l1.7,0.8l0.9,6.6l2.3,4l-1.6,3.5l0.8,3.3l2.1,0.2l4.3,2.5L580.4,318.5z"/>
	<path id="municipality470" d="M580.4,318.5l-1.9-5.1l-4.3-2.5l-2.1-0.2l-0.8-3.3l1.6-3.5l-2.3-4l6.4-0.6l1.1-1.9l4.8-2.5l2.9,0.4l1.4-2.1l7.7-1.5l5,0.2l0.3-1.6l1.7,0.3l-0.8,4.9l-1.7,3.9l-1.9,0.6l-2.3,7l2.2,1.7l-0.7,3l-6.8,1.6l-1.9,2.6l-5.8,0.2L580.4,318.5z"/>
	<path id="municipality471" d="M572.9,283.9l-0.8-4.1l4.7-1.4l6.2-5.3l2,0.6l0.2,2.6l5.3-2.3l2.6,3.2l7.2,0.1l1.2,3.1l-0.4,7.1l-0.9,3.1l-0.3,1.6l-5-0.2l-7.7,1.5l-1.4,2.1l-2.9-0.4l-4.8,2.5l-1.1,1.9l-6.4,0.6l-0.9-6.6l-1.7-0.8l1.1-4l4.2,0.2L572.9,283.9z"/>
	<path id="municipality472" d="M604.4,318.6l-2.5-2.5l-2.8-1.1l-2.3-3.1l0.7-3l-2.2-1.7l2.3-7l1.9-0.6l1.7-3.9l3.4,0.5l3.7-2.2l8.5-2.7l1.3,2.7l2.8,0.2l5,3.9l-1.7,2.7l-4.2,3.8l-4,1.9l-3.5,5l-5,0.3L604.4,318.6z"/>
	<path id="municipality473" d="M608.9,256.4l3.8,5.1l2.9,0.5l5.9,3.1l6.2,8.8l4.3-2.2l-1.7,1l2.4,4.1l-2.2,4l-1,9.2l-1.9,3.1l1.5,3.4l-1.4,3.5l-3.4,0.8l1.7-2.7l-5-3.9l-2.8-0.2l-1.3-2.7l-8.5,2.7l-3.7,2.2l-3.4-0.5l0.8-4.9l-1.7-0.3l0.9-3.1l0.4-7.1l-1.2-3.1l1.3-4.8l3-0.7l3.9-9.7L608.9,256.4z"/>
	<path id="municipality474" d="M540.3,324.2l2.9-5.7l3.7-0.9l3.8,0.5l1,1.8l6.7,2.3l2.4,0.1l1.6,5l3.8,3.4l-3.1,3.1l-0.1,1.8l-5.5,7.3l-2.9,2.8l-4.7,1.7l-4-2l-2.5-12.1l4.1-3.9l-2.8-1.8l-0.5-2.9L540.3,324.2z"/>
	<path id="municipality475" d="M558.2,252.9l-1.5,3.9l1.5,3.2l-0.4,6.3l-5.1-0.5l-1.3,4.2l1.9,2.7l6.6,0.3l-0.2,3.1l1.3,2.1l3.1-0.5l2,2.2l-2.3,2l2.1,2.3l7.1-0.5l0.3,5.1l-4.2-0.2l-1.1,4l-3.4,4.8l-0.8,3.8l-5.7-2.5l-0.5-1.5l2-4.3l-2.2-1.7l-0.1-2.4l-5.2-1.2l-1.1,1.2l-3.3-2.6l-0.2-3.9l-2.3-1.9l1.4-3.4l-2-2.7l-2.9,2.3l-2.2-2.7l-1.3-4.1l-0.6-5.8l-2.9-2.1l-1.9,0.4l-1.7-2.7l3.1-3.6l7.6-2.9l2.5-0.9l2.1,1.4l3.1-0.2l1.9,1.4l4.1-4L558.2,252.9z"/>
	<path id="municipality477" d="M558.2,252.9l3.8-2.5l2.5-3.4l4,0.8l-0.2,2.8l2.9,5.4l3.9-1.1l1.4,2.7l2.8,0.2l1.9,3.2l4.3,1.7l-1.2,3.6l1.7,2.5l-1,4.9l-2-0.6l-6.2,5.3l-4.7,1.4l0.8,4.1l-7.1,0.5l-2.1-2.3l2.3-2l-2-2.2l-3.1,0.5l-1.3-2.1l0.2-3.1l-6.6-0.3l-1.9-2.7l1.3-4.2l5.1,0.5l0.4-6.3l-1.5-3.2L558.2,252.9z"/>
	<path id="municipality478" d="M584.8,252.1l1.7,2l2.9-0.3l0.7,2.6l-3.1,1.1l-1.5,5.2l-4.3-1.7l-1.9-3.2l-2.8-0.2l-1.4-2.7l-3.9,1.1l-2.9-5.4l0.2-2.8l4.9-0.5l2.1-2.5l1.8,0.9l0.2,2.4l3.5,4.2L584.8,252.1z"/>
	<path id="municipality479" d="M585.1,273.6l1-4.9l-1.7-2.5l1.2-3.6l1.5-5.2l3.1-1.1l2.3-1.2l3.1,2.3l1.9-2.9l5.2,3l3.1-0.7l3.2-0.3l-0.3,5.5l-3.9,9.7l-3,0.7l-1.3,4.8l-7.2-0.1l-2.6-3.2l-5.3,2.3L585.1,273.6z"/>
	<path id="municipality499" d="M546,345.4l-3.5-2.7l-3.5,0.2l-5.6-5.8l-4.4,5.6l-5-0.7l-2.6,1.8l-4.1,0.1l-1.4-2.2l-1.3-5.2l-7.9-1.7L506,327l0.8-3.6l3.4-1.4l0.7-3.9l4.8,2.5l2.8-0.9l3.4,2.7l3.2,0.7l2.1,3.1l2.2-1.5l3,0.7l2.1,3.3l2.5,0.5l3.2-5.2l4,0.4l0.5,2.9l2.8,1.8l-4.1,3.9L546,345.4z"/>
</g>
<g id="province5">
	<path id="municipality599" d="M711.7,330.7l-0.4-3.7l-2.6-3.3l-0.2-3.6l3.3-4l1.6-1.8l3.6,2l7.9-3.1l2.9,1.2l-4.6,9.1l0.7,1.9l-5,5.9l-4.2,8.2l-2.3-2.6l4.3-4.2l-1.4-2.2L711.7,330.7z"/>
	<path id="municipality560" d="M704.6,332.8l2.2,0.1l1.8,1.9l3.1-4.1l3.4-0.2l1.4,2.2l-4.3,4.2l-1.2,4.5l-2.8,2.9l-2.5-2.7l-5,0.1l1.7-3.8l1.8-1.4L704.6,332.8z"/>
	<path id="municipality561" d="M712.3,336.9l2.3,2.6l-4.2,8.5l-2-3.7l2.8-2.9L712.3,336.9z"/>
	<path id="municipality503" d="M708.9,350l-4.9,0.6l-2.6,2.5l-4,0.4l-2.6-1.1l-2.5-5.7l1.8-2.3h2.8l3.8-2.7l5-0.1l2.5,2.7l2,3.7L708.9,350z"/>
	<path id="municipality504" d="M694.9,352.4l-5.5,7.2l-3.4-2.2l-8.8-3.9l2.2-3.3l4.4-1.9l5.4,2l3.2-3.6L694.9,352.4z"/>
	<path id="municipality505" d="M694.5,362.5l-1.9-2l-3.2-0.9l5.5-7.2l2.6,1.1l4-0.4l-2,2.1l0.2,2.9L694.5,362.5z"/>
	<path id="municipality566" d="M694,316.4l5.6-1.5l2.4-1.6h2.1l3.4,2.7l-1.4,3.1l-3,1.6l-0.8-0.8l-6.8-0.2l-1.9,0.9l-0.2-1.9L694,316.4z"/>
	<path id="municipality506" d="M708.9,350l-5.6,9.7l-6.6,9.2l-1.6-2.1l-0.7-4.3l5.2-4.4l-0.2-2.9l2-2.1l2.6-2.5L708.9,350z"/>
	<path id="municipality562" d="M713.3,314.3l-1.6,1.8l-1.7-2.5l-2.4,2.5l-3.4-2.7H702l-1.4-3.5l0.2-3.8l-1.6-1l1.9-5.2l2.6,3.5l3.2-1.5l1.7,1.4l5.9-2.1l3.4,2.8l0.1,3.3l-4.1,3.5L713.3,314.3z"/>
	<path id="municipality563" d="M681,308.3l10.1-3.8l3.4-1.9l2.7,0.2l2.1,2.1l1.6,1l-0.2,3.8l1.4,3.5l-2.4,1.6l-5.6,1.5l-5.9-3.4l-3-2.7L681,308.3z"/>
	<path id="municipality564" d="M683.1,301.3l3.1,0.4l2.3-3.4l3.1-2.2l1.8-3.4l4.5,0.6l1.8-2.5l1.2,1.1l1.5,4.4l-1.2,3.4l-1.9,5.2l-2.1-2.1l-2.7-0.2l-3.4,1.9l-10.1,3.8l-2.3,0.2l-3.4-2.4l3.2-3.3l1.3,1.8l3.2-0.5L683.1,301.3z"/>
	<path id="municipality565" d="M680.9,318.1L678,318l-0.5-3l-2.6-0.1l-6-3.2l3.2-2l1.6-3.7l1.6-0.1l3.4,2.4l2.3-0.2l4.1,2l3,2.7l5.9,3.4l-0.6,2.4l-2.2,1.2l-8.5-3.4L680.9,318.1z"/>
	<path id="municipality567" d="M711.7,316.1l-3.3,4l0.2,3.6l2.6,3.3l0.4,3.7l-3.1,4.1l-1.8-1.9l-1.3-8.9l-2.3-3.3l3-1.6l1.4-3.1l2.4-2.5L711.7,316.1z"/>
	<path id="municipality568" d="M704.6,332.8l-1.5,0.7l-3.6-3.5l-2.2,0.4l-3.3-1.5l-2.2-3.9l1.7-4.3l1.9-0.9l6.8,0.2l0.8,0.8l2.3,3.3l1.3,8.9L704.6,332.8z"/>
	<path id="municipality514" d="M671.2,271.6l4.2-3.8l3.4-0.8l1.4-3.5l8.5-2.4l1.7,3.9l-0.4,1.9l3.1,4.2l-3.3,7.3l0.2,3l-6.7,3.3l-2.9,0.3l-3.2-2.9l-0.1-3.3l-1.4-3.5L671.2,271.6z"/>
	<path id="municipality569" d="M690,281.3l-0.2-3l3.3-7.3l1.9-0.6l3.1,2.4l3.2,2.3l-3.7,3.5l1.5,5.6l-3.9,0.5L690,281.3z"/>
	<path id="municipality570" d="M681.6,288.1l1.7-3.5l6.7-3.3l5.2,3.6l3.9-0.5l0.6,6.5l-1.8,2.5l-4.5-0.6l-1.8,3.4l-3.1,2.2l-2.3,3.4l-3.1-0.4l0.2-6.5l1.7-2.9L681.6,288.1z"/>
	<path id="municipality571" d="M655.5,285.8l3.1-7l5-0.3l3.5-5l4-1.9l4.5,3.6l1.4,3.5l0.1,3.3l3.2,2.9l2.9-0.3l-1.7,3.5l-5.2,3.6l-2.1,5.5l-3.7,1.5l-3-1.5l-1.4-2.3l-4.4-3.8l-4.3-2.1L655.5,285.8z"/>
	<path id="municipality573" d="M675.3,306.1l-1.6,0.1l-3.1-7.4l3.7-1.5l2.1-5.5l5.2-3.6l3.4,3.8l-1.7,2.9l-0.2,6.5L683,304l-3.2,0.5l-1.3-1.8L675.3,306.1z"/>
	<path id="municipality574" d="M699.8,256.7l2.9-0.8l1.4,1.6l4.3,1.2l-1.7,5.7l-0.3,3.3l-4.8,0.1l-3.7,5l-3.1-2.4l-1.9,0.6l-3.1-4.2l0.4-1.9l4.4-0.3L699.8,256.7z"/>
	<path id="municipality575" d="M720.3,263.5l3.1,2l-3.3,4l0.7,3.3l-4.1,2l-0.4,4.2l-2.8,3l-1.9-0.8l0.4-3.6l-1.4-4.7l-3.3-2.6l-0.8-2.5l0.3-3.3l1.7-5.7l1-2.7l0.4,3.6l2.3,3.3l5.5-0.5L720.3,263.5z"/>
	<path id="municipality576" d="M700.8,292l-1.2-1.1l-0.6-6.5l-1.5-5.6l3.7-3.5l-3.2-2.3l3.7-5l4.8-0.1l0.8,2.5l3.3,2.6l1.4,4.7l-0.4,3.6l-0.7,2.8l2.6,2.8l-1.7,4.1l-1.7-1.2l-5.3,0.1L700.8,292z"/>
	<path id="municipality577" d="M700.8,292l3.9-2.4l5.3-0.1l1.7,1.2l1.7-4.1l1.1-1.6l6.8,1.8l0.2,1.8l-2.3,1.8l1.9,2.2l1.4,3.9h-2.8l-2.3,2.4l3.8,2.8l-0.1,1.6l-3.2,0.2l-3.4-2.8l-5.9,2.1l-1.7-1.4l-3.2,1.5l-2.6-3.5l1.2-3.4L700.8,292z"/>
	<path id="municipality524" d="M687.5,236.8l0.7,6.8l5,5.2l4,0.2l-0.1,2l-6.5,3.9L688,258l-7.4-1l1-9.2l2.2-4l-2.4-4.1l1.7-1l2.6-2.3L687.5,236.8z"/>
	<path id="municipality525" d="M687.5,236.8l7.9,0.2l6.8-4.4l2.5,2.1l1.9,4.5l2.4,1.5l2.5,6.3l-2,9l-1,2.7l-4.3-1.2l-1.4-1.6l-2.9,0.8l-0.4-4.8l-2.2-0.9l0.1-2l-4-0.2l-5-5.2L687.5,236.8z"/>
	<path id="municipality526" d="M680.2,263.5l-1.5-3.4l1.9-3.1l7.4,1l2.7-3.2l6.5-3.9l2.2,0.9l0.4,4.8l-5,8l-4.4,0.3l-1.7-3.9L680.2,263.5z"/>
	<path id="municipality578" d="M711.4,247.1l-2.5-6.3l-2.4-1.5l-1.9-4.5l2.4-0.4l5.6-1.2l3.8,2.4l2.9-1.6l1,1.9l4.6-0.8l1.2,0.9l0.5,3l-2.2,2.5l-1.3,3.7l-2.8-0.2L711.4,247.1z"/>
	<path id="municipality579" d="M751.6,245l-4.6,0.2l-1.1,2.8l-5.6,2.5l-2.4,2.2l0.2-5.9l-6.9-5.6l-1.3,2.4l-6.5,1.5l1.3-3.7l2.2-2.5l-0.5-3l4.2-4.2l6.8,2.5l15.1,0.1l1.4,6.8L751.6,245z"/>
	<path id="municipality529" d="M737.8,252.7l-0.7,0.7l-4.4,4l-1.2,2.4l-5.2-0.1l-4.6-1.3l-1.4,5.2l-2.6-1l-5.5,0.5l-2.3-3.3l-0.4-3.6l2-9l9.2-2.1l2.8,0.2l6.5-1.5l1.3-2.4l6.9,5.6L737.8,252.7z"/>
	<path id="municipality580" d="M754,255.9l-2.6,3l-4,0.9l-0.4,6.3l-2.3,0.1L742,265l-1.9-2.7l-2.7,0.2l-0.8-5l0.4-4.2l0.7-0.7l2.4-2.2l5.6-2.5l1.1-2.8l4.6-0.2l1.4,9.4L754,255.9z"/>
	<path id="municipality581" d="M744.7,266.1l-1,5.4l-3.4,0.5l-2.8,3l-5.5-0.8l-2.5,0.5l-2.8,3.2l-4.4-4.5l-1.7-0.7l-0.7-3.3l3.3-4l-3.1-2l1.4-5.2l4.6,1.3l5.2,0.1l1.2-2.4l4.4-4l-0.4,4.2l0.8,5l2.7-0.2l1.9,2.7L744.7,266.1z"/>
	<path id="municipality582" d="M763.9,218.2l18.7,0.6l-1.5,8.7L776,241l0.1,1.3l-10.3,1.6l0.1-3.6l-4.7,0.9L760,240l1.2-4.5l-1.4-5.2l2.7-6.4L763.9,218.2z"/>
	<path id="municipality583" d="M765.7,243.8l-2.2,5.9l-9.5,6.2l-0.1-0.1l-1.1-1.5l-1.4-9.4l2.2-3.8l-1.4-6.8l-0.1-7.1l1.3-10.4l2.4-0.5l7.9,1.8l-1.4,5.8l-2.7,6.4l1.4,5.2L760,240l1.1,1.1l4.7-0.9L765.7,243.8z"/>
	<path id="municipality584" d="M758.7,263.1l0.8-4.2l-1-3.3l-4.5,0.3l9.5-6.2l2.2-5.9l10.3-1.6l-2.2,8.7l-1.6,12.1l-5.3-0.8l-2.9-2l-1.4,2.7L758.7,263.1z"/>
	<path id="municipality585" d="M758.7,263.1l-1.9-0.5l-2.9,3.6l-1.5,4.6l-0.6,2l-3.9,0.8l-3,0.2l-1.2-2.2l1-5.4l2.3-0.1l0.4-6.3l4-0.9l2.6-3l0.1,0.1l4.5-0.3l1,3.3L758.7,263.1z"/>
	<path id="municipality586" d="M752.5,270.8l1.5-4.6l2.9-3.6l1.9,0.5l3.8-0.2l1.4-2.7l2.9,2l5.3,0.8l-4.1,9.1l-2.2,3.1l-3.4,1.5l-2.9-2.1l-6.9-2.5L752.5,270.8z"/>
	<path id="municipality587" d="M750.4,280.7l-2.3-4.8l-0.1-2.3l3.9-0.8l0.6-2l0.3,1.3l6.9,2.5l2.9,2.1l3.4-1.5l-1.4,3.3l-7,6.9l-3.8-4.1L750.4,280.7z"/>
	<path id="municipality538" d="M745.6,285.3l2.6-1.4l2.1-3.2l3.4,0.6l3.8,4.1l-3.6,3.7l-6.7,2.9l-1.5-3.4L745.6,285.3z"/>
	<path id="municipality588" d="M748,273.6l0.1,2.3l2.3,4.8l-2.1,3.2l-2.6,1.4l-2.2-2.1l-3.5,0.2l-2.2-4l2.3-4l0.2-3.3l3.4-0.5l1.2,2.2L748,273.6z"/>
	<path id="municipality589" d="M745.6,285.3l0.2,3.3l1.5,3.4l-4.4,3.9l-4.6,0.1l-2.2-2.3l-2.2,0.2l-2.2,5.5l-1,0.5l-3.5-3.2l-4.5-6.1l5.9-4l4-0.5l3.2-0.4l4.1-2.1l3.5-0.2L745.6,285.3z"/>
	<path id="municipality590" d="M732.7,285.9l-4.6-4.5l-1.3-3.5l2.8-3.2l2.5-0.5l5.5,0.8l2.8-3l-0.2,3.3l-2.3,4l2.2,4l-4.1,2.1L732.7,285.9z"/>
	<path id="municipality542" d="M713.5,286.8l-2.6-2.8l0.7-2.8l1.9,0.8l2.8-3l0.4-4.2l4.1-2l1.7,0.7l4.4,4.5l1.3,3.5l4.6,4.5l-4,0.5l-5.9,4l-1.1-1.6l-0.2-1.8l-6.8-1.8L713.5,286.8z"/>
	<path id="municipality591" d="M731.8,299.3l2.2-5.5l2.2-0.2l2.2,2.3l4.6-0.1l-6.2,7l-3.3-0.1L731.8,299.3z"/>
	<path id="municipality592" d="M727.7,314.3l-2.9-1.2l-1.3-1.8l4.1-4.8l-0.5-3.4l2.1-2.8l1.7-0.6l1-0.5l1.6,3.5l3.3,0.1l-4.2,4.7L727.7,314.3z"/>
	<path id="municipality593" d="M724.8,313.2l-7.9,3.1l-3.6-2l0.7-3.7l4.1-3.5l-0.1-3.3l3.2-0.2l3.4,2.8l1.6-5l3-1l-2.1,2.8l0.5,3.4l-4.1,4.8L724.8,313.2z"/>
	<path id="municipality546" d="M721.3,303.5l0.1-1.6l-3.8-2.8l2.3-2.4h2.8l-1.4-3.9l-1.9-2.2l2.3-1.8l1.1,1.6l4.5,6.1l3.5,3.2l-1.7,0.6l-3,1l-1.6,5L721.3,303.5z"/>
	<path id="municipality594" d="M674.4,328.5l5.5-3l-0.2-6l1.3-1.4l1.7-1.4l8.5,3.4l2.2-1.2l0.2,1.9l-1.7,4.3l2.2,3.9l-0.5,2.9l-2.5-0.2l-2.6,2.3l-2.3,0.2l-2.5-2l-3.1,0.7l-1.3-1.6L674.4,328.5z"/>
	<path id="municipality595" d="M680.9,318.1l-1.3,1.4l0.2,6l-5.5,3l-1.9,0.1l-7.7-2l-1.2-3.1l1.6-5.6l3-0.8l1.3-2.3l-0.6-3l6,3.2l2.6,0.1l0.5,3L680.9,318.1z"/>
	<path id="municipality596" d="M679.5,350.1l-2.2,3.3l-0.8-0.2l-1-1.1l-4.3,1.1l-7.4-1.6l1.9-6.2l3.4-2l-0.1-2.1l-5.2-2.1l-0.6-5.8l-3.2-3.6l4.8-3.2l7.7,2l1.9,2.6l-2.8,4.2l4.3,2.4L675,342l2.3,2.3L679.5,350.1z"/>
	<path id="municipality597" d="M700.8,341.6l-3.8,2.7h-2.8l-5.2-4.5l-3-5.8l2.3-0.2l2.6-2.3l2.5,0.2l0.5-2.9l3.3,1.5l2.2-0.4l3.6,3.5l1.5-0.7l-0.3,3.6l-1.8,1.4L700.8,341.6z"/>
	<path id="municipality598" d="M694.2,344.3l-1.8,2.3l-3.2,3.6l-5.4-2l-4.4,1.9l-2.1-5.7L675,342l0.8-4.2l-4.3-2.4l2.8-4.2l-1.9-2.6l1.9-0.1l4.8,2.5l1.3,1.6l3.1-0.7l2.5,2l3,5.8L694.2,344.3z"/>
</g>
<g id="province6">
	<path id="municipality660" d="M402.4,87.7v1l-7.9,2.1l-2.3-1.3l0.6-3.3l-5.2-5.4l-0.1-4.7l3.8,1l1.2-1.5l8.6,3.2l-3.8,5.4l3.4,0.2L402.4,87.7z"/>
	<path id="municipality661" d="M387.6,76.1l0.1,4.7l5.2,5.4l-0.6,3.3l-0.8,1.5l2.8,2.2l-2.5,4.2l0.1,7.8l-2,1.5l-4.8,1.2l-3.1-3.4l-3.5,1.9l-1-7.3l4.6,0.4l-0.8-6l-3.2-1.9l0.1-2.7l-2.9-1.8l1.9-3.2l-0.1-4.1l1.7,0.6l1.7-3.8L387.6,76.1z"/>
	<path id="municipality675" d="M355.9,114.5l5.2-0.6l2.5,1.2l3.6-0.7l6,1.2l-2.2,1l1.2,4.8l-4.4,3.3l1.4,4.5l-2.3,0.6l-5.7,0.4l-5.9,2.6h-2.5l-2.3-3.3l-5.3-1.2l0.7-3.4l2.8-1.8l0.4-3.1l-1.2-2.5l2.6-1.3l-0.4-2.5l2.8-0.6L355.9,114.5z"/>
	<path id="municipality662" d="M362,90.4l11.3-2.2l2-1.3l2.9,1.8l-0.1,2.7l3.2,1.9l0.8,6l-4.6-0.4l1,7.3l-2.2,0.6l-1.1,7.7l-2,0.9l-6-1.2l-0.2-3.1l1.4-4.7l-2.3-1.5l0.8-4.9l-4.5-7.1L362,90.4z"/>
	<path id="municipality664" d="M377.1,79.7l0.1,4.1l-1.9,3.2l-2,1.3L362,90.4l-7.6-1l-3.5,3l-4.4,1.9l-2.7-0.9l1.4-6.4l-1.9-0.2l0.4-8.2l1.3-8.2l5.1,0.1l4,2.5l0.9-1.5l6.3-2.2l1.9,3.8l5.8,2.7l-0.7,2.4l3.5,0.3l0.7,1.6L377.1,79.7z"/>
	<path id="municipality665" d="M312.7,120.9l-1.6,2.4l-2.3-0.6l-2.3,2.2l-1.7,4.7l-3.2,1.1l-2.3-5.6l-4.2,0.2l-2.9-6.6l1.2-1.7l-4.3-8.2l-6.3-4.5l0.7-1.4l6.2,2.6l6.3-0.6l4.6-2.9l4.2,1.5l5.3,0.1l-2.3,3.5l4.4,2.9l3,3.7l-1.4,1.4l0.9,3.9L312.7,120.9z"/>
	<path id="municipality666" d="M311.5,141.5l-1.9,0.9l-2-2.9l-2.4,2.4l-2.5-1.2l2.5-6.1l-0.3-5l1.7-4.7l2.3-2.2l2.3,0.6l1.6-2.4l2.5,3.8l1.3-1.8l3.4-1.1l1.8-2.4l3.5-0.9l1.9,4.1l-0.7,1.4l4.6,3.1l2.7,0.5v4.1l4.6,0.3l0.7,3.6l-4.9,2.8l-1.2,3.2l-2.3-0.2l-5.3,2.8l-0.7-1.3l-4.5,2.2L311.5,141.5z"/>
	<path id="municipality667" d="M312.7,120.9l2-1.9l-0.9-3.9l1.4-1.4l-3-3.7l-4.4-2.9l2.3-3.5l7.5-4.5l1.5-3.5l5.2-0.5l1.6,4.9l1.3,0.3l6.5-2l0.5,3l-1.2,2.2l1.4,2.2l-5.9,2.9l-3.8-0.4l-0.5,4.1l-2.3,7.2l-1.8,2.4l-3.4,1.1l-1.3,1.8L312.7,120.9z"/>
	<path id="municipality668" d="M321.8,119.5l2.3-7.2l0.5-4.1l3.8,0.4l5.9-2.9l-1.4-2.2l1.2-2.2l4.7-2.1l4.2,1.7l2,1.8l3.7,1.3l2,3l4,2.9l1.1,4.6l-3.1-1.3l-2.8,0.6l0.4,2.5l-2.6,1.3l1.2,2.5l-0.4,3.1l-2.8,1.8l-0.7,3.4l-2.3,0.6l-4.3,3l-4.6-0.3v-4.1l-2.7-0.5l-4.6-3.1l0.7-1.4l-1.9-4.1L321.8,119.5z"/>
	<path id="municipality669" d="M345.1,102.7l-2-1.8l-4.2-1.7l-4.7,2.1l-0.5-3l-6.5,2l-1.3-0.3l-1.6-4.9l-5.2,0.5l3.1-9.7l4.6-12.7l-0.6-4.5l16.7-4.1l0.5,0.3l1.6,5.6l-1.3,8.2l-0.4,8.2l1.9,0.2l-1.4,6.4l2.7,0.9l0.2,5.3L345.1,102.7z"/>
	<path id="municipality663" d="M367.2,114.4l-3.6,0.7l-2.5-1.2l-5.2,0.6l-1.1-4.6l-4-2.9l-2-3l-3.7-1.3l1.6-3.1l-0.2-5.3l4.4-1.9l3.5-3l7.6,1l0.4,2.6l4.5,7.1l-0.8,4.9l2.3,1.5l-1.4,4.7L367.2,114.4z"/>
	<path id="municipality670" d="M292.2,118.7l2.9,6.6l4.2-0.2l2.3,5.6l3.2-1.1l0.3,5l-2.5,6.1l2.5,1.2l2.4-2.4l2,2.9l1.9-0.9l-1.8,5.4l-6.8,0.1l1.4,5l-2.4,1.4l-2.2-3.8l-3.5,3l-3.7,5.4l-2.4-3.4l-3.5,2l1,1.9l-5,2.8l-2.4-5.3l1.1-2.1l-2.9-4.6l-1.7-4.3l0.3-2.7l15.7-8.4l-3.8-5.5l-1.7,1l-2-4l4.4-2.5l-1.3-2.1L292.2,118.7z"/>
	<path id="municipality671" d="M299.7,164.8l-3.6-4.5l-3.4,0.3l-0.2-2.6l3.7-5.4l3.5-3l2.2,3.8l2.4-1.4l-1.4-5l6.8-0.1l1.8-5.4l8.8,3.6l0.7,4.7l-1.6,3.1l1.5,5.3l-6.7,2l-6.1,0.5l-5.6,2L299.7,164.8z"/>
	<path id="municipality672" d="M299.7,164.8l2.5,4.7L301,171l-1.5-0.7l-6.2,0.8l-3.4-2l-1,5.2l1.3,1.3l-2.6,2.7l0.4,3.2l-3,3.4l-2.1-3.9l-3.3-2.5l2.9-4.5l-1.5-3.6l-9.2,2l0.2-4.1l-2.1-0.6l0.2-6.1l0.9-2.7l-2.2-1l-3.7-2.5l2.4-5.4l2-1.5l2.9-1.4l2.9,3.9l3-1.5l2.9,4.6l-1.1,2.1l2.4,5.3l5-2.8l-1-1.9l3.5-2l2.4,3.4l0.2,2.6l3.4-0.3L299.7,164.8z"/>
	<path id="municipality673" d="M309.6,174.3h-1.4l-5.8,6.7l-1.9,3.1l-2.4,1.4l-2.8-4.7l-1-1.7l6.8-8.1l1.3-1.5l-2.5-4.7l2.7-2.1l5.6-2l6.1-0.5l6.7-2l-1.5-5.3l4.3,0.8l1.6,5.4l-2.2,6l2.4,1.2l-11,4.5L309.6,174.3z"/>
	<path id="municipality674" d="M283.5,102.8l-0.7,1.4l6.3,4.5l4.3,8.2l-1.2,1.7l-4,2.2l1.3,2.1l-4.4,2.5l2,4l1.7-1l3.8,5.5l-15.7,8.4l-0.3,2.7l1.7,4.3l-3,1.5l-2.9-3.9l-2.9,1.4l-2.1-5.6l-3.7-0.1l-2.9-1.7l-8.5-3.5l3-4.3l-3.8-3l-6.1-1.6l0.5-5.1L244,121l2.8-4.5l-2.9-0.9l0.5-2.2l3.8,1.3l1-2.9l-9.4-0.8l-0.7,4l-2.5-0.3l-2.5,1.9l-2,8.6l-1.2,2.1l-2.9-1.5l-0.2-10.1l-2.2,0.1l2.8-3.6l0.5-5.7l3.6-8.4l-1.2-1.1l1.5-3.4l3.5-4.8l6.7-2.2l5.2,0.3l4.4,1.6l2.9,2.3l5.1,2.5l4.5,5.5l3.1,0.8l5.9-1l2.6,3.2l3.2,1.8L283.5,102.8z"/>
	<path id="municipality676" d="M355.2,132.8l5.9-2.6l5.7-0.4l2.6,3.9l4.3-0.9l5.9,1.3l0.7,3.2l-2.5,3.4l-3.8,2.5l-2.6-1.9l-4.1,4l-1.9-1.4l-3.1,0.2l-2.1-1.4l-2.5,0.9l1-3.1l-4.1-0.3L355.2,132.8z"/>
	<path id="municipality677" d="M333.1,141.6l1.2-3.2l4.9-2.8l-0.7-3.6l4.3-3l2.3-0.6l5.3,1.2l2.3,3.3h2.5l-0.5,7.3l4.1,0.3l-1,3.1l-7.6,2.9l-3.1,3.6l-3.2,2.3l-7.1-9.2L333.1,141.6z"/>
	<path id="municipality678" d="M343.8,152.4l2.4,3.3l-2.3,5l-4.9,0.3l-1.3,3.4l-3.2,1.8l-2.2,3.7l0.7,1.4l-4.6-3.8l-3-1.3l-2.4-1.2l2.2-6l-1.6-5.4l-4.3-0.8l1.6-3.1l-0.7-4.7l4.5-2.2l0.7,1.3l5.3-2.8l2.3,0.2l3.5,1.6L343.8,152.4z"/>
</g>
<g id="province7">
	<path id="municipality797" d="M448.2,190.7l-4.5-0.7l-0.3-2.6l1.7-3.3l-0.3-2.8l2.2-2.8l-0.8-1.8l0.7-4.1l7.1,0.2l3,4.9l0.7,4l-0.3,6.4l-2.1,2.7l-5.5-2.8L448.2,190.7z"/>
	<path id="municipality760" d="M437.8,193.8l2.9,1l-0.6,3.1l1.1,2l-1.8-0.9l-2.1,2.5l-4.9,0.5l-4-0.8l-0.7-3.2l0.4-1.4l2.8,0.1l0.2-3l2.6-3.7l-0.1,2.2L437.8,193.8z"/>
	<path id="municipality761" d="M443.4,187.3l0.3,2.6l4.5,0.7l1.6,2.3l-2.9,2.6l3.2,3.4l3.7-0.7l0.2,3.7l-5.1,4.3l-3.9,0.2l-3.5-4.2l-0.2-2.4l-1.1-2l0.6-3.1l-2.9-1l-0.6-2.8l1.4-3L443.4,187.3z"/>
	<path id="municipality762" d="M467.5,187.3l-2.3,6.2l-3.8-0.3l-7.6,5.1l-3.7,0.7l-3.2-3.4l2.9-2.6l-1.6-2.3l1.7-2.7l5.5,2.8l2.1-2.7l0.3-6.4l0.1,1.7l5.6,4H467.5z"/>
	<path id="municipality763" d="M438.1,170.6l1.1,1.9l-0.6,3.9l-2,1.2l-2.4,5.2l-1.7-0.5l-0.4-2.9l-7.5-0.8l-1.3-0.1l1.1-7.7l2.2-0.6l3.5-1.9l3.1,3.4L438.1,170.6z"/>
	<path id="municipality764" d="M432.5,182.4l0.8,2.8l-3.7-0.9l-3.2,1.7l-1.7-2l-0.2-5.3l7.5,0.8L432.5,182.4z"/>
	<path id="municipality765" d="M433.4,185.2l2,2.9l-1.6,1.9l-2.6,3.7l-0.2,3l-2.8-0.1l0.8-4l-1.6-1.2l-1-5.3l3.2-1.7L433.4,185.2z"/>
	<path id="municipality766" d="M428.2,196.6l-0.4,1.4l-5.9-1.3l-4.3,0.9l-2.6-3.9l2.3-0.6l-1.4-4.5l4.4-3.3l-1.2-4.8l2.2-1l2-0.9l1.3,0.1l0.2,5.3l1.7,2l1,5.3l1.6,1.2L428.2,196.6z"/>
	<path id="municipality798" d="M433.4,185.2l-0.8-2.8l1.7,0.5l2.4-5.2l2-1.2l0.6-3.9l5.6,1l2.2-0.9l-0.7,4.1l0.8,1.8l-2.2,2.8l0.3,2.8l-1.7,3.3l-4.8,0.6l-1.4,3l0.6,2.8l-4-1.5l0.1-2.2l1.6-1.9L433.4,185.2z"/>
	<path id="municipality799" d="M447,172.7l-2.2,0.9l-5.6-1l-1.1-1.9l2-1.5l-0.1-7.8l2.5-4.2l-2.8-2.2l0.8-1.5l2.3,1.3l7.9-2.1v-1l6.4-0.1l0.3-1.8l4.6-0.7l-0.2-3.1l2.9-1.2l1,2.6l-1.1,3.6l-3.7,1.5l0.1,6.6l1.9,5.3l5,0.3l0.2-6.3l4.9,5.5l-2.2,5.7l0.1,1.9l-1.7,3.4l-2.8,1l-5-1.2l-1.7,3.1l-2.3,0.2l-3-4.9L447,172.7z"/>
</g>
<g id="province8">
	<path id="municipality860" d="M683.8,121.8l2.6,1l1.3,4.2l2.3,2.2l8.6-0.2l-0.4,2.2l-4.7,9.7l-4.1,5.2l-1,3.3l-2.5-0.6l-0.6-1.4l1.7-3.9l-4.1-2.6l-1-1.8l-3.1,0.9l-4.2-2.1l-4.7,1.7l-4.6-0.4l-2.9,1.2l-5.1-1.9l0.2-2.9l2.1-4.9l-0.5-3.5l2.5,1.5l8.5-3.5l2.6,4.2l2.6-1.3l7.1-5.8L683.8,121.8z"/>
	<path id="municipality861" d="M686,148.7l-4.9,0.7l-2.9,1.8l2.9,3.7l-3.2,3.2l-3.7,0.6l-2.8,1.7l-3.5,0.3l-0.8-3.5l-3.6-1.3l-1,2.5l-3.8,1l-0.7-4.6l-5.6-1.4l-0.7-3.5l0.3-1.7l-5-4.5l2.3-3.4l4-0.3l4.3-1.9l5.1,1.9l2.9-1.2l4.6,0.4l4.7-1.7l4.2,2.1l3.1-0.9l1,1.8l4.1,2.6l-1.7,3.9L686,148.7z"/>
	<path id="municipality862" d="M671.4,160.5l2.8-1.7l3.7-0.6l3.2-3.2l-2.9-3.7l2.9-1.8l4.9-0.7l2.5,0.6l-0.2,7.3l0.7,4.6l5,2.3l-0.5,2.9l5.9,7.3l3.9,1.4l-4.2,4.2l-1.2-0.9l-4.6,0.8l-1-1.9l-2.9,1.6l-3.8-2.4l-5.6,1.2l-2.4-3.8l-3.8-0.8l2.2-5.7l-3.2-0.2L671.4,160.5z"/>
	<path id="municipality863" d="M680,177.7l-2.4,0.4l-2.5-2.1l-6.8,4.4l-7.9-0.2l-1.8-0.2l-2.6,2.3l-4.3,2.2l-6.2-8.8l4.1-2.4l2.2-3.9l1.4-4.6l-0.2-2.6l5.8-2.4l3.8-1l1-2.5l3.6,1.3l0.8,3.5l3.5-0.3l1.4,6.7l3.2,0.2l-2.2,5.7l3.8,0.8L680,177.7z"/>
	<path id="municipality864" d="M651.7,150.2l0.7,3.5l5.6,1.4l0.7,4.6l-5.8,2.4l0.2,2.6l-1.4,4.6l-2.2,3.9l-4.1,2.4l-5.9-3.1l-2.9-0.5l-3.8-5.1l-3.2,0.3l-1.9-3.3l2-2.8l-1.1-3l1.6-1.6l-2.4-5l2.8,1.5l1.4,2.6l7.8,1.1l-0.5-2.1l7.4-0.4l0.8-3.2L651.7,150.2z"/>
	<path id="municipality865" d="M627.9,151.5l2.4,5l-1.6,1.6l1.1,3l-2,2.8l1.9,3.3l-3.1,0.7l-5.2-3l-1.9,2.9l-3.1-2.3l-2.3,1.2l-0.7-2.6l-2.9,0.3l-1.7-2l5.1-4.3l-0.2-3.7l7.6-5.1l3.8,0.3L627.9,151.5z"/>
	<path id="municipality866" d="M627.9,151.5l-2.9-1.8l2.3-6.2l1.5-2.9l3.1-0.7l1.5-0.4l2.8,5.5l1.6-1.2l5-0.1l1.7-5l3.2-1.2l1.5,2.9L647,144l5,4.5l-0.3,1.7l-4.1,0.9l-0.8,3.2l-7.4,0.4l0.5,2.1l-7.8-1.1l-1.4-2.6L627.9,151.5z"/>
	<path id="municipality867" d="M631.9,140l-3.1,0.7l-1.5,2.9h-4l-5.6-4l-0.1-1.7l-0.7-4l2.3-0.2l1.7-3.1l5,1.2l2.8-1l1.7-3.4l0.4,3.4l-1.1,4.4l2.5,0.7L631.9,140z"/>
	<path id="municipality868" d="M644.5,138.8l-1.7,5l-5,0.1l-1.6,1.2l-2.8-5.5l-1.5,0.4l0.5-4.1l-2.5-0.7l1.1-4.4l-0.4-3.4l-0.1-1.9l2.2-5.7l3.4-0.1l5.3,3.1l1.2,1.6l2.3,9.4L644.5,138.8z"/>
	<path id="municipality869" d="M641.4,122.9l0.5-2.2l-3.3-4.1l5.1-5.4l4.9,0.5l2,5.5l4-0.3l3.5,4.5l-0.8,5.1l1.9,0.5l0.5,3.5l-2.1,4.9l-0.2,2.9l-4.3,1.9l-4,0.3l-1.5-2.9l-3.2,1.2l0.4-4.9l-2.3-9.4L641.4,122.9z"/>
	<path id="municipality870" d="M677.6,109.1l1,3.7l2.6,1l3.1,6.6l-0.5,1.4l-1.1,0.2l-7.1,5.8l-2.6,1.3l-2.6-4.2l-8.5,3.5l-2.5-1.5l-1.9-0.5l0.8-5.1l-3.5-4.5l-4,0.3l-2-5.5l4.8-1.7l3,1l3.7-2.2h3.2l1.1,1l3.7-4.2l1.5,1l1.2,5.4l3.8,2.1L677.6,109.1z"/>
	<path id="municipality871" d="M643.7,111.2l-5.1,5.4l3.3,4.1l-0.5,2.2l-5.3-3.1l-3.4,0.1l-4.9-5.5l-0.2,6.3l-5-0.3l-1.9-5.3l-0.1-6.6l3.7-1.5l1.6,1.4l3.4-3.2l4.2,0.5l4.2,1.9l3,2.5L643.7,111.2z"/>
	<path id="municipality873" d="M690.8,81.3l1.4,9.2l2.7,1.1l0.6,6.6l-2.6,3.4l-0.8,2.7l1.9,2.8l-3,3.2l-5.6-0.8l-2.3-2.6l-3.1,2.2l-2.6-0.2l-3.1,5.1l-3.8-2.1l-1.2-5.4l-1.5-1l-3.7,4.2l-1.1-1l0.6-3.7l-1-4.8l5.2,1.1l1.4-9.3h7.3l0.8,2l5.8-2L686,87l0.3-7.1l0.9-1.3L690.8,81.3z"/>
	<path id="municipality874" d="M703.7,118.2l-2.9,1.2L694,118l-4.3-1.5l-2.8,3.1l-0.5,3.2l-2.6-1l0.5-1.4l-3.1-6.6l-2.6-1l-1-3.7l2.6,0.2l3.1-2.2l2.3,2.6l5.6,0.8l3-3.2l-1.9-2.8l0.8-2.7l2.6-3.4l1.1-1.2l5.9,0.8l2.1-1.9l7.7-0.1l1.5,1l-0.8,1.2l1.3,8.5l-2.8,6.6l-7.4,2.7L703.7,118.2z"/>
	<path id="municipality872" d="M636,100.9l-2.3,1.1l-0.3,3.8l-4.2-0.5l-3.4,3.2l-1.6-1.4l1.1-3.6l-1-2.6l-2.9,1.2l-3.6,0.3l-2.3,1.7l-2.6-1.6l2.9-2.3l5-1.1l-0.9-1.9l3.4-1.7l1.4-1.5l5.1-0.3l-1,1.9l2.5,3.9l3.1-0.1L636,100.9z"/>
	<path id="municipality875" d="M704.6,122.8l-5.9,6.2l-8.6,0.2l-2.3-2.2l-1.3-4.2l0.5-3.2l2.8-3.1l4.3,1.5l6.8,1.4l2.9-1.2L704.6,122.8z"/>
	<path id="municipality876" d="M704.6,122.8l-0.9-4.6l0.4-2.3l7.4-2.7l2.8-6.6l-1.3-8.5l0.8-1.2l3.3-1.2l3.3,3.7l6.5,4.2l-0.5,7l-1.1,2.5l0.8,6.5l-2.3,6.8l1.3,3.9l-3.3,1.6l-14-9.7L704.6,122.8z"/>
	<path id="municipality877" d="M695.5,98.2l-0.6-6.6l-2.7-1.1l-1.4-9.2l2.7,1.5l8.3-0.9l0.8-2l-2.9-4.2l-3.2-1.8l0.2-7.9l4.1-2l1.8,2.3l5.5-1.5l5.2,0.1l5.4-2.5h3.7l0.7,6.8l2.5,4.1l0.8,5.2l-0.5,8.1l1.1,17l-6.5-4.2l-3.3-3.7l-3.3,1.2l-1.5-1l-7.7,0.1l-2.1,1.9l-5.9-0.8L695.5,98.2z"/>
</g>
<g id="province9">
	<path id="municipality970" d="M516.2,54.1l1.6-4.6l2.1-1.1l1.2,1.6l6.6,2.1l2,4.4l-3.7,1.4l-2.2,7.3l1.9,0.6l-1,3.2l-1.9,0.7l-3.8-5.3l-2.4-1l-2.5,0.8L516.2,54.1z"/>
	<path id="municipality982" d="M506.4,49.3l4.4-2.5l5.4,7.3l-2.1,9.8l2.5-0.8l2.4,1l3.8,5.3l2.3,5.9l-0.1,2.9l-3.6-1.7l-0.7,5.6l-4.3,1.5l-3.5-2.8l-3.4-7.4l-3.5-2l-3.4,0.7l-1.7-2.7l-2.3-2.6l-2.8-6.5l-4.3-5.5l1.7-2.1l6.7-2.4l2.6,3.6L506.4,49.3z"/>
	<path id="municipality983" d="M538.9,102.2l-11.6,5l-2-1.5l-2.6,1.8l-1.4-1.4l-3.1,0.1l-2.5-3.9l1-1.9l4.1,0.4l0.8,2.4l3.1-1.5l2-7.8l3.8-1.7l1-1.9l2.2,1.1l-1.2,2.4l1.4,1.9l4.9,1.2l3.4-0.3L538.9,102.2z"/>
	<path id="municipality978" d="M474.5,84.2l-2.5-2.5l0.3-4.6l1.1-1.8l-6.8-4.7l-5.9-2.6l-3.7-5.5l-0.3-3.5l2.5-1.6l1.6-3.6l5.3-2.5l1.4-2.2l2.4,1l4.3-2.6l0.4-3l5.9-4l4.9-2.5l0.5-3.5l3.1-1.8l1.9-3.5l1.6,3.6l2.7,1.7l-0.3,2.8l3.5,2.5l-0.5,2.7l2.9,5l1.9-1.3l3.8,3.1l-4.1,4.8l-2.6-3.6l-6.7,2.4l-1.7,2.1l4.3,5.5l2.8,6.5l2.3,2.6l-5.6,0.3l-2.4,5.2l-5.3,0.8l0.3,4.4h-6.2l-1.4,3.3l-3.4-1.7L474.5,84.2z"/>
	<path id="municipality984" d="M522.7,107.6l2.6-1.8l2,1.5l11.6-5l2.5,1.6l5.1-0.8l0.7-1.5l0.1,4l2.3,1.5l1,4.8l-0.6,3.7h-3.2l-3.7,2.2l-3-1l-4.8,1.7l-4.9-0.5l-3.1-1.1l-3-2.5l-4.2-1.9l0.3-3.8L522.7,107.6z"/>
	<path id="municipality985" d="M538.9,102.2l3.4-5.6l-3.4,0.3l-4.9-1.2l-1.4-1.9l1.2-2.4l4.4-6.2l2.6,0.3l2.5,4.7l6.7-0.8l4,4.1l-3.1,4.8l-2.8-0.9l-0.9,4.1l-0.7,1.5l-5.1,0.8L538.9,102.2z"/>
	<path id="municipality986" d="M550,89.5l-6.7,0.8l-2.5-4.7l2.3-6.7l8.5-2.3l1.1,1.1l-0.4,3.3l-2.9,2.4l-0.6,2.7L550,89.5z"/>
	<path id="municipality987" d="M573.9,85.3l-0.9,1.3l-0.3,7.1l-2.6,5.1l-5.8,2l-0.8-2h-7.3l-1.4,9.3l-5.2-1.1l-2.3-1.5l-0.1-4l0.9-4.1l2.8,0.9l3.1-4.8l-4-4.1l-1.3-3.4l0.6-2.7l2.9-2.4l0.4-3.3l3.2,2.3l3,0.6l2.9-1.3l5.2,5.4L573.9,85.3z"/>
	<path id="municipality960" d="M559.4,48.6l2.3-2.5l-1-2.1l4.7-0.2l2.3-2.4l2.8-0.6L573,38l7.4,3.5l5.9,0.4l1.6,1.1l5.2-2.8l1.1-1.6l4.7,4.5v0.1l-12.1,4.2l-0.9,6.2l-2,3.9l-10,1.7l-4.2-3.4l2-4.8l-2.3-2.3l-2.5,0.4l-1.7-2l-4.5,2.7L559.4,48.6z"/>
	<path id="municipality962" d="M571.3,74.6l-2.6,1.7l-2.3-0.3l-4.3-3.9l-1.8,2l-7.7-4l-6.5-2.1l2-5.2l-1.3-4L549,58l7.5,3.1l3.3-4.2l1.9-0.2l1.6-3.5l1.7,1.6l2.8-0.6l1.9,1.5l-3.1,4.4l1.9,4.1l-0.9,3.2l-2.4,1.4L571.3,74.6z"/>
	<path id="municipality963" d="M571.3,74.6l-6.1-5.6l2.4-1.4l0.9-3.2l-1.9-4.1l3.1-4.4l4.2,3.4l10-1.7l2-3.9l0.9-6.2l12.1-4.2v8.7l4,5l0.2,3.1l2.2,5.7L609,69h-3.7l-5.4,2.5l-5.2-0.1l-5.5,1.5l-1.8-2.3l-4.1,2l-1.6,1.3l-2.3-2.6l-5.1,1.4L571.3,74.6z"/>
	<path id="municipality964" d="M561.7,79.2l-0.1-3.9l-1.3-1.4l1.8-2l4.3,3.9l2.3,0.3l2.6-1.7l3.1-1.8l5.1-1.4l2.3,2.6l1.6-1.3l-0.2,7.9l3.2,1.8l2.9,4.2l-0.8,2l-8.3,0.9l-2.7-1.5l-3.5-2.7l-7-0.7L561.7,79.2z"/>
	<path id="municipality967" d="M525.6,24.1l-1.4-3.7l-1.8-0.5l-4,1.4l-1.7-4.2l1.4-5l2.2-3.1l3.7-0.1l2-1.2l3.5,0.9l6.5-1.7l7.3-0.4l7.7,3.1l3.2,2.5l3.3-0.4l1.7,2l6.5-1.3l4.5,0.6l0.6,1.7L568,18l-4.6,2.8l-3.1,3l-6.8,1.7l-5.5-1.3l-4,3.2l-1.6-2.6l-4.1-0.7l-2.5-1.5l-5.3,1.3l-1.9-1.7L525.6,24.1z"/>
	<path id="municipality965" d="M556.6,28.1l3.7-4.3l3.1-3L568,18l2.6-3.2l-0.6-1.7l6.4-1.4l7.9,1.9l2.1-0.7l3.5,1.6l1.7,3.6l0.5,1.8l-5.2,4.7l-3.4,4.4l-1.8-2.6l-6.1-1.2l-1.6-2.2l-2.2,2.5l-4.6,2.1l-10,3.3L556.6,28.1z"/>
	<path id="municipality966" d="M591.6,17.9l0.7,2.1l4,12.9l2.8,9.3l-0.1,0.8l-4.7-4.5l-1.1,1.6l-5.2,2.8l-1.6-1.1l-5.9-0.4L573,38l-2.3,2.9l-2.8,0.6l-4.7-2.7l-1.7-2.3l-5.9-3.5l1.3-4.9l0.8,2.7l10-3.3l4.6-2.1l2.2-2.5l1.6,2.2l6.1,1.2l1.8,2.6l3.4-4.4l5.2-4.7L591.6,17.9z"/>
	<path id="municipality968" d="M567.8,41.5l-2.3,2.4l-4.7,0.2l1,2.1l-2.3,2.5l-0.8-2.1l-3.7-0.3l-3.5,0.8l-5.3,3.4l-3.9-0.1l-3.9-1.3l-0.8-4.4l-10.1-1l-0.5-4.5l1.8-1.1l-2-4.6l-2.5-0.7l2.4-6.2l-1.1-2.5l3.1-2.1l1.9,1.7l5.3-1.3l2.5,1.5l4.1,0.7l1.6,2.6l4-3.2l5.5,1.3l6.8-1.7l-3.7,4.3l-1.3,4.9l5.9,3.5l1.7,2.3L567.8,41.5z"/>
	<path id="municipality961" d="M549,58l2.4-3l-1-4.3l1-3.7l3.5-0.8l3.7,0.3l0.8,2.1l1.4,1.3l4.5-2.7l1.7,2l2.5-0.4l2.3,2.3l-2,4.8l-1.9-1.5l-2.8,0.6l-1.7-1.6l-1.6,3.5l-1.9,0.2l-3.3,4.2L549,58z"/>
	<path id="municipality969" d="M516.2,54.1l-5.4-7.3l-4.4,2.5l-3.8-3.1l-1.9,1.3l-2.9-5l0.5-2.7l-3.5-2.5l0.3-2.8l-2.7-1.7l-1.6-3.6l3.5-5l4.1-3.1l9.2-0.5l2.2-1.5l6.7-1.9l1.7,4.2l4-1.4l1.8,0.5l1.4,3.7l1.1,2.5l-2.4,6.2l2.5,0.7l2,4.6l-1.8,1.1l0.5,4.5l-3.4,2.7l-2.3-0.7l-1.7,2.6l-2.1,1.1L516.2,54.1z"/>
	<path id="municipality973" d="M519.9,48.4l1.7-2.6l2.3,0.7l3.4-2.7l10.1,1l0.8,4.4l3.9,1.3l3.9,0.1l5.3-3.4l-1,3.7l1,4.3l-2.4,3l-2.3,0.6l-2.9,0.1l-3.7,2.4l-5.5,2l-2.7-6.5l-2.2-0.3l-2-4.4l-6.6-2.1L519.9,48.4z"/>
	<path id="municipality974" d="M546,67.9l-1.1,3l-7.2,4.8l-8.2,4l-4.5-1.4l0.1-2.9l-2.3-5.9l1.9-0.7l1-3.2l-1.9-0.6l2.2-7.3l3.7-1.4l2.2,0.3l2.7,6.5l5.5-2l3.7-2.4l2.9-0.1l1.3,4L546,67.9z"/>
	<path id="municipality976" d="M540.8,85.6l-2.6-0.3l-4.4,6.2l-2.2-1.1l-2-1.8l-3.2-7.5l-5.6,1.2l0.7-5.6l3.6,1.7l4.5,1.4l8.2-4l7.2-4.8l1.1-3l6.5,2.1l7.7,4l1.3,1.4l0.1,3.9l-2.9,1.3l-3-0.6l-3.2-2.3l-1.1-1.1l-8.5,2.3L540.8,85.6z"/>
	<path id="municipality977" d="M471.8,106.5l-4.7,0.3l-0.7-1.6L463,105l0.7-2.4l-5.8-2.7l-1.9-3.8l-6.3,2.2l-0.9,1.5l-4-2.5l-5.1-0.1l-1.6-5.6l1.9-1.9l1.3-3.6l6.1-5.7l3-0.7l2.1-2l-0.2-4.9l1.4-2.4l2-11.1l0.9-0.5l0.3,3.5l3.7,5.5l5.9,2.6l6.8,4.7l-1.1,1.8l-0.3,4.6l2.5,2.5l3.2,2.5l0.8,3.4l6.1-0.6l-0.8,6.3l-1.3,2.8l4.6,1.8l0.2,1.9l-1.2,1.5l-3.8-1l-7,0.4l-1.7,3.8L471.8,106.5z"/>
	<path id="municipality979" d="M520.6,82.3l5.6-1.2l3.2,7.5l2,1.8l-1,1.9l-3.8,1.7l-2,7.8l-3.1,1.5l-0.8-2.4l-4.1-0.4l-5.1,0.3l-1.4,1.5l-1.7-4l-2.5,0.1l-1.6-2.7l2.9-0.8l-1.7-5.8l-1.8-3.5l-3.8-2.9l-0.7-2.5l1.3-4.9l2-0.2l0.1-3l3.4-0.7l3.5,2l3.4,7.4l3.5,2.8L520.6,82.3z"/>
	<path id="municipality980" d="M500.8,69.5l1.7,2.7l-0.1,3l-2,0.2l-1.3,4.9l0.7,2.5l3.8,2.9l1.8,3.5l1.7,5.8l-2.9,0.8l1.6,2.7l-2.2,1.1l-4.4-3l-2.3,0.3l-6.1-5.7l-3.1,0.3l-3.1-1.9l-6.1,0.6l-0.8-3.4l-3.2-2.5l2.3-2.5l3.4,1.7l1.4-3.3h6.2l-0.3-4.4l5.3-0.8l2.4-5.2L500.8,69.5z"/>
	<path id="municipality981" d="M484.6,89.5l3.1,1.9l3.1-0.3l6.1,5.7l2.3-0.3l4.4,3l2.2-1.1l2.5-0.1l1.7,4l-3.4,1.7l0.9,1.9l-5,1.1l-2.9,2.3l2.6,1.6l2.3-1.7l3.6-0.3l0.2,3.1l-4.6,0.7l-0.3,1.8l-6.4,0.1l-1.6-3.4l-3.4-0.2l3.8-5.4l-8.6-3.2l-0.2-1.9l-4.6-1.8l1.3-2.8L484.6,89.5z"/>
</g>
<g>
	<polygon class="province-outline" points="276.7,484.9 276.3,480.8 273.7,481.4 272.4,478.6 267.7,482.5 262.7,475.6 255.8,477.6 249.8,478.6 247.5,484 244.7,486.8 236,481.8 227.2,481.4 228.5,478.4 218.8,473.3 215.5,479.8 214.3,484.6 211.3,486.3 212.1,488.6 209.7,492.8 209,496 204.6,498.7 199.5,497.7 198,496.2 194.6,497 195.4,500.1 187.4,503.4 183.8,507.1 179.8,512.8 176.8,512.1 173.1,513 171.5,515.7 172.7,518.8 169.6,523.5 165.2,522.8 160.4,523.3 156.1,518.3 152.6,516.4 149.7,507.1 154.2,496.8 151.5,495.4 144.8,502.4 140.6,503.1 134.9,505.9 134.4,511.8 132,513.4 130.7,509.4 131,506 128.3,499.2 130.9,497.8 131.6,492.8 127.9,489.1 116.4,484 118.2,481 117.6,477.7 118.2,471.2 114.9,464.9 115.9,463.1 113.8,460.6 113.9,456.1 112.8,451.2 115,450 114,442.6 109.1,439.9 108,436.2 104.8,435.8 102.1,431.3 100,431.8 97.3,434.8 95.9,439.6 92.6,445.3 89.6,446.4 87.1,444.3 84.5,444.4 84.1,449 80.6,449.2 82,452.4 76.8,457.5 80.5,462.1 81.2,464.8 87.4,472.3 91.3,479.1 93.1,484.8 93.4,488.8 95,498.3 94.1,500.2 94.7,504.9 93.1,511.9 88.2,517.3 86.2,517.5 83,515.1 81.1,515.9 80.6,522.5 80.9,526.6 84.1,525.4 85.7,527.3 82.9,529.7 87.7,534.5 89.2,537.5 92.3,541.4 95,546.9 98,551.4 99.5,557.4 96.7,559.2 94,564.6 95.5,567.1 96.9,574.7 99.2,571.7 97.6,569.6 98.9,567.1 106,565.7 109.7,566.8 110.7,573.1 110.1,577.2 117,575.8 122.4,579.5 124.1,578.4 126.7,581.3 128.1,585.8 134.1,591.2 138.1,592 142.7,591.9 146.4,594.5 149.2,590.8 154,589 154.8,587.1 159.4,584.2 161.6,581.5 168.3,580 173.9,580 173.3,578.1 175.9,576.8 182.1,577.4 187,579.5 194.6,576.4 199.6,577.8 205.6,575.9 207,572.2 212.6,570.6 213.1,567.3 216.4,565.1 220.2,565 224.2,564.9 226.7,562.8 233.2,564 239.4,566.2 245.4,566.1 252,566.6 254,563.3 260.5,562.2 260.8,558.7 256.5,554.9 252.6,555.2 254,552.3 257.7,550.7 261.2,550.6 259.6,546.8 259.2,544.1 255.8,542 251.4,542 249.6,540 244.5,540 238.3,541.6 233.3,541.2 232.1,540.3 237,530.8 238.3,526.4 240.6,520.8 245,516.9 252.2,519.1 252.8,516.7 251.3,516.7 249.3,508.9 247.2,504.2 253.1,502.9 254.3,500.4 261.1,501.2 261.2,497.3 265.2,495.7 268.2,497.9 274.7,494.6 275.9,488.9 278.5,486.9 	"/>
	<polygon class="province-outline" points="521.7,439.1 521,434.8 519.2,432.8 516,431.9 512.6,429.6 503.9,425.7 503,425.5 502,424.4 497.7,425.5 490.2,423.9 492.2,417.7 495.5,415.8 495.5,413.6 490.3,411.5 489.7,405.7 486.5,402.1 481.6,405.2 476.4,406.5 472.6,406.5 466.2,408.1 465.4,410.5 462.2,411.5 463.2,415.6 460.5,417.9 460.3,421 458.4,423.7 458.5,426.2 452.9,425.3 452.3,423.8 448,424.4 443.1,420.4 438.1,413.4 435.4,413.9 432.5,420.2 423.7,421.5 424.7,423.8 421.8,426 417.8,425.3 414.5,426.9 407.6,424.8 405.7,422.5 401.2,423 397.5,419.5 391.6,421.6 385.5,426.5 380.9,425.9 380.1,423.5 375.8,424.6 376.2,430.2 377.5,432.2 376,437.7 376.4,439.7 373.2,443.8 373.3,446.2 368.2,445.4 366.5,447 361.4,447.9 356.6,450.2 354.6,452.5 350.8,452.3 347.7,453.6 345.7,459 345.8,464.1 340.8,464.4 338.4,466.3 334.8,467.1 335.1,471.3 336.9,473.2 334.4,475.3 333.2,480.9 326.7,484.3 323.7,482 319.7,483.6 319.6,487.6 312.8,486.8 311.6,489.2 305.7,490.5 307.8,495.2 309.8,503.1 311.2,503.1 310.6,505.4 303.4,503.2 299.1,507.1 296.8,512.7 295.5,517.1 290.6,526.6 291.8,527.5 296.8,527.9 303,526.4 308.1,526.4 309.9,528.3 314.3,528.4 317.7,530.4 318,533.1 319.7,537 316.2,537 312.5,538.6 311.1,541.5 315,541.2 319.2,545.1 319,548.6 325.2,550.3 336,551.8 341.9,553.2 343.9,554.7 348.7,556.4 350.6,555.9 355.8,557.3 356.3,554.6 358.7,552.3 359.2,549.5 363.7,547.9 368.1,548.2 373.5,550.5 379.6,551.2 381.3,543.7 383.2,541.4 387.7,538.9 392.9,538.2 398.3,539 402.5,540.6 408.9,540.1 415.9,536.2 427.1,531.5 427.8,530.4 430.2,529.1 439,522.4 446.3,516.4 452.3,513 457.1,508.5 458.5,505.6 466.9,500 470.8,497.1 475.9,491.4 482.4,485.2 488.9,477 491.9,473 496.2,467.8 499.2,463.5 501.7,462.6 507.6,457.5 509.7,454.8 512.1,454.5 518.7,447.3 523.3,441.2 	"/>
	<polygon class="province-outline" points="286.2,350 287.6,344.6 286.4,342.6 286,337 283.1,334.6 281,335.3 272.5,326.9 269.8,322.5 268.3,321.9 265.1,315.7 261.1,313.4 254.9,307.7 253,306.9 251,302 261.8,279.5 265.2,272.5 268.3,266 266,265.3 268.2,258.3 272.3,245.7 269.9,247.1 267,242.4 266.1,240.7 272.9,232.5 271.4,231.8 265.2,232.6 261.8,230.5 260.7,235.7 262,237 259.4,239.7 259.8,242.9 256.8,246.3 254.7,242.4 251.4,239.9 254.3,235.4 252.8,231.8 243.6,233.9 243.9,229.7 241.8,229.1 241.9,223 242.8,220.3 240.6,219.3 237,216.7 239.4,211.3 241.3,209.8 239.2,204.2 235.6,204.1 232.7,202.3 224.2,198.8 227.2,194.5 223.4,191.5 217.3,189.9 217.7,184.8 215.9,182.5 218.6,178 215.7,177 216.2,174.9 220,176.1 221.1,173.3 211.7,172.5 211,176.5 208.6,176.2 206.1,178.1 204.1,186.7 202.9,188.8 199.9,187.3 199.7,177.2 197.5,177.3 195.2,180.8 191,180.8 189.2,184.2 185.5,185.1 179.3,195.1 176.3,196.3 171.2,196.6 171.3,199.9 168.3,203 159.2,201.7 150.7,203.5 143,200.8 140.9,201.7 139.2,203.2 136.5,203 134.8,200.4 135.6,188.2 142.3,177.7 140.8,173.3 141.5,171.3 136.7,162.5 137.2,159 132.2,150.4 132.3,148.5 129.3,145.4 127.3,139.7 121.7,134.9 119,134.4 115.3,130.4 115.4,156.8 115.4,178 115.4,206.6 115.4,235.1 115.3,258.2 107,260.3 105.1,261.8 101.3,262.2 100.1,264.2 99.5,267.3 96.8,269.2 92.6,269.4 91.7,271.7 93,275.3 87.9,277.5 84.3,275.9 82.2,273.5 75.7,272.6 69,274.7 61.2,274.3 59,275.5 54.4,274.1 50.7,270.4 41,270.2 40.4,267.7 34.8,268.7 35.2,263.3 32.2,259.9 34.7,256.4 32.2,251.1 28.5,251.9 27.9,247.6 24.4,244.3 18.2,246.3 18.3,249.2 15.6,250.9 14.1,253.8 15.8,255.8 13.5,260.6 12,259.8 9,262 5.6,263.1 4.7,265.5 8.1,268.6 9.4,274.2 12.1,276 13.9,280.1 16,281.8 16.7,286.1 19.7,291.5 21.6,297 24.2,307.8 27.4,316.6 30.3,326.5 35.3,336.9 38.1,341 40.3,347 43,350.6 45.4,356.2 50.7,351.1 49.2,347.9 52.8,347.7 53.2,343.1 55.8,343 58.2,345.1 61.2,344 64.5,338.3 65.9,333.5 68.6,330.5 70.8,330 73.4,334.5 76.7,334.9 77.7,338.6 82.7,341.3 83.7,348.7 81.4,349.9 82.5,354.8 82.4,359.3 84.6,361.8 83.6,363.6 86.9,369.9 86.2,376.4 86.9,379.7 85,382.7 96.5,387.8 100.2,391.5 99.5,396.5 96.9,397.9 99.6,404.7 99.3,408.1 100.7,412.1 103.1,410.5 103.5,404.6 109.2,401.8 113.4,401.2 120.1,394.1 122.9,395.5 118.4,405.8 121.2,415.1 124.7,417 129.1,422 133.9,421.5 138.2,422.2 141.3,417.5 140.1,414.4 141.7,411.7 145.4,410.9 148.5,411.5 152.4,405.8 156,402.1 164.1,398.8 163.3,395.7 166.7,394.9 168.2,396.4 173.3,397.4 177.6,394.7 178.3,391.5 180.8,387.3 180,385 183,383.3 184.1,378.6 187.5,372 197.1,377.1 195.8,380.1 204.6,380.6 213.3,385.5 216.2,382.7 218.4,377.3 224.5,376.3 231.3,374.3 236.4,381.2 241,377.3 242.4,380.1 244.9,379.5 248.5,378.7 251,376.7 256,376.5 255.9,371.4 257.9,365.9 260.9,364.7 264.8,364.8 266.8,362.6 271.5,360.3 276.7,359.4 278.4,357.8 283.4,358.6 283.4,356.2 286.6,352 	"/>
	<polygon class="province-outline" points="630.4,272.6 632.1,271.7 627.8,273.9 621.5,265.1 615.6,262 612.7,261.5 608.9,256.4 605.7,256.8 602.6,257.5 597.4,254.5 595.5,257.4 592.4,255.1 590.1,256.3 589.5,253.7 586.6,254 584.9,252 581,252.2 577.5,248.1 577.2,245.7 575.4,244.8 573.3,247.3 568.4,247.8 564.4,247 562,250.4 558.2,252.9 555.6,251 551.5,255 549.6,253.5 546.5,253.7 544.4,252.3 541.9,253.3 534.2,256.2 531.1,259.8 527.9,262.1 530.3,265.4 528.1,270.4 523.2,270.7 521.9,274.2 518.8,276 516.5,279.7 517.2,281.1 512.6,277.3 509.6,276 498.6,280.5 493.7,284 492.3,284 486.5,290.7 484.5,293.9 480.5,306.5 478.3,313.5 480.6,314.2 477.4,320.7 474,327.7 463.3,350.2 465.3,355.1 467.1,355.9 473.4,361.6 477.3,363.9 480.6,370.1 482.1,370.7 484.8,375.1 493.2,383.5 495.4,382.8 498.2,385.2 502.5,384.1 503.3,386.5 507.9,387.1 514,382.1 519.9,380.1 523.6,383.6 528.1,383.1 530,385.4 536.9,387.5 540.3,385.9 544.3,386.6 547.1,384.3 546.1,382.1 554.9,380.8 557.8,374.4 558.3,367.8 556.2,368 555.3,364.7 552.8,362 549.1,352.9 546.5,350.5 550,347.3 554.7,345.6 557.6,342.8 563.1,335.6 563.2,333.8 566.3,330.7 568.8,324.9 574.7,322 578.1,322.3 580.4,318.5 582.5,316.3 588.3,316.1 590.1,313.5 596.9,311.9 599.2,315.1 602,316.1 604.5,318.6 607.6,311.7 612.7,311.4 616.2,306.3 620.2,304.5 624.4,300.6 627.8,299.8 629.2,296.3 627.7,292.9 629.6,289.9 630.6,280.7 632.8,276.7 	"/>
	<polygon class="province-outline" points="782.6,218.8 763.9,218.2 756,216.4 753.6,216.9 752.3,227.3 752.4,234.4 737.3,234.3 730.5,231.8 726.3,235.9 725.1,235 720.5,235.8 719.5,233.9 716.6,235.5 712.8,233.2 707.1,234.3 704.7,234.7 702.2,232.6 695.4,237 687.6,236.7 685.8,236.5 683.2,238.8 681.4,239.8 683.8,243.8 681.6,247.8 680.7,257 678.7,260.1 680.2,263.4 678.9,267 675.4,267.8 671.2,271.6 667.3,273.4 663.7,278.5 658.7,278.8 655.6,285.8 657.6,288.9 661.9,291 666.2,294.9 667.6,297.2 670.6,298.7 673.8,306.1 672.1,309.8 668.9,311.7 669.5,314.7 668.2,317 665.2,317.8 663.6,323.5 664.8,326.6 660,329.8 663.2,333.4 663.8,339.2 668.9,341.3 669,343.5 665.6,345.4 663.7,351.6 671.2,353.2 675.5,352.1 676.5,353.2 677.4,353.4 686.1,357.3 689.5,359.5 692.7,360.4 694.5,362.5 695.2,366.8 696.7,368.9 703.4,359.7 708.9,350 710.4,347.9 714.6,339.5 718.8,331.2 723.8,325.3 723.1,323.4 727.7,314.3 732.5,307.5 736.7,302.9 743,295.9 747.4,292 754,289.1 757.6,285.4 764.7,278.5 766,275.3 768.2,272.2 772.3,263.1 773.8,251 776.1,242.3 776,241 781.1,227.4 	"/>
	<polygon class="province-outline" points="400.8,84.3 397.4,84.1 401.3,78.7 392.7,75.5 391.5,77 387.6,76.1 380.6,76.5 378.9,80.3 377.2,79.6 372.5,80 371.8,78.4 368.3,78.1 369,75.7 363.3,73.1 361.4,69.3 355.1,71.4 354.2,72.9 350.2,70.5 345.1,70.4 343.5,64.8 343,64.5 326.3,68.6 326.9,73.1 322.3,85.8 319.2,95.5 317.7,99 310.2,103.5 304.9,103.4 300.7,101.9 296.1,104.8 289.8,105.4 283.5,102.8 280.2,103.4 277,101.6 274.4,98.4 268.4,99.4 265.3,98.6 260.8,93.1 255.7,90.7 252.8,88.4 248.4,86.8 243.2,86.5 236.4,88.7 232.9,93.5 231.4,97 232.6,98.1 229,106.5 228.5,112.2 225.7,115.8 227.9,115.7 228.1,125.8 231,127.3 232.2,125.2 234.3,116.6 236.7,114.7 239.2,115 239.9,111 249.2,111.8 248.2,114.6 244.4,113.4 243.9,115.5 246.8,116.5 244.1,121 245.9,123.4 245.5,128.4 251.6,130 255.4,133 252.4,137.3 260.9,140.8 263.8,142.6 267.4,142.7 269.5,148.3 267.5,149.8 265.1,155.2 268.8,157.8 271,158.8 270.1,161.5 269.9,167.6 272.1,168.2 271.8,172.4 281,170.3 282.5,173.9 279.6,178.4 282.9,180.9 285,184.8 288,181.4 287.6,178.2 290.2,175.5 288.9,174.2 289.9,169 293.4,171.1 299.5,170.3 301.1,171 294.3,179.2 295.2,180.9 298,185.6 300.5,184.2 302.4,181 308.2,174.3 309.6,174.3 314.5,170.8 325.5,166.3 328.5,167.6 333.1,171.4 332.5,170 334.7,166.3 337.9,164.5 339.1,161 344,160.7 346.3,155.7 343.9,152.4 347,150.1 350.2,146.5 357.8,143.6 360.3,142.6 362.4,144 365.5,143.8 367.4,145.3 371.5,141.3 374.1,143.2 377.9,140.7 380.4,137.3 379.7,134 373.8,132.8 369.5,133.7 366.9,129.8 369.2,129.2 367.8,124.7 372.3,121.3 371.1,116.6 373.3,115.5 375.3,114.6 376.4,107 378.6,106.3 382,104.4 385.2,107.9 390,106.7 392,105.2 391.8,97.4 394.3,93.2 391.5,91 392.3,89.5 394.5,90.8 402.5,88.7 402.5,87.7 	"/>
	<polygon class="province-outline" points="472.8,163.7 468,158.2 467.8,164.5 462.7,164.2 460.9,158.9 460.8,152.4 464.5,150.8 465.6,147.2 464.6,144.6 461.7,145.8 462,149 457.4,149.7 457.1,151.5 450.7,151.6 450.7,152.6 442.7,154.7 440.5,153.4 439.7,154.9 442.5,157.1 440,161.3 440.2,169.1 438.2,170.6 433.4,171.8 430.3,168.4 426.8,170.2 424.6,170.9 423.5,178.5 421.5,179.5 419.3,180.5 420.5,185.3 416,188.6 417.4,193.1 415.1,193.7 417.7,197.6 422,196.7 427.9,198 428.6,201.2 432.5,202 437.5,201.5 439.6,199 441.4,199.9 441.6,202.3 445.1,206.4 449,206.3 454.1,202 453.8,198.3 461.4,193.1 465.2,193.5 467.5,187.3 463.5,187.3 457.9,183.3 457.8,181.6 457.1,177.7 459.4,177.5 461.1,174.4 466.2,175.6 469,174.6 470.7,171.2 470.7,169.3 	"/>
	<polygon class="province-outline" points="727,103.5 726,86.5 726.4,78.4 725.6,73.2 723.1,69.1 722.4,62.3 718.8,62.3 713.4,64.8 708.2,64.8 702.7,66.2 700.9,64 696.8,66 696.5,73.9 699.8,75.7 702.7,79.9 701.9,81.9 693.5,82.8 690.8,81.3 687.3,78.6 686.4,79.9 686.1,87 683.5,92.1 677.7,94.2 676.8,92.2 669.6,92.2 668.1,101.4 663,100.4 663.9,105.1 663.3,108.8 660.1,108.8 656.4,111 653.4,110 648.6,111.7 643.7,111.2 640.6,110.1 637.6,107.6 633.4,105.8 633.7,102 636.1,100.9 634.6,99.4 631.5,99.6 629.1,95.6 630,93.8 624.9,94.1 623.5,95.6 620.1,97.3 621,99.2 616,100.2 613,102.5 615.6,104.1 617.9,102.4 621.6,102.1 624.4,100.9 625.4,103.5 624.3,107.1 620.7,108.7 620.7,115.2 622.6,120.5 627.6,120.7 627.8,114.5 632.7,119.9 630.5,125.6 630.6,127.5 628.8,130.9 626,131.9 621,130.7 619.3,133.8 616.9,134 617.6,137.9 617.8,139.6 623.4,143.6 627.4,143.6 625,149.7 621.3,149.4 613.7,154.5 613.9,158.3 608.8,162.5 610.6,164.5 613.4,164.2 614.1,166.8 616.4,165.6 619.4,167.9 621.4,165 626.5,168 629.7,167.3 632.9,166.9 636.7,172 639.6,172.5 645.5,175.5 651.8,184.4 656.1,182.2 658.7,179.9 660.5,180.1 668.3,180.4 675.1,175.9 677.6,178.1 680,177.7 685.7,176.5 689.5,178.9 692.4,177.3 693.4,179.2 698,178.4 699.2,179.3 703.4,175.1 699.5,173.7 693.5,166.3 694,163.4 689,161.2 688.3,156.5 688.6,149.3 689.5,146 693.6,140.8 698.3,131.2 698.8,129 704.6,122.8 707.8,122 721.9,131.7 725.2,130.1 723.9,126.2 726.2,119.4 725.4,112.9 726.5,110.5 	"/>
	<polygon class="province-outline" points="605.5,65.8 603.3,60.1 603,56.9 599,51.9 599,43.2 599,43.1 599.1,42.3 596.3,33 592.3,20.1 591.7,17.9 590,14.4 586.5,12.8 584.4,13.5 576.5,11.6 570.1,13 565.6,12.4 559.1,13.7 557.4,11.7 554.1,12.2 550.9,9.6 543.2,6.5 536,6.9 529.4,8.6 525.9,7.8 523.9,9 520.2,9 518.1,12.2 516.7,17.2 510,19.1 507.8,20.6 498.6,21.1 494.4,24.2 490.9,29.2 489,32.6 485.9,34.4 485.4,37.9 480.5,40.4 474.7,44.4 474.3,47.4 470,50 467.6,49 466.1,51.3 460.8,53.8 459.2,57.4 456.7,59 455.8,59.5 453.8,70.5 452.4,73 452.6,77.9 450.5,79.9 447.5,80.6 441.4,86.2 440.1,89.8 438.2,91.7 439.8,97.3 444.9,97.3 448.9,99.8 449.8,98.3 456.1,96.2 458,100 463.7,102.6 463,105 466.5,105.3 467.2,106.9 471.9,106.5 473.6,107.2 475.3,103.4 482.3,103 486.2,103.9 487.4,102.4 496,105.6 492.1,111 495.6,111.2 497.2,114.6 503.6,114.5 503.9,112.7 508.5,111.9 508.2,108.8 504.6,109.1 502.3,110.8 499.7,109.2 502.6,106.9 507.7,105.9 506.8,104 510.1,102.3 511.6,100.8 516.7,100.5 515.7,102.3 518.2,106.3 521.3,106.1 522.7,107.6 520.4,108.7 520.1,112.5 524.3,114.3 527.3,116.8 530.4,117.9 535.3,118.4 540.1,116.7 543.1,117.7 546.8,115.5 550,115.5 550.6,111.8 549.6,107 554.8,108.1 556.3,98.9 563.5,98.9 564.4,100.9 570.1,98.8 572.8,93.7 573.1,86.6 574,85.3 577.5,88 580.2,89.5 588.6,88.6 589.4,86.6 586.5,82.4 583.2,80.6 583.5,72.7 587.5,70.7 589.3,72.9 594.9,71.4 600,71.5 605.4,69 609.1,69 	"/>
</g>
</svg>
